<svg width="132" height="118" viewBox="0 0 132 118" fill="none" xmlns="http://www.w3.org/2000/svg">
<path d="M113.5 52.5C113.5 79.6583 92.1386 101.5 66 101.5C39.8614 101.5 18.5 79.6583 18.5 52.5C18.5 25.3417 39.8614 3.5 66 3.5C92.1386 3.5 113.5 25.3417 113.5 52.5Z" fill="#DB00FF" fill-opacity="0.35" stroke="#DB00FF" stroke-width="7"/>
<path d="M89.2985 64.1802L64.983 29.9347L70.0751 26.5399L90.8475 55.7953L97.1377 51.6017L100.681 56.5918L89.2985 64.1802ZM40.0464 71.86C32.8907 61.782 35.442 47.9716 45.726 41.1153C56.0599 34.2258 70.2327 36.8865 77.3884 46.9644C84.5789 57.0913 82.0428 70.8195 71.7088 77.7091C61.4248 84.5653 47.2369 81.9869 40.0464 71.86ZM72.1466 50.4591C69.6803 46.9856 65.9204 44.5909 61.6375 43.8422C57.3199 43.0446 53.0025 43.9047 49.4081 46.3011C45.8136 48.6974 43.4414 52.2972 42.667 56.4896C41.8577 60.6332 42.8719 64.8585 45.3382 68.332C47.8392 71.8544 51.5492 74.2825 55.8321 75.0311C60.1497 75.8287 64.4671 74.9686 68.0615 72.5723C71.6559 70.1759 74.0281 66.5761 74.8026 62.3837C75.6118 58.2401 74.6476 53.9815 72.1466 50.4591Z" fill="#490E6D"/>
</svg>
