<svg width="112" height="112" viewBox="0 0 112 112" fill="none" xmlns="http://www.w3.org/2000/svg">
<circle cx="56" cy="56" r="52.5" fill="#DB00FF" fill-opacity="0.35" stroke="#DB00FF" stroke-width="7"/>
<path d="M15.7133 80V56.6H45.6533V44.12H15.7133V38H52.4333V62.72H22.5533V73.88H52.4333V80H15.7133ZM98.0361 58.94C98.0361 71.3 87.9561 81.38 75.5961 81.38C63.1761 81.38 53.1561 71.3 53.1561 58.94C53.1561 46.52 63.1761 36.5 75.5961 36.5C87.9561 36.5 98.0361 46.52 98.0361 58.94ZM59.4561 58.94C59.4561 63.2 61.1361 67.28 64.1961 70.28C67.2561 73.34 71.2761 75.02 75.5961 75.02C79.9161 75.02 83.9361 73.34 86.9961 70.28C90.0561 67.28 91.6761 63.2 91.6761 58.94C91.6761 54.62 90.0561 50.54 86.9961 47.54C83.9361 44.48 79.9161 42.8 75.5961 42.8C71.2761 42.8 67.2561 44.48 64.1961 47.54C61.1361 50.54 59.4561 54.62 59.4561 58.94Z" fill="#490E6D"/>
</svg>
