<svg width="150" height="150" viewBox="0 0 150 150" fill="none" xmlns="http://www.w3.org/2000/svg">
<circle cx="75" cy="75" r="71.5" fill="#DB00FF" fill-opacity="0.35" stroke="#DB00FF" stroke-width="7"/>
<path d="M8.17023 86V75.08H22.1422V69.256H8.17023V66.4H25.3062V77.936H11.3622V83.144H25.3062V86H8.17023ZM41.7744 77.32H27.8304V66.4H44.9664V69.256H31.0224V74.464H44.9664V86H27.8304V83.144H41.7744V77.32ZM66.2477 76.172C66.2477 81.94 61.5437 86.644 55.7757 86.644C49.9797 86.644 45.3037 81.94 45.3037 76.172C45.3037 70.376 49.9797 65.7 55.7757 65.7C61.5437 65.7 66.2477 70.376 66.2477 76.172ZM48.2437 76.172C48.2437 78.16 49.0277 80.064 50.4557 81.464C51.8837 82.892 53.7597 83.676 55.7757 83.676C57.7917 83.676 59.6677 82.892 61.0957 81.464C62.5237 80.064 63.2797 78.16 63.2797 76.172C63.2797 74.156 62.5237 72.252 61.0957 70.852C59.6677 69.424 57.7917 68.64 55.7757 68.64C53.7597 68.64 51.8837 69.424 50.4557 70.852C49.0277 72.252 48.2437 74.156 48.2437 76.172ZM99.0055 76.172C99.0055 81.94 94.3015 86.644 88.5335 86.644C82.7375 86.644 78.0615 81.94 78.0615 76.172C78.0615 70.376 82.7375 65.7 88.5335 65.7C94.3015 65.7 99.0055 70.376 99.0055 76.172ZM81.0015 76.172C81.0015 78.16 81.7855 80.064 83.2135 81.464C84.6415 82.892 86.5175 83.676 88.5335 83.676C90.5495 83.676 92.4255 82.892 93.8535 81.464C95.2815 80.064 96.0375 78.16 96.0375 76.172C96.0375 74.156 95.2815 72.252 93.8535 70.852C92.4255 69.424 90.5495 68.64 88.5335 68.64C86.5175 68.64 84.6415 69.424 83.2135 70.852C81.7855 72.252 81.0015 74.156 81.0015 76.172ZM120.826 76.172C120.826 81.94 116.122 86.644 110.354 86.644C104.558 86.644 99.8818 81.94 99.8818 76.172C99.8818 70.376 104.558 65.7 110.354 65.7C116.122 65.7 120.826 70.376 120.826 76.172ZM102.822 76.172C102.822 78.16 103.606 80.064 105.034 81.464C106.462 82.892 108.338 83.676 110.354 83.676C112.37 83.676 114.246 82.892 115.674 81.464C117.102 80.064 117.858 78.16 117.858 76.172C117.858 74.156 117.102 72.252 115.674 70.852C114.246 69.424 112.37 68.64 110.354 68.64C108.338 68.64 106.462 69.424 105.034 70.852C103.606 72.252 102.822 74.156 102.822 76.172ZM142.646 76.172C142.646 81.94 137.942 86.644 132.174 86.644C126.378 86.644 121.702 81.94 121.702 76.172C121.702 70.376 126.378 65.7 132.174 65.7C137.942 65.7 142.646 70.376 142.646 76.172ZM124.642 76.172C124.642 78.16 125.426 80.064 126.854 81.464C128.282 82.892 130.158 83.676 132.174 83.676C134.19 83.676 136.066 82.892 137.494 81.464C138.922 80.064 139.678 78.16 139.678 76.172C139.678 74.156 138.922 72.252 137.494 70.852C136.066 69.424 134.19 68.64 132.174 68.64C130.158 68.64 128.282 69.424 126.854 70.852C125.426 72.252 124.642 74.156 124.642 76.172Z" fill="#490E6D"/>
</svg>
