<svg width="150" height="150" viewBox="0 0 150 150" fill="none" xmlns="http://www.w3.org/2000/svg">
<circle cx="75" cy="75" r="71.5" fill="#EB00FF" fill-opacity="0.35" stroke="#FF00F5" stroke-width="7"/>
<path d="M86.057 100.733L93.3247 124.549L74.6738 130.24L65.7424 100.973L70.6204 99.4841L77.888 123.3L86.7831 120.585L79.5154 96.7697L99.2184 90.7571L108.15 120.025L103.272 121.513L96.0042 97.6974L86.057 100.733ZM49.2371 48.4271L54.8324 46.7197L74.0631 68.4531L77.8352 39.7001L83.4783 37.9781L79.6155 67.8042L91.1408 64.2871L92.644 69.2129L59.168 79.4285L57.6648 74.5027L69.1423 71.0002L49.2371 48.4271ZM81.827 33.7661L48.351 43.9816L43.3454 27.5784L48.2711 26.0753L51.7444 37.4571L80.2947 28.7447L81.827 33.7661Z" fill="#0A0080"/>
</svg>
