<svg width="190" height="46" viewBox="0 0 190 46" fill="none" xmlns="http://www.w3.org/2000/svg">
<path d="M6.81514 44.0243L0.695136 44.025L0.700812 2.02503L28.3608 2.02176L28.3551 44.0218L22.1751 44.0225L22.1776 26.1425L6.81755 26.1443L6.81514 44.0243ZM6.81998 8.20431L6.81839 19.9643L22.1784 19.9625L22.18 8.20249L6.81998 8.20431ZM39.1637 8.20049L39.1621 19.9605L60.7021 19.8979L60.7013 26.0779L39.1613 26.1405L39.1589 44.0205L33.0389 44.0212L33.0446 2.02121L60.7046 2.01794L60.7037 8.19794L39.1637 8.20049ZM71.6826 44.0166L65.3826 44.0174L65.3883 2.01739L76.9683 2.01602C81.1083 2.01553 84.8281 3.69509 87.8277 6.51474C90.7673 9.33439 92.3268 13.2942 92.3262 17.3142C92.3257 21.4542 90.7652 25.2944 87.8248 28.2347C86.3246 29.7349 84.5244 30.8151 82.6043 31.5954L92.6826 44.0142L84.5226 44.0151L75.4042 32.6762L71.6842 32.6766L71.6826 44.0166ZM71.6875 8.31664L71.685 26.3766L76.965 26.376C81.945 26.3754 86.0856 22.2949 86.0862 17.3149C86.0869 12.2749 81.9475 8.31543 76.9675 8.31602L71.6875 8.31664ZM107.176 8.19245L107.172 38.1325L112.632 38.1318L112.631 44.0118L95.6512 44.0138L95.652 38.1338L101.172 38.1332L101.176 8.19316L95.6561 8.19381L95.6569 2.01381L112.637 2.0118L112.636 8.19181L107.176 8.19245ZM157.329 28.8265C154.748 38.3068 146.047 45.3279 135.667 45.3291C123.307 45.3305 113.288 35.3117 113.29 22.9517C113.292 10.5917 123.313 0.570542 135.673 0.569081C146.173 0.56784 154.992 7.7668 157.451 17.4865L150.851 17.4873C150.011 15.2674 148.751 13.2875 147.071 11.5477C144.012 8.5481 139.992 6.86857 135.672 6.86908C131.412 6.86959 127.332 8.55007 124.331 11.5504C121.271 14.6108 119.59 18.631 119.59 22.951C119.589 27.271 121.269 31.2908 124.328 34.3504C127.328 37.3501 131.408 39.0296 135.668 39.0291C139.988 39.0286 144.008 37.3481 147.068 34.3477C148.689 32.7275 149.889 30.8674 150.669 28.8273L157.329 28.8265ZM167.714 44.0053L161.594 44.006L161.599 2.00602L189.259 2.00275L189.254 44.0028L183.074 44.0035L183.076 26.1235L167.716 26.1253L167.714 44.0053ZM167.718 8.1853L167.717 19.9453L183.077 19.9435L183.078 8.18348L167.718 8.1853Z" fill="#AFA4F6"/>
</svg>
