<svg width="254" height="46" viewBox="0 0 254 46" fill="none" xmlns="http://www.w3.org/2000/svg">
<path d="M6.92641 43.998L0.806406 43.998L0.806406 1.99804L28.4664 1.99804L28.4664 43.998L22.2864 43.998L22.2864 26.118L6.92641 26.118L6.92641 43.998ZM6.92641 8.17805L6.92641 19.938L22.2864 19.938L22.2864 8.17805L6.92641 8.17805ZM47.9866 43.998L43.7866 7.51804L40.1866 7.51804L40.1866 43.998L33.8266 43.998L33.8266 1.99804L49.6066 1.99804L53.5066 38.238L56.9866 38.238L60.8866 1.99804L76.6666 1.99804L76.6666 43.998L70.0666 43.998L70.1866 7.63805L66.6466 7.63805L62.3266 43.998L47.9866 43.998ZM123.957 31.818C120.537 39.798 112.617 45.378 103.377 45.378C90.9573 45.378 80.9373 35.358 80.9373 22.938C80.9373 10.518 90.9573 0.498045 103.377 0.498045C115.797 0.498045 125.817 10.518 125.817 22.938C125.817 23.658 125.757 24.378 125.697 25.038L87.4173 25.038C87.8373 28.578 89.4573 31.818 91.9773 34.338C95.0373 37.398 99.0573 39.078 103.377 39.078C107.697 39.078 111.717 37.398 114.777 34.338C115.677 33.378 116.517 32.358 117.177 31.278L123.957 31.818ZM103.377 6.79805C99.0573 6.79805 95.0373 8.47805 91.9773 11.538C89.9373 13.578 88.4973 16.158 87.7773 18.858L118.977 18.858C118.257 16.158 116.817 13.578 114.777 11.538C111.717 8.47805 107.697 6.79805 103.377 6.79805ZM136.247 43.998L129.947 43.998L129.947 1.99804L141.527 1.99804C145.667 1.99804 149.387 3.67804 152.387 6.49805C155.327 9.31805 156.887 13.278 156.887 17.298C156.887 21.438 155.327 25.278 152.387 28.218C150.887 29.718 149.087 30.798 147.167 31.578L157.247 43.998L149.087 43.998L139.967 32.658L136.247 32.658L136.247 43.998ZM136.247 8.29805L136.247 26.358L141.527 26.358C146.507 26.358 150.647 22.278 150.647 17.298C150.647 12.258 146.507 8.29805 141.527 8.29805L136.247 8.29805ZM171.736 8.17805L171.736 38.118L177.196 38.118L177.196 43.998L160.216 43.998L160.216 38.118L165.736 38.118L165.736 8.17805L160.216 8.17805L160.216 1.99804L177.196 1.99804L177.196 8.17805L171.736 8.17805ZM221.891 28.818C219.311 38.298 210.611 45.318 200.231 45.318C187.871 45.318 177.851 35.298 177.851 22.938C177.851 10.578 187.871 0.558045 200.231 0.558045C210.731 0.558045 219.551 7.75804 222.011 17.478L215.411 17.478C214.571 15.258 213.311 13.278 211.631 11.538C208.571 8.53805 204.551 6.85805 200.231 6.85805C195.971 6.85805 191.891 8.53805 188.891 11.538C185.831 14.598 184.151 18.618 184.151 22.938C184.151 27.258 185.831 31.278 188.891 34.338C191.891 37.338 195.971 39.018 200.231 39.018C204.551 39.018 208.571 37.338 211.631 34.338C213.251 32.718 214.451 30.858 215.231 28.818L221.891 28.818ZM232.278 43.998L226.158 43.998L226.158 1.99804L253.818 1.99804L253.818 43.998L247.638 43.998L247.638 26.118L232.278 26.118L232.278 43.998ZM232.278 8.17805L232.278 19.938L247.638 19.938L247.638 8.17805L232.278 8.17805Z" fill="#510082"/>
</svg>
