<svg width="274" height="42" viewBox="0 0 274 42" fill="none" xmlns="http://www.w3.org/2000/svg">
<path d="M6.61195 41.999H0.491953V-0.000979424H28.152V41.999H21.972V24.119H6.61195V41.999ZM6.61195 6.17902V17.939H21.972V6.17902H6.61195ZM54.783 -0.000979424H60.963V41.999H33.363V-0.000979424H39.483V35.819H54.783V-0.000979424ZM92.5587 23.339H65.7387V-0.000979424H98.7387V6.11902H71.8587V17.219H98.7387V41.999H65.7387V35.879H92.5587V23.339ZM130.035 6.17902H119.115V41.999H112.995V6.17902H102.075V-0.000979424H130.035V6.17902ZM141.558 41.999H135.258V-0.000979424H146.838C150.978 -0.000979424 154.698 1.67902 157.698 4.49902C160.638 7.31902 162.198 11.279 162.198 15.299C162.198 19.439 160.638 23.279 157.698 26.219C156.198 27.719 154.398 28.799 152.478 29.579L162.558 41.999H154.398L145.278 30.659H141.558V41.999ZM141.558 6.29902V24.359H146.838C151.818 24.359 155.958 20.279 155.958 15.299C155.958 10.259 151.818 6.29902 146.838 6.29902H141.558ZM172.198 41.999H166.078V-0.000979424H193.738V41.999H187.558V24.119H172.198V41.999ZM172.198 6.17902V17.939H187.558V6.17902H172.198ZM205.249 36.119H219.529V41.999H198.949V-0.000979424H205.249V36.119ZM234.644 6.17902V36.119H240.104V41.999H223.124V36.119H228.644V6.17902H223.124V-0.000979424H240.104V6.17902H234.644ZM251.592 41.999H245.472V-0.000979424H273.132V41.999H266.952V24.119H251.592V41.999ZM251.592 6.17902V17.939H266.952V6.17902H251.592Z" fill="#E0B9FF"/>
</svg>
