<svg width="521" height="519" viewBox="0 0 521 519" fill="none" xmlns="http://www.w3.org/2000/svg">
<path d="M520.554 244.183C520.751 247.564 520.884 250.962 520.95 254.377L515.951 254.474C515.984 256.145 516 257.821 516 259.5C516 261.179 515.984 262.855 515.951 264.526L520.95 264.623C520.884 268.038 520.751 271.436 520.554 274.817L515.562 274.526C515.367 277.871 515.107 281.198 514.783 284.507L519.759 284.994C519.426 288.396 519.027 291.779 518.563 295.142L513.61 294.459C513.152 297.777 512.631 301.074 512.046 304.35L516.968 305.228C516.369 308.588 515.704 311.925 514.976 315.239L510.093 314.166C509.375 317.433 508.594 320.676 507.752 323.894L512.589 325.16C511.725 328.462 510.797 331.738 509.807 334.987L505.024 333.53C504.049 336.73 503.012 339.904 501.915 343.05L506.636 344.696C505.513 347.916 504.328 351.107 503.082 354.268L498.43 352.436C497.205 355.546 495.92 358.626 494.577 361.675L499.152 363.69C497.779 366.809 496.345 369.896 494.853 372.948L490.36 370.753C488.893 373.756 487.368 376.725 485.786 379.661L490.188 382.032C488.572 385.032 486.898 387.997 485.168 390.925L480.863 388.382C479.164 391.259 477.41 394.099 475.601 396.902L479.803 399.613C477.956 402.475 476.055 405.298 474.1 408.082L470.008 405.208C468.089 407.941 466.117 410.635 464.094 413.288L468.07 416.32C466.005 419.028 463.888 421.694 461.721 424.317L457.867 421.132C455.739 423.706 453.562 426.238 451.337 428.726L455.064 432.059C452.794 434.597 450.476 437.089 448.109 439.536L444.516 436.059C442.195 438.459 439.827 440.813 437.413 443.121L440.869 446.735C438.409 449.086 435.904 451.391 433.353 453.646L430.041 449.9C427.54 452.111 424.996 454.274 422.409 456.387L425.572 460.259C422.938 462.411 420.26 464.513 417.54 466.563L414.531 462.57C411.867 464.578 409.162 466.536 406.418 468.441L409.269 472.548C406.476 474.487 403.642 476.374 400.77 478.205L398.081 473.99C395.269 475.783 392.42 477.523 389.534 479.209L392.055 483.526C389.119 485.241 386.146 486.9 383.138 488.502L380.787 484.089C377.844 485.656 374.867 487.168 371.856 488.622L374.031 493.125C370.972 494.603 367.879 496.023 364.755 497.383L362.758 492.799C359.704 494.13 356.618 495.402 353.503 496.616L355.317 501.275C352.152 502.508 348.956 503.68 345.732 504.792L344.102 500.065C340.952 501.151 337.774 502.177 334.57 503.142L336.012 507.93C332.76 508.91 329.48 509.828 326.176 510.683L324.923 505.842C321.702 506.676 318.457 507.448 315.187 508.158L316.249 513.044C312.933 513.764 309.595 514.421 306.234 515.014L305.365 510.09C302.088 510.668 298.789 511.184 295.469 511.637L296.145 516.591C292.782 517.049 289.398 517.444 285.995 517.773L285.513 512.796C282.204 513.117 278.875 513.374 275.529 513.567L275.817 518.559C272.436 518.754 269.038 518.885 265.623 518.951L265.527 513.952C263.855 513.984 262.18 514 260.5 514C258.82 514 257.145 513.984 255.473 513.952L255.377 518.951C251.962 518.885 248.564 518.754 245.183 518.559L245.471 513.567C242.125 513.374 238.797 513.117 235.487 512.796L235.005 517.773C231.602 517.444 228.219 517.049 224.855 516.591L225.531 511.637C222.211 511.184 218.912 510.668 215.635 510.09L214.766 515.014C211.405 514.421 208.067 513.764 204.751 513.044L205.813 508.158C202.544 507.448 199.298 506.676 196.077 505.842L194.824 510.683C191.52 509.828 188.24 508.91 184.988 507.93L186.43 503.142C183.226 502.177 180.048 501.151 176.898 500.065L175.268 504.792C172.044 503.68 168.848 502.508 165.683 501.275L167.497 496.616C164.382 495.402 161.296 494.13 158.242 492.799L156.245 497.384C153.121 496.023 150.028 494.603 146.969 493.125L149.144 488.622C146.133 487.168 143.156 485.656 140.213 484.089L137.863 488.502C134.854 486.9 131.881 485.241 128.945 483.526L131.466 479.209C128.58 477.523 125.731 475.783 122.919 473.99L120.23 478.205C117.358 476.374 114.524 474.487 111.731 472.548L114.582 468.441C111.838 466.536 109.133 464.578 106.469 462.57L103.46 466.563C100.74 464.513 98.0623 462.411 95.4276 460.259L98.5909 456.387C96.004 454.274 93.4596 452.111 90.959 449.9L87.6471 453.646C85.0965 451.391 82.5906 449.086 80.131 446.734L83.5865 443.121C81.1733 440.813 78.8054 438.459 76.4844 436.059L72.8905 439.536C70.5242 437.089 68.2057 434.597 65.9364 432.059L69.6632 428.726C67.4378 426.238 65.2607 423.706 63.1334 421.132L59.2791 424.317C57.1117 421.694 54.9949 419.028 52.9303 416.32L56.9063 413.288C54.8832 410.635 52.9111 407.941 50.9917 405.208L46.8999 408.082C44.9451 405.298 43.0437 402.475 41.1973 399.613L45.3987 396.902C43.5904 394.099 41.8359 391.259 40.1365 388.382L35.8316 390.925C34.1018 387.997 32.428 385.032 30.8117 382.032L35.2136 379.661C33.6323 376.725 32.1071 373.756 30.6396 370.753L26.1474 372.948C24.6553 369.896 23.2215 366.809 21.8475 363.691L26.4231 361.675C25.0799 358.626 23.7949 355.546 22.5696 352.436L17.9177 354.269C16.6723 351.108 15.4873 347.916 14.3643 344.696L19.0854 343.05C17.9883 339.904 16.9514 336.73 15.9761 333.53L11.1933 334.987C10.2032 331.738 9.27532 328.462 8.41112 325.16L13.2482 323.894C12.4058 320.676 11.625 317.433 10.9073 314.166L6.02378 315.239C5.29571 311.925 4.6312 308.588 4.03159 305.228L8.95382 304.35C8.36922 301.074 7.84753 297.777 7.39002 294.459L2.43689 295.142C1.9732 291.779 1.5742 288.396 1.24115 284.994L6.21737 284.507C5.8935 281.198 5.63322 277.871 5.43777 274.526L0.446283 274.817C0.248718 271.436 0.116134 268.038 0.0497569 264.623L5.04881 264.526C5.01632 262.855 5 261.179 5 259.5C5 257.821 5.01632 256.145 5.04881 254.474L0.0497552 254.377C0.116131 250.962 0.248714 247.564 0.446278 244.183L5.43776 244.474C5.63322 241.129 5.8935 237.802 6.21736 234.493L1.24114 234.006C1.57419 230.604 1.9732 227.221 2.43688 223.858L7.39001 224.541C7.84752 221.223 8.36922 217.926 8.95381 214.65L4.03159 213.772C4.63119 210.412 5.2957 207.075 6.02377 203.761L10.9073 204.834C11.625 201.567 12.4058 198.324 13.2482 195.106L8.41111 193.84C9.27531 190.538 10.2032 187.262 11.1932 184.013L15.9761 185.47C16.9514 182.27 17.9883 179.096 19.0854 175.95L14.3643 174.304C15.4873 171.084 16.6723 167.893 17.9177 164.731L22.5696 166.564C23.7949 163.454 25.0799 160.374 26.4231 157.325L21.8475 155.309C23.2215 152.191 24.6553 149.104 26.1474 146.052L30.6396 148.247C32.1071 145.244 33.6323 142.275 35.2136 139.339L30.8117 136.968C32.428 133.968 34.1018 131.003 35.8316 128.075L40.1365 130.618C41.8359 127.741 43.5905 124.901 45.3988 122.098L41.1973 119.387C43.0438 116.525 44.9451 113.702 46.8999 110.918L50.9917 113.792C52.9112 111.059 54.8832 108.365 56.9063 105.712L52.9303 102.68C54.9949 99.9722 57.1117 97.3062 59.2791 94.6834L63.1334 97.8684C65.2607 95.2941 67.4378 92.7621 69.6632 90.2739L65.9364 86.9407C68.2057 84.4034 70.5242 81.9108 72.8905 79.4644L76.4844 82.9407C78.8054 80.5411 81.1733 78.1868 83.5866 75.8793L80.1311 72.2655C82.5907 69.9136 85.0965 67.6094 87.6471 65.3543L90.959 69.1001C93.4596 66.8892 96.0041 64.7264 98.5909 62.6132L95.4277 58.741C98.0624 56.5887 100.74 54.4869 103.46 52.437L106.469 56.4297C109.133 54.4216 111.838 52.4643 114.582 50.5592L111.731 46.452C114.524 44.5126 117.358 42.6263 120.23 40.7946L122.919 45.0103C125.731 43.2168 128.58 41.4767 131.466 39.7914L128.945 35.4738C131.881 33.7589 134.854 32.0998 137.862 30.4977L140.213 34.9109C143.156 33.3436 146.133 31.832 149.144 30.3775L146.969 25.8754C150.028 24.3974 153.121 22.9773 156.245 21.6165L158.242 26.2006C161.296 24.8703 164.382 23.5978 167.497 22.3845L165.683 17.7253C168.848 16.4925 172.044 15.3196 175.268 14.208L176.898 18.935C180.048 17.8491 183.226 16.8228 186.43 15.8575L184.988 11.07C188.24 10.0903 191.52 9.17225 194.824 8.3172L196.077 13.1578C199.298 12.3244 202.543 11.5521 205.813 10.8421L204.751 5.956C208.067 5.23599 211.405 4.57887 214.766 3.98594L215.635 8.90991C218.912 8.33175 222.211 7.81581 225.531 7.36336L224.855 2.40917C228.218 1.95073 231.602 1.55625 235.005 1.22699L235.487 6.20375C238.796 5.88348 242.125 5.6261 245.471 5.43284L245.183 0.441156C248.564 0.24586 251.962 0.114801 255.377 0.0491872L255.473 5.04826C257.145 5.01614 258.82 5 260.5 5C262.18 5 263.855 5.01614 265.527 5.04826L265.623 0.0491846C269.038 0.114797 272.436 0.245854 275.817 0.441149L275.529 5.43283C278.875 5.62609 282.203 5.88347 285.513 6.20374L285.995 1.22698C289.398 1.55624 292.781 1.95072 296.145 2.40915L295.469 7.36334C298.789 7.8158 302.088 8.33174 305.365 8.90989L306.234 3.98593C309.595 4.57885 312.933 5.23598 316.249 5.95598L315.187 10.8421C318.456 11.5521 321.702 12.3244 324.923 13.1578L326.176 8.31718C329.48 9.17223 332.76 10.0903 336.012 11.07L334.57 15.8575C337.774 16.8228 340.952 17.849 344.102 18.935L345.732 14.208C348.956 15.3196 352.152 16.4925 355.317 17.7253L353.503 22.3844C356.618 23.5978 359.704 24.8703 362.758 26.2006L364.755 21.6165C367.879 22.9773 370.972 24.3974 374.031 25.8754L371.856 30.3775C374.867 31.8319 377.844 33.3435 380.787 34.9109L383.137 30.4977C386.146 32.0997 389.119 33.7589 392.055 35.4737L389.534 39.7914C392.42 41.4767 395.269 43.2168 398.081 45.0103L400.77 40.7947C403.642 42.6263 406.476 44.5126 409.269 46.452L406.418 50.5592C409.162 52.4643 411.867 54.4216 414.531 56.4297L417.54 52.437C420.26 54.4869 422.938 56.5887 425.572 58.741L422.409 62.6132C424.996 64.7264 427.54 66.8892 430.041 69.1001L433.353 65.3543C435.904 67.6094 438.409 69.9136 440.869 72.2655L437.413 75.8793C439.827 78.1868 442.195 80.5411 444.516 82.9407L448.109 79.4645C450.476 81.9109 452.794 84.4034 455.064 86.9407L451.337 90.2739C453.562 92.7622 455.739 95.2941 457.867 97.8684L461.721 94.6834C463.888 97.3063 466.005 99.9722 468.07 102.68L464.094 105.712C466.117 108.365 468.089 111.059 470.008 113.792L474.1 110.918C476.055 113.702 477.956 116.525 479.803 119.387L475.601 122.098C477.41 124.901 479.164 127.741 480.863 130.618L485.168 128.075C486.898 131.003 488.572 133.968 490.188 136.968L485.786 139.339C487.368 142.275 488.893 145.244 490.36 148.247L494.853 146.052C496.345 149.104 497.779 152.191 499.152 155.309L494.577 157.325C495.92 160.374 497.205 163.454 498.43 166.564L503.082 164.731C504.328 167.893 505.513 171.084 506.636 174.304L501.915 175.95C503.012 179.096 504.049 182.27 505.024 185.47L509.807 184.013C510.797 187.262 511.725 190.538 512.589 193.84L507.752 195.106C508.594 198.324 509.375 201.567 510.093 204.834L514.976 203.761C515.704 207.075 516.369 210.412 516.968 213.772L512.046 214.65C512.631 217.926 513.152 221.223 513.61 224.541L518.563 223.858C519.027 227.221 519.426 230.604 519.759 234.006L514.783 234.493C515.107 237.802 515.367 241.129 515.562 244.474L520.554 244.183Z" stroke="#DB00FF" stroke-width="10" stroke-dasharray="10 10"/>
</svg>
