<svg width="178" height="46" viewBox="0 0 178 46" fill="none" xmlns="http://www.w3.org/2000/svg">
<path d="M44.3797 28.818C41.7997 38.298 33.0997 45.318 22.7197 45.318C10.3597 45.318 0.339688 35.298 0.339688 22.938C0.339688 10.578 10.3597 0.558045 22.7197 0.558045C33.2197 0.558045 42.0397 7.75804 44.4997 17.478H37.8997C37.0597 15.258 35.7997 13.278 34.1197 11.538C31.0597 8.53805 27.0397 6.85805 22.7197 6.85805C18.4597 6.85805 14.3797 8.53805 11.3797 11.538C8.31969 14.598 6.63969 18.618 6.63969 22.938C6.63969 27.258 8.31969 31.278 11.3797 34.338C14.3797 37.338 18.4597 39.018 22.7197 39.018C27.0397 39.018 31.0597 37.338 34.1197 34.338C35.7397 32.718 36.9397 30.858 37.7197 28.818H44.3797ZM54.6753 24.678V43.998H48.4953V1.99804H54.6753V18.498H79.3353V1.99804H85.5153V43.998H79.3353V24.678H54.6753ZM102.095 8.17805V38.118H107.555V43.998H90.575V38.118H96.095V8.17805H90.575V1.99804H107.555V8.17805H102.095ZM127.43 43.998L123.47 7.63805H118.97V43.998H112.37V1.99804H129.11L133.25 38.418H137.81L137.75 1.99804H144.17V43.998H127.43ZM155.665 43.998H149.545V1.99804H177.205V43.998H171.025V26.118H155.665V43.998ZM155.665 8.17805V19.938H171.025V8.17805H155.665Z" fill="#0019FF"/>
</svg>
