<svg width="223" height="109" viewBox="0 0 223 109" fill="none" xmlns="http://www.w3.org/2000/svg">
<path d="M50.1489 20.7768C53.0795 19.6647 56.0301 18.6471 58.901 17.393C67.5334 13.678 75.9266 8.49586 84.8381 6.48453C94.4076 4.30755 104.475 5.13578 114.304 4.52055C123.475 3.95264 132.646 3.17176 141.816 2.5092C147.718 2.08327 153.619 1.6573 159.52 1.27869C165.421 0.876428 171.322 0.355845 177.223 0.166543C182.108 0.0245663 187.072 -0.259378 191.877 0.545155C201.506 2.17788 211.075 4.49686 222.818 7.00511C218.392 8.54319 215.581 9.84462 212.67 10.4598C205.314 11.9506 200.429 14.6008 198.894 25.4147C198.097 31.0465 190.72 35.6371 185.876 40.0147C184.101 41.6237 181.051 41.2687 178.579 41.813C177.782 43.1381 176.964 44.4869 176.167 45.812C179.317 47.634 182.487 49.456 185.636 51.2781C185.357 52.1063 185.078 52.9581 184.819 53.7863C180.054 53.3131 175.29 52.8162 170.525 52.3429C170.305 53.3131 170.086 54.2596 169.867 55.2298C172.339 57.3358 174.811 59.4417 177.283 61.5477C177.423 62.6362 177.542 63.7484 177.682 64.8369C169.947 65.8307 162.171 66.4696 154.496 67.9367C148.694 69.0488 142.953 70.9182 137.331 73.0241C131.469 75.2248 125.927 79.3658 119.986 80.3596C111.134 81.8267 105.373 86.1333 102.402 96.3556C100.468 103.005 97.7769 111.216 90.0416 107.666C82.9442 104.425 75.4083 100.591 75.0893 88.4759C74.8301 78.088 75.6874 69.6877 84.1603 63.4644C89.3438 59.6547 94.4076 53.2658 84.9379 46.7822C83.004 45.4571 82.2863 41.5053 81.13 38.6895C77.5215 29.9579 71.9593 26.1956 63.5063 27.1421C59.1402 27.639 54.5947 25.746 50.1289 24.9178C50.1289 23.5217 50.1289 22.1493 50.1489 20.7532V20.7768Z" fill="#B55AE0"/>
<path d="M0.605469 28.3105C7.31108 20.7572 10.9541 13.9379 16.0583 11.6175C21.4028 9.17866 28.1285 11.0729 34.5538 9.08393C30.7307 7.80531 26.8874 6.55041 23.0642 5.2718C23.1042 4.301 23.1243 3.33017 23.1643 2.35938H78.4105C78.7108 3.14075 79.011 3.9458 79.3313 4.72718C69.8434 7.68693 60.2754 10.3152 50.8875 13.7012C41.86 16.9451 33.1727 21.5859 24.065 24.4036C17.0191 26.582 9.57293 26.8898 0.625444 28.3105H0.605469Z" fill="#B55AE0"/>
</svg>
