<svg width="143" height="42" viewBox="0 0 143 42" fill="none" xmlns="http://www.w3.org/2000/svg">
<path d="M12.0989 6.18V36.12H17.5589V42H0.578906V36.12H6.09891V6.18H0.578906V-2.86102e-06H17.5589V6.18H12.0989ZM37.4334 42L33.4734 5.64H28.9734V42H22.3734V-2.86102e-06H39.1134L43.2534 36.42H47.8134L47.7534 -2.86102e-06H54.1734V42H37.4334ZM89.9086 12.72C91.0486 15.36 91.6486 18.18 91.6486 21C91.6486 23.88 91.0486 26.64 89.9086 29.28C88.7686 31.74 87.1486 34.02 85.1086 35.94C80.9086 39.84 75.3886 42 69.5086 42H59.5486V-2.86102e-06H69.5086C75.3886 -2.86102e-06 80.9086 2.16 85.1086 6.06C87.1486 7.98 88.7686 10.2 89.9086 12.72ZM69.5086 35.7C78.2686 35.7 85.3486 29.1 85.3486 21C85.3486 12.84 78.2686 6.3 69.5086 6.3H65.7286V35.7H69.5086ZM103.798 6.18V36.12H109.258V42H92.2781V36.12H97.7981V6.18H92.2781V-2.86102e-06H109.258V6.18H103.798ZM120.747 42H114.627V-2.86102e-06H142.287V42H136.107V24.12H120.747V42ZM120.747 6.18V17.94H136.107V6.18H120.747Z" fill="#49184B"/>
</svg>
