<svg width="315" height="339" viewBox="0 0 315 339" fill="none" xmlns="http://www.w3.org/2000/svg">
<path d="M76.7395 166.718C89.7116 156.083 103.459 146.306 118.968 140.825C127.943 137.644 137.232 136.309 146.199 135.024C150.206 134.45 151.951 133.344 154.366 130.148C160.663 121.808 166.954 113.359 174.236 105.529C183.086 96.0219 194.457 92.1193 205.141 92.7401C213.857 93.2424 221.81 95.6294 229.668 97.8318C234.608 99.2185 239.616 101.045 243.016 104.042C252.893 112.726 264.06 120.606 268.464 133.381C272.506 145.135 273.223 158.098 270.291 172.172C269.009 174.214 267.727 176.257 266.446 178.299C265.396 178.46 264.333 178.633 263.283 178.794C263.147 178.312 263.023 177.817 262.875 177.328C263.169 176.967 263.463 176.607 263.756 176.247C264.586 175.03 265.405 173.806 266.223 172.602C266.055 169.51 265.9 166.405 265.721 163.305C268.579 154.556 268.297 146.712 265.668 139.557C263.326 135.088 261.415 130.324 258.518 126.241C256.045 122.757 252.841 119.652 249.2 117.111C242.77 112.601 235.763 108.652 228.994 104.474C226.27 103.591 223.533 102.721 220.808 101.837C215.442 100.457 210.888 98.1616 204.847 97.4045C192.634 95.8724 182.593 102.213 174.054 110.701C168.923 115.798 165.507 121.463 167.052 127.19C167.37 128.37 166.266 130.21 165.831 131.736C164.948 131.29 164.053 130.837 162.952 130.276C161.783 132.41 160.759 134.299 159.734 136.189C158.638 138.682 157.54 141.194 156.444 143.687C155.101 143.811 153.756 143.955 152.413 144.079C151.986 142.935 151.57 141.798 151.13 140.667C150.604 140.569 150.078 140.471 149.54 140.366C148.764 140.508 147.987 140.651 147.21 140.794C146.887 140.655 146.577 140.504 146.254 140.365C142.796 141.657 139.337 142.949 136.047 144.179C136.115 144.033 136.501 143.124 136.886 142.236L136.137 141.915C134.158 143.753 132.179 145.591 129.625 147.948C130.499 146.007 131.059 144.767 131.619 143.508C131.375 143.44 131.155 143.365 130.911 143.297L127.852 146.195C127.889 145.779 127.914 145.357 127.964 144.928C126.582 144.902 125.109 144.444 123.825 144.96C122.335 145.556 121.005 147.026 119.579 148.122C118.065 145.59 115.085 146.595 112.321 148.32C110.504 149.444 106.529 149.683 107.715 152.95C107.705 153.111 107.695 153.272 107.674 153.426C102.977 152.713 99.2728 155.523 95.7545 158.972C93.0967 160.7 90.4263 162.441 87.7799 164.177C86.6695 164.947 85.5717 165.705 84.4612 166.475C83.584 168.08 82.6953 169.679 81.8307 171.271L81.8218 171.224C81.8076 171.653 81.806 172.07 81.8032 172.507C77.4966 176.676 77.899 180.187 79.5421 183.509C80.8651 187.238 82.2247 190.948 83.5111 194.696C83.7821 195.492 83.6997 196.464 83.9341 197.279C85.2108 201.773 86.5367 206.235 87.8501 210.711C88.6382 212.142 89.4264 213.574 90.1905 215.011C93.4197 221.036 96.6248 227.066 99.8539 233.09C97.9292 231.494 95.4138 230.281 94.2147 228.217C92.2226 224.803 92.4667 219.397 89.252 217.435C82.5389 213.313 81.0796 206.365 79.646 199.579C78.0206 191.859 73.6523 185.124 75.8303 175.888C75.5439 175.543 75.27 175.184 74.9836 174.838C75.7623 172.712 76.5537 170.573 77.3438 168.453C77.4789 168.37 77.6139 168.287 77.7603 168.211C77.624 168.314 77.4878 168.418 77.3515 168.521C77.0895 168.357 76.8641 168.175 76.6021 168.012C76.6289 167.569 76.6557 167.126 76.6825 166.683L76.7395 166.718Z" fill="#471D51"/>
<path d="M266.452 178.314C267.734 176.272 269.016 174.229 270.298 172.186C267.842 182.106 266.333 192.009 262.73 201.945C255.718 221.331 239.988 237.31 220.602 250.404C211.187 256.759 200.27 261.363 189.82 265.672C178.328 270.398 166.815 272.353 155.751 272.351C154.557 272.359 153.503 271.995 152.38 271.797C150.205 271.611 148.005 271.431 145.817 271.258C142.245 270.703 138.365 270.562 135.129 269.527C123.811 265.919 114.62 259.961 107.732 251.886C100.557 243.485 93.4116 234.978 87.5183 225.705C80.2982 214.33 73.7606 202.42 71.9456 188.062C71.5763 185.178 72.125 181.968 72.2393 178.905C73.2778 178.153 74.3276 177.407 75.366 176.654C75.5336 176.425 75.7012 176.195 75.8573 175.958C73.692 185.181 78.0603 191.915 79.673 199.648C81.1067 206.434 82.5659 213.382 89.279 217.504C92.4824 219.459 92.2382 224.865 94.2417 228.287C95.4421 230.33 97.9563 231.563 99.881 233.16C101.626 234.791 103.396 236.416 105.092 238.079C108.496 241.413 111.863 244.765 115.254 248.112C117.53 249.949 119.807 251.786 122.072 253.616C131.317 257.895 140.575 262.161 149.82 266.44C151.557 266.833 153.294 267.247 155.031 267.64L155.065 267.662C157.148 267.434 159.218 267.22 161.263 267.012C161.615 267.064 161.966 267.116 162.318 267.167C162.731 267.174 163.144 267.181 163.558 267.188L163.713 267.16L165.054 267.076C175.275 266.552 185.582 262.654 195.899 258.784C208.588 254.972 217.775 245.947 227.323 237.586C241.066 225.55 251.49 212.093 258.876 197.453L258.573 195.237C259.251 194.574 259.931 193.89 260.609 193.227C261.127 191.899 261.645 190.57 262.151 189.235C263.576 185.61 264.989 181.978 266.427 178.34L266.452 178.314Z" fill="#3A213E"/>
<path d="M57.5327 179.498C49.5841 180.562 43.206 183.606 39.1163 191.421C37.7522 194.039 34.6341 196.734 31.8369 198.814C24.929 203.974 16.8963 200.952 16.2083 194.15C15.2837 185.007 22.8651 178.68 30.6943 172.36C34.224 169.504 36.0274 167.243 33.6921 164.617C33.4084 163.835 33.1008 163.058 32.8172 162.275L32.5869 162.173L32.6735 161.914C32.865 161.093 33.0451 160.265 33.2366 159.444C34.3142 156.48 35.3918 153.516 36.4694 150.552C37.1187 150.957 37.7554 151.375 38.3921 151.793C35.7612 156.4 37.7292 159.236 39.8539 162.023C39.7091 162.267 39.5176 162.502 39.269 162.703C39.1626 163.681 39.0561 164.659 38.9497 165.638C40.7782 168.24 37.6913 170.223 35.5022 172.411C31.6374 176.312 27.4121 180.114 24.2632 184.294C22.6566 186.427 21.9241 189.94 22.751 191.709C25.2136 196.922 32.0016 195.699 37.4408 189.415C41.114 185.165 43.7856 180.081 50.2082 178.255C51.0218 178.094 51.8468 177.939 52.6603 177.778C53.9551 177.477 55.2739 177.171 56.5687 176.871C57.9428 176.432 59.3054 175.986 60.6795 175.547C61.3951 175.638 62.1107 175.728 62.8263 175.819C61.9518 176.988 61.0773 178.156 60.2143 179.331L60.2851 179.334C59.3475 179.397 58.3984 179.453 57.4607 179.516L57.5327 179.498Z" fill="#3C2C3D"/>
<path d="M38.4226 151.793C37.7733 151.388 37.1365 150.971 36.4998 150.553C40.0232 145.457 45.2456 142.172 50.8472 139.458C57.3388 136.296 60.3355 137.37 60.4668 142.821C60.5069 144.309 60.3741 145.919 59.9126 147.491C56.3693 159.365 58.0351 162.116 70.5892 164.843C70.5144 165.298 70.427 165.766 70.3522 166.221C70.0736 166.528 69.819 166.829 69.5404 167.136C67.9865 167.421 66.4199 167.719 64.8773 168.011L64.9368 168.006C63.8266 167.795 62.7164 167.584 61.6062 167.372C54.1121 166.002 52.6689 163.87 54.2028 156.489C54.889 153.156 55.6232 149.811 56.2854 146.483C57.1163 142.321 54.2474 140.7 49.653 143.373C45.6834 145.684 42.1772 148.931 38.4591 151.774L38.4226 151.793Z" fill="#473B47"/>
<path d="M69.5227 167.145C69.8013 166.838 70.056 166.537 70.3346 166.23C70.9106 166.088 71.4865 165.945 72.0499 165.816C73.2932 166.173 74.5364 166.53 75.7796 166.887C75.7528 167.33 75.726 167.773 75.6992 168.216C71.4976 169.671 67.296 171.127 63.0944 172.582L63.0099 172.613L59.5229 173.783C59.9249 174.368 60.3383 174.96 60.7403 175.545C59.3662 175.983 58.0035 176.43 56.6294 176.869C56.2538 175.652 55.8655 174.449 55.4899 173.233C54.9797 172.873 54.4696 172.513 53.9594 172.154C57.6126 170.774 61.2545 169.388 64.9077 168.008L64.8484 168.013C66.4023 167.728 67.9688 167.43 69.5113 167.138L69.5227 167.145Z" fill="#D1BAD0"/>
<path d="M74.4277 176.777C73.3892 177.53 72.3394 178.275 71.301 179.028C69.2287 178.697 67.1324 178.373 65.0602 178.042L65.0743 177.612C65.503 177.169 65.9204 176.719 66.3503 176.255C69.0466 176.432 71.744 176.588 74.4403 176.764L74.4277 176.777Z" fill="#473B47"/>
<path d="M145.83 271.233C148.018 271.406 150.205 271.599 152.394 271.772C150.194 271.592 148.018 271.406 145.83 271.233Z" fill="#883B8F"/>
<path d="M60.2742 179.325C61.1486 178.157 62.0231 176.988 62.8735 175.826C63.0216 175.918 63.0245 176.066 62.8833 176.25C63.6124 176.704 64.3414 177.159 65.0464 177.619L65.0323 178.049C63.4344 178.474 61.8606 178.893 60.2628 179.318L60.2742 179.325Z" fill="#473B47"/>
<path d="M72.0515 165.809C71.4755 165.951 70.9121 166.081 70.3361 166.223C70.4109 165.768 70.4983 165.3 70.573 164.846C71.0743 165.158 71.5629 165.483 72.0515 165.809Z" fill="#CAB8CE"/>
<path d="M260.642 193.206C259.964 193.87 259.284 194.554 258.606 195.217C255.992 196.409 253.379 197.601 250.789 198.787C250.88 199.24 250.982 199.701 251.086 200.141C253.694 199.239 256.301 198.336 258.909 197.433C251.523 212.073 241.087 225.522 227.356 237.566C217.808 245.927 208.61 254.945 195.932 258.764C196.398 257.508 196.84 256.259 197.69 253.926C194.719 255.563 192.444 256.82 190.524 257.88C182.962 258.808 175.652 257.908 167.443 263.28C166.544 263.869 164.998 263.448 163.741 263.501C160.367 262.025 159.036 257.058 152.583 261.54C151.45 259.559 150.468 257.818 149.454 256.016C147.852 257.483 146.625 258.62 145.499 259.652C144.246 258.871 143.301 258.262 142.332 257.678C137.138 254.629 131.955 251.586 126.761 248.537C126.106 247.251 125.802 245.64 124.747 244.711C120.918 241.364 116.84 238.237 112.849 235.039L113.207 233.026C113.374 232.42 113.874 231.582 113.659 231.218C110.394 225.798 107.662 219.958 103.554 215.162C96.1004 206.483 93.755 195.034 89.3317 184.713C86.7433 178.649 91.1178 171.597 98.5683 168.803C102.922 167.171 107.382 165.166 111.649 164.378C121.454 162.529 131.16 161.328 140.907 159.86C141.617 160.825 142.328 161.77 143.224 162.977C143.949 161.736 144.386 160.964 144.834 160.198C146.217 159.43 147.611 158.649 149.005 157.888L148.953 157.96C148.707 159.29 148.474 160.607 148.228 161.938L149.033 163.484C149.184 167.82 149.336 172.156 149.476 176.485C150.206 176.334 150.912 176.189 151.643 176.038C152.024 173.643 152.707 171.144 152.703 168.864C152.687 166.2 152.069 163.705 151.704 161.137C152.15 158.845 152.585 156.546 153.018 154.267C155.207 152.873 157.395 151.479 159.595 150.092C162.592 146.654 165.577 143.228 168.575 139.789C170.599 143.077 172.622 146.365 174.645 149.653C179.932 153.909 185.067 158.322 190.554 162.39C199.626 169.132 208.684 175.926 218.272 182.154C222.355 184.803 227.251 187.123 232.72 187.774C242.602 188.94 253.18 188.973 263.309 178.822C264.359 178.661 265.422 178.488 266.471 178.327C265.047 181.952 263.633 185.584 262.195 189.222C260.877 190.114 259.558 191.005 257.622 192.327C259.027 192.743 259.841 192.978 260.654 193.214L260.642 193.206ZM191.279 214.514C191.203 212.063 191.126 209.613 191.061 207.17C190.58 207.308 190.098 207.467 189.616 207.606C187.583 210.142 185.539 212.67 183.506 215.206C180.446 218.313 177.936 217.208 175.525 216.625C172.147 215.794 168.973 217.263 167.557 220.35C165.288 225.225 162.61 224.35 159.76 223.597C158.399 223.23 157.149 222.597 156.194 221.772C149.216 215.772 142.126 209.869 135.473 203.59C131.839 200.155 130.086 200.212 124.672 204.902C123.287 206.108 120.806 207.257 119.257 207.273C110.67 207.353 105.747 200.607 107.238 192.761C107.81 189.753 107.559 186.087 105.696 184.445C103.754 182.733 99.5119 182.91 96.0863 182.676C95.3329 182.624 93.7783 184.288 91.3028 186.13C93.7793 185.835 94.453 185.837 95.1376 185.657C102.733 183.789 104.394 184.866 104.019 191.256C103.918 193.116 103.914 194.951 103.994 196.756C104.385 205.337 109.356 209.731 118.975 209.395C120.775 209.327 123.796 208.243 124.975 206.93C128.964 202.542 130.977 203.839 133.054 206.053C137.531 210.787 141.808 215.709 146.621 220.172C148.849 222.229 152.2 223.315 154.899 224.997C161.484 229.101 165.335 227.971 170.733 220.011C174.058 220.161 177.48 220.247 180.81 220.504C185.47 220.859 189.065 219.256 191.266 214.527L191.279 214.514ZM199.608 248.791C197.821 248.638 195.738 248.865 194.333 248.261C188.817 245.846 183.53 243.157 178.167 240.566C177.662 241.087 177.158 241.609 176.665 242.137C179.212 246.337 181.723 250.556 186.194 253.258C186.688 252.898 187.183 252.538 187.69 252.164C186.145 250.156 184.612 248.135 183.111 246.176C187.403 247.723 191.671 249.276 195.927 250.822C197.755 251.48 199.247 251.449 199.608 248.791C221.524 235.686 236.498 218.525 246.452 198.57C245.673 198.753 244.727 198.957 243.552 199.228C244.224 197.891 244.722 196.885 245.34 195.662C236.767 196.294 228.585 196.919 220.048 197.552C218.509 205.41 218.426 213.027 215.14 220.465C211.854 227.882 205.34 235.126 200.007 242.792C200.466 243.203 201.59 244.175 202.7 245.16C202.342 245.606 201.997 246.038 201.628 246.477C199.563 246.213 197.499 245.95 194.437 245.567C196.647 246.945 198.127 247.868 199.597 248.784L199.608 248.791ZM252.951 194.513C252.786 194.306 252.621 194.099 252.444 193.905C251.554 194.541 250.689 195.172 249.799 195.808C249.998 196.037 250.173 196.271 250.372 196.5L252.951 194.513ZM254.882 192.687C254.789 193.236 254.732 193.597 254.675 193.958C255.152 193.88 255.695 193.904 256.076 193.661C256.322 193.501 256.343 192.951 256.449 192.577C255.998 192.61 255.546 192.642 254.869 192.7L254.882 192.687ZM252.207 206.231C251.89 206.2 251.595 206.184 251.289 206.16C251.228 206.394 251.016 206.763 251.13 206.834C251.311 206.968 251.68 206.927 251.962 206.956C252.047 206.717 252.133 206.477 252.207 206.231Z" fill="#DF7BEF"/>
<path d="M149.012 157.89C147.629 158.659 146.235 159.44 144.852 160.208C145.132 157.352 145.399 154.489 145.68 151.614C145.433 151.585 145.198 151.564 144.951 151.536C143.602 154.309 142.263 157.09 140.926 159.85C131.18 161.318 121.461 162.531 111.669 164.368C107.4 165.175 102.942 167.16 98.5876 168.792C91.1371 171.587 86.7385 178.644 89.351 184.702C93.7742 195.023 96.1197 206.473 103.574 215.152C107.681 219.948 110.413 225.788 113.679 231.208C113.904 231.579 113.393 232.409 113.227 233.016C107.622 226.2 102.018 219.384 96.1482 212.257C96.0737 212.316 94.8498 213.203 93.6498 214.085C93.0813 212.54 92.514 210.974 91.9455 209.429C91.9733 209.948 92.0124 210.474 92.0401 210.992C90.6749 210.894 89.2971 210.808 87.9319 210.709C86.6186 206.234 85.2926 201.772 84.0159 197.278C83.7815 196.463 83.8639 195.49 83.5929 194.695C82.3065 190.947 80.9595 187.224 79.6239 183.508C80.5623 182.651 82.3914 181.138 82.304 181.02C79.8335 177.893 85.4582 174.796 85.8113 171.694C85.9848 170.193 86.9958 168.525 87.6241 166.931C87.1665 166.876 86.7088 166.821 86.2512 166.765L81.9011 171.262C82.7784 169.657 83.667 168.059 84.5317 166.466C85.6421 165.696 86.7399 164.939 87.8504 164.168C90.5081 162.44 93.1785 160.699 95.8249 158.963C95.9848 159.251 96.1447 159.539 96.3046 159.826C96.0992 160.095 95.904 160.392 95.71 160.668C95.6137 161.088 95.5299 161.496 95.4222 161.909C88.8824 166.65 88.5476 167.298 90.8198 172.141C91.9186 169.608 92.7698 167.652 93.6763 165.564C94.8945 164.965 96.4171 164.222 97.9396 163.478C98.9143 163.584 99.9016 163.677 101.804 163.881C100.903 162.17 100.371 161.191 99.174 158.899C102.654 159.208 104.794 159.393 107.616 159.647C110.427 155.382 113.995 150.92 119.638 148.106C121.04 147.016 122.381 145.554 123.884 144.944C125.168 144.428 126.63 144.88 128.023 144.912C127.986 145.328 127.96 145.751 127.911 146.18L130.97 143.281C131.214 143.349 131.434 143.424 131.679 143.493C131.119 144.732 130.558 145.991 129.684 147.933C132.227 145.568 134.217 143.738 136.196 141.899L136.945 142.22C136.547 143.122 136.163 144.01 136.106 144.163C139.396 142.933 142.855 141.641 146.313 140.35C146.346 140.788 146.39 141.233 146.435 141.658L146.45 141.605C143.687 146.255 140.923 150.905 138.16 155.556C138.755 155.676 139.375 155.791 139.97 155.911C140.937 154.383 141.94 152.856 142.849 151.312C144.574 148.396 146.263 145.479 147.953 142.562L147.905 142.574C147.307 144.834 146.709 147.095 146.112 149.355C146.431 149.345 146.751 149.335 147.082 149.333C148.451 146.446 149.808 143.552 151.176 140.664C151.604 141.808 152.019 142.945 152.459 144.076C151.318 148.672 150.166 153.261 149.013 157.87L149.012 157.89Z" fill="#C15BDA"/>
<path d="M165.885 131.761C166.333 130.223 167.425 128.396 167.106 127.215C165.561 121.488 168.977 115.824 174.108 110.727C182.635 102.251 192.688 95.8977 204.901 97.4297C210.943 98.1869 215.497 100.482 220.863 101.863C219.261 103.518 217.672 105.161 216.071 106.816C213.486 106.166 210.901 105.516 208.317 104.866C207.026 105.294 205.735 105.722 204.456 106.158C200.48 107.399 196.504 108.64 192.552 109.875C190.272 111.232 187.953 113.214 185.681 113.845C179.214 115.623 176.733 120.094 173.922 124.548C174.885 127.195 175.688 129.952 176.859 132.479C177.799 134.528 179.167 136.341 180.35 138.27C180.651 139.356 180.952 140.442 181.24 141.541L181.263 141.555C181.473 142.188 181.684 142.8 181.894 143.432C179.357 143.167 176.832 142.889 174.283 142.617C173.62 142.057 172.968 141.504 172.304 140.944C172.183 140.597 172.074 140.257 171.953 139.91L165.907 131.796L165.885 131.761Z" fill="#C759E2"/>
<path d="M263.756 176.284C263.462 176.644 263.169 177.004 262.875 177.365C255.895 181.957 248.899 186.037 241.48 184.589C239.923 184.538 238.367 184.466 236.81 184.415L236.776 184.394C234.699 183.747 233.961 180.111 229.871 184.018C229.317 183.798 228.775 183.585 228.221 183.365C228.458 182.761 229.089 181.713 228.883 181.605C222.996 178.479 216.68 175.796 211.21 172.24C208.469 170.448 203.568 169.399 206.228 163.932C208.257 163.797 210.859 162.995 212.166 163.663C216.488 165.877 220.342 168.613 224.372 171.167C224.579 172.236 224.775 173.299 224.982 174.368C224.58 179.069 229.827 181.044 236.319 178.656L236.357 178.616C237.123 178.655 237.89 178.674 238.645 178.705L238.693 178.693C239.485 178.289 240.267 177.878 241.06 177.473L241.096 177.454C241.635 177.331 242.186 177.215 242.713 177.104C243.501 176.592 244.275 176.093 245.052 175.574C246.482 173.812 247.912 172.05 249.343 170.288C249.893 170.568 250.444 170.849 250.994 171.129C251.386 171.875 251.79 172.628 252.182 173.374C252.186 173.502 252.19 173.63 252.207 173.745C252.179 173.623 252.151 173.501 252.123 173.379C255.466 170.866 258.81 168.354 262.154 165.841C262.599 165.513 263.044 165.184 263.502 164.843L263.516 164.81C264.243 164.323 264.97 163.835 265.697 163.348C265.864 166.441 266.019 169.546 266.198 172.645C265.368 173.862 264.55 175.086 263.732 176.29L263.756 176.284Z" fill="#C759E2"/>
<path d="M229.01 104.501C235.779 108.678 242.774 112.641 249.216 117.137C252.857 119.678 256.038 122.789 258.534 126.268C261.431 130.351 263.342 135.115 265.684 139.584C263.222 138.864 260.735 138.15 258.26 137.443C258.015 136.809 258.005 135.988 257.523 135.562C253.391 131.963 248.039 129.17 245.26 124.701C241.271 118.328 233.937 115.888 227.172 112.612C226.988 111.16 226.817 109.695 226.633 108.243C226.507 107.976 226.369 107.723 226.254 107.463C227.177 106.472 228.112 105.487 229.022 104.508L229.01 104.501Z" fill="#C459D5"/>
<path d="M241.479 184.567C248.897 186.015 255.905 181.942 262.873 177.342C263.01 177.824 263.145 178.327 263.281 178.809C253.14 188.952 242.574 188.927 232.692 187.761C227.234 187.117 222.327 184.79 218.244 182.141C208.656 175.913 199.599 169.118 190.526 162.377C185.039 158.309 179.904 153.896 174.617 149.64C175.399 148.832 176.18 148.044 176.973 147.243L179.066 148.798C179.211 149.139 179.368 149.467 179.513 149.808C183.112 153.034 186.71 156.279 190.31 159.505C190.731 159.768 191.153 160.03 191.562 160.306C192.905 161.541 194.06 162.971 195.618 163.984C201.852 168.016 208.124 172.009 214.534 175.858C218.949 178.505 223.653 180.853 228.23 183.35C228.784 183.57 229.327 183.783 229.881 184.003C232.178 184.14 234.476 184.256 236.773 184.392L236.807 184.413C238.364 184.464 239.92 184.536 241.477 184.587L241.479 184.567Z" fill="#721D79"/>
<path d="M87.9047 210.733C89.27 210.832 90.6477 210.918 92.013 211.017C91.9852 210.498 91.9461 209.972 91.9184 209.453C92.4869 210.998 93.0542 212.564 93.6227 214.109C94.5268 215.968 95.1849 217.987 96.3604 219.66C100.409 225.423 104.631 231.063 108.999 237.024C108.973 237.05 110.188 236.512 111.414 235.98C112.687 238.78 113.948 241.572 115.179 244.282C116.792 244.786 118.509 245.313 121.084 246.124C118.249 247.073 116.777 247.576 115.293 248.072C111.902 244.726 108.547 241.36 105.131 238.04C103.423 236.37 101.653 234.765 99.92 233.12C96.6909 227.096 93.4857 221.065 90.2566 215.041C89.4925 213.603 88.7043 212.172 87.9161 210.74L87.9047 210.733Z" fill="#A445A6"/>
<path d="M94.4836 162.089C94.58 161.669 94.6637 161.261 94.7715 160.848C95.5094 160.764 96.2599 160.668 96.9978 160.585C96.4539 160.392 95.8986 160.192 95.3547 159.999C95.1948 159.712 95.0349 159.424 94.875 159.136C98.3933 155.688 102.098 152.877 106.795 153.59C107.549 153.434 108.314 153.284 109.068 153.127C109.084 152.865 109.088 152.617 109.103 152.355C108.343 152.612 107.595 152.857 106.824 153.107C105.638 149.84 109.613 149.601 111.43 148.477C114.205 146.76 117.186 145.755 118.688 148.279C113.045 151.093 109.477 155.555 106.666 159.82C103.844 159.566 101.704 159.381 98.2241 159.072C99.4338 161.351 99.953 162.343 100.854 164.054C98.9517 163.85 97.9644 163.757 96.9897 163.651C96.1467 163.126 95.3152 162.607 94.4722 162.082L94.4836 162.089Z" fill="#A445A6"/>
<path d="M258.259 137.437C260.734 138.144 263.208 138.871 265.683 139.578C268.312 146.733 268.594 154.577 265.736 163.326C265.009 163.814 264.283 164.301 263.567 164.795L263.235 164.818C263.031 164.858 262.841 164.885 262.637 164.926C262.483 164.746 262.352 164.56 262.258 164.355C262.194 161.306 262.058 158.276 262.127 155.184C262.152 154.176 262.344 152.959 262.996 151.965C266.123 147.165 264.276 144.468 261.485 141.955C260.106 140.719 259.338 138.945 258.283 137.431L258.259 137.437Z" fill="#BA58C2"/>
<path d="M168.566 139.785C165.569 143.223 162.584 146.649 159.586 150.088C158.739 149.038 157.894 147.968 157.047 146.917C156.851 145.855 156.668 144.78 156.472 143.717C157.569 141.225 158.666 138.712 159.763 136.22C160.842 137.331 161.921 138.443 163.001 139.554C163.399 139.426 163.798 139.278 164.195 139.15C163.819 137.557 163.442 135.964 163.066 134.371C163.745 134.084 164.425 133.797 165.104 133.51C166.254 135.606 167.404 137.702 168.566 139.785Z" fill="#C15BDA"/>
<path d="M168.563 139.786C167.413 137.691 166.263 135.595 165.1 133.512C164.421 133.799 163.742 134.086 163.062 134.373C163.439 135.966 163.815 137.559 164.192 139.152C163.794 139.28 163.395 139.428 162.997 139.556C161.918 138.444 160.838 137.333 159.759 136.221C160.783 134.332 161.819 132.449 162.977 130.308C164.089 130.876 164.973 131.322 165.856 131.768C167.879 134.471 169.879 137.18 171.902 139.883C172.023 140.23 172.132 140.57 172.253 140.917C172.917 141.477 173.569 142.029 174.232 142.589C175.143 144.139 176.054 145.689 176.965 147.239C176.184 148.047 175.403 148.835 174.61 149.636L168.54 139.772L168.563 139.786Z" fill="#732B7F"/>
<path d="M156.472 143.716C156.668 144.778 156.851 145.853 157.047 146.916C156.031 147.306 154.229 147.771 154.139 148.091C153.552 150.17 153.346 152.214 153.008 154.281C152.562 156.573 152.128 158.873 151.694 161.152C150.808 161.936 149.921 162.721 149.023 163.498C148.759 162.978 148.482 162.472 148.218 161.952C148.464 160.621 148.697 159.304 148.943 157.974L148.995 157.902C150.136 153.306 151.301 148.704 152.441 144.108C153.785 143.984 155.116 143.853 156.472 143.716Z" fill="#511760"/>
<path d="M80.917 171.437L85.2671 166.94C85.7248 166.996 86.1824 167.051 86.64 167.107C86.0117 168.7 85.0007 170.368 84.8272 171.869C84.4741 174.971 78.838 178.06 81.3199 181.195C81.4073 181.313 79.5782 182.826 78.6398 183.683C77.0093 180.347 76.5943 176.85 80.9009 172.681C80.9151 172.251 80.9166 171.834 80.9194 171.397L80.9284 171.445L80.917 171.437Z" fill="#732B7F"/>
<path d="M63.0796 172.566C67.2812 171.111 71.4828 169.655 75.6844 168.2C75.9464 168.363 76.1718 168.545 76.4338 168.709L76.4261 168.641C75.6473 170.768 74.856 172.907 74.0658 175.026C70.4038 174.206 66.7417 173.386 63.0796 172.566Z" fill="#A790A9"/>
<path d="M229.011 104.496C228.088 105.488 227.153 106.473 226.23 107.465C223.802 104.822 219.689 106.166 215.768 107.086L216.033 106.813C217.646 105.164 219.223 103.515 220.825 101.859C223.549 102.743 226.286 103.613 229.011 104.496Z" fill="#BA58C2"/>
<path d="M63.091 172.573C66.7531 173.393 70.4152 174.213 74.0773 175.033C74.3637 175.378 74.6376 175.737 74.924 176.083C74.7678 176.32 74.6002 176.55 74.4326 176.78C71.7238 176.616 69.0389 176.447 66.3301 176.284C65.1837 176.28 64.05 176.263 62.8922 176.252C63.0334 176.068 63.0305 175.92 62.8824 175.828C62.1669 175.737 61.4513 175.646 60.7357 175.555C60.3337 174.97 59.9203 174.378 59.5183 173.793C60.6764 173.408 61.8472 173.009 63.0053 172.624L63.0898 172.593L63.091 172.573Z" fill="#CAB8CE"/>
<path d="M151.183 140.693C149.815 143.58 148.458 146.474 147.089 149.361C146.769 149.371 146.45 149.38 146.119 149.383C146.716 147.123 147.314 144.862 147.912 142.602C148.476 141.868 149.029 141.126 149.606 140.378C150.132 140.476 150.658 140.574 151.196 140.679L151.183 140.693Z" fill="#883B8F"/>
<path d="M149.591 140.385C149.026 141.12 148.473 141.862 147.896 142.609L147.944 142.598C147.443 142.285 146.93 141.966 146.429 141.653L146.414 141.707C146.691 141.42 146.981 141.12 147.247 140.826C148.024 140.684 148.801 140.541 149.578 140.399L149.591 140.385Z" fill="#C15BDA"/>
<path d="M263.758 176.287C264.588 175.07 265.407 173.846 266.224 172.643C265.394 173.859 264.575 175.083 263.758 176.287Z" fill="#721D79"/>
<path d="M76.4283 168.71C76.5641 168.607 76.6998 168.505 76.8355 168.403C76.7009 168.485 76.5663 168.567 76.4202 168.643L76.4158 168.723L76.4283 168.71Z" fill="#A790A9"/>
<path d="M80.9248 171.388C80.9106 171.818 80.909 172.235 80.9062 172.672C80.9204 172.242 80.922 171.825 80.9248 171.388Z" fill="#C15BDA"/>
<path d="M147.263 140.815C146.986 141.102 146.696 141.401 146.43 141.695C146.397 141.257 146.353 140.812 146.308 140.387C146.63 140.525 146.94 140.676 147.263 140.815Z" fill="#732B7F"/>
<path d="M126.77 248.544C131.964 251.594 137.159 254.623 142.34 257.686C143.323 258.256 144.243 258.871 145.507 259.659C146.633 258.627 147.848 257.504 149.462 256.024C150.488 257.833 151.483 259.56 152.592 261.547C159.034 257.058 160.376 262.032 163.75 263.509C162.766 263.752 161.781 264.015 160.809 264.246C158.699 264.748 156.589 265.23 154.491 265.719C152.952 265.951 151.401 266.195 149.862 266.427C140.617 262.148 131.359 257.882 122.114 253.603C123.67 251.919 125.213 250.248 126.769 248.564L126.77 248.544Z" fill="#C15BDA"/>
<path d="M154.477 265.698C156.587 265.216 158.685 264.727 160.796 264.225C161.767 263.994 162.764 263.738 163.736 263.488C164.992 263.435 166.539 263.856 167.438 263.267C175.647 257.894 182.957 258.794 190.519 257.866C192.439 256.807 194.701 255.563 197.685 253.913C196.835 256.245 196.38 257.508 195.926 258.751C185.621 262.628 175.303 266.518 165.082 267.042C164.63 267.075 164.192 267.094 163.741 267.126L163.585 267.155C163.172 267.148 162.759 267.141 162.345 267.134C161.994 267.082 161.643 267.03 161.291 266.978C159.221 267.192 157.152 267.407 155.094 267.608L155.06 267.587C154.863 266.941 154.677 266.303 154.467 265.671L154.477 265.698Z" fill="#C375CA"/>
<path d="M126.772 248.543C125.216 250.227 123.673 251.898 122.117 253.582C119.841 251.745 117.564 249.908 115.299 248.078C116.782 247.582 118.255 247.079 121.09 246.13C118.526 245.326 116.798 244.792 115.185 244.288C113.954 241.578 112.693 238.786 111.42 235.986C111.899 235.679 112.38 235.352 112.86 235.045C116.838 238.256 120.929 241.37 124.757 244.718C125.824 245.654 126.129 247.245 126.772 248.543Z" fill="#883B8F"/>
<path d="M154.482 265.695C154.68 266.341 154.878 266.966 155.076 267.611C153.338 267.218 151.602 266.804 149.864 266.411C151.403 266.179 152.955 265.934 154.494 265.702L154.482 265.695Z" fill="#883B8F"/>
<path d="M155.1 267.622C157.17 267.408 159.227 267.207 161.297 266.992C159.227 267.207 157.157 267.421 155.1 267.622Z" fill="#883B8F"/>
<path d="M53.9446 172.163C54.4547 172.523 54.9649 172.882 55.4751 173.242C54.8519 173.773 54.2414 174.291 53.6183 174.822C52.856 175.308 52.1064 175.781 51.3555 176.274C50.9842 176.941 50.6255 177.595 50.2542 178.262C43.8315 180.088 41.1599 185.172 37.4868 189.422C32.0463 195.726 25.2469 196.941 22.7969 191.716C21.97 189.947 22.7026 186.434 24.3092 184.301C27.458 180.121 31.6719 176.312 35.5481 172.418C37.7258 170.223 40.8241 168.247 38.9956 165.645C39.102 164.666 39.2085 163.688 39.3149 162.71C39.5521 162.502 39.755 162.273 39.8998 162.029C47.4881 158.13 48.0914 158.318 48.1008 164.613C48.1054 165.514 48.4789 166.374 48.1764 167.272C46.5974 172.075 49.2474 173.017 53.9674 172.177L53.9446 172.163Z" fill="#F2F0EF"/>
<path d="M53.9478 172.16C49.2278 173 46.5892 172.065 48.1568 167.255C48.4479 166.35 48.0744 165.49 48.0812 164.596C48.0592 158.314 47.4685 158.113 39.8802 162.012C37.7556 159.225 35.7875 156.39 38.4185 151.782C42.1366 148.939 45.6427 145.692 49.601 143.374C54.208 140.688 57.0643 142.322 56.2334 146.484C55.5712 149.812 54.8495 153.144 54.1507 156.49C52.6168 163.871 54.06 166.003 61.5542 167.373C62.6644 167.584 63.7745 167.796 64.8847 168.007C61.2314 169.387 57.5896 170.773 53.9364 172.153L53.9478 172.16Z" fill="#CAB8CE"/>
<path d="M53.6187 174.82C54.2419 174.289 54.8524 173.771 55.4755 173.24C55.8511 174.456 56.2395 175.659 56.6151 176.875C55.3203 177.176 54.0015 177.482 52.6953 177.775C52.7111 177.513 52.703 177.258 52.6822 177.015C52.9864 176.285 53.2905 175.555 53.6187 174.82Z" fill="#CAB8CE"/>
<path d="M50.2389 178.248C50.6102 177.581 50.9689 176.927 51.3402 176.26C51.7857 176.516 52.2323 176.753 52.6778 177.01C52.6986 177.253 52.7067 177.508 52.6909 177.77C51.8773 177.932 51.0524 178.086 50.2389 178.248Z" fill="#CAB8CE"/>
<path d="M69.5283 167.143C67.9744 167.428 66.4079 167.726 64.8654 168.018C66.4193 167.733 67.9858 167.435 69.5283 167.143Z" fill="#CAB8CE"/>
<path d="M62.8997 176.239C64.0461 176.243 65.1912 176.267 66.3376 176.271C65.9089 176.715 65.4915 177.165 65.0742 177.615C64.3452 177.161 63.6288 176.693 62.9123 176.226L62.8997 176.239Z" fill="#3C2C3D"/>
<path d="M199.599 248.809L194.439 245.592C197.512 245.982 199.565 246.238 201.63 246.501C201.988 246.056 202.333 245.623 202.702 245.185C201.579 244.213 200.468 243.228 200.009 242.816C205.33 235.164 211.843 227.92 215.142 220.49C218.428 213.052 218.511 205.435 220.05 197.577C228.587 196.944 236.757 196.332 245.342 195.686C244.724 196.91 244.226 197.916 243.554 199.252C244.716 198.995 245.664 198.77 246.455 198.595C236.501 218.55 221.539 235.697 199.61 248.816L199.599 248.809Z" fill="#E199F3"/>
<path d="M191.282 214.514C189.092 219.25 185.485 220.847 180.826 220.491C177.496 220.234 174.061 220.161 170.749 219.998C165.35 227.958 161.499 229.089 154.915 224.985C152.215 223.302 148.865 222.216 146.637 220.159C141.824 215.696 137.546 210.794 133.07 206.04C130.98 203.839 128.979 202.529 124.99 206.917C123.8 208.223 120.778 209.327 118.99 209.383C109.371 209.718 104.388 205.337 104.009 196.744C103.929 194.939 103.923 193.096 104.035 191.243C104.409 184.853 102.749 183.776 95.1531 185.645C94.4571 185.817 93.7834 185.815 91.3183 186.117C93.7812 184.288 95.3358 182.624 96.1018 182.663C99.5274 182.897 103.77 182.72 105.711 184.432C107.574 186.074 107.825 189.741 107.253 192.748C105.751 200.587 110.674 207.333 119.272 207.26C120.822 207.244 123.302 206.095 124.687 204.89C130.114 200.186 131.854 200.142 135.488 203.577C142.142 209.856 149.219 215.772 156.209 221.759C157.164 222.584 158.426 223.224 159.775 223.584C162.626 224.337 165.303 225.212 167.572 220.337C169.012 217.244 172.174 215.788 175.54 216.612C177.952 217.196 180.462 218.3 183.522 215.193C185.154 218.509 188.096 216.958 191.295 214.501L191.282 214.514Z" fill="#A445A6"/>
<path d="M112.852 235.047C112.372 235.354 111.891 235.681 111.412 235.988C110.186 236.52 108.96 237.051 108.996 237.032C104.629 231.071 100.407 225.431 96.3581 219.668C95.1826 217.995 94.5245 215.976 93.6204 214.117C94.8443 213.229 96.0443 212.348 96.1187 212.29C101.988 219.417 107.593 226.232 113.197 233.048C113.074 233.723 112.963 234.385 112.839 235.06L112.852 235.047Z" fill="#732B7F"/>
<path d="M199.596 248.81C199.235 251.468 197.743 251.499 195.916 250.841C191.659 249.295 187.403 247.749 183.099 246.195C184.6 248.155 186.146 250.163 187.678 252.184C187.184 252.544 186.689 252.904 186.182 253.278C181.724 250.562 179.213 246.343 176.653 242.156C177.158 241.635 177.662 241.114 178.155 240.585C183.518 243.176 188.818 245.852 194.321 248.28C195.714 248.897 197.82 248.664 199.596 248.81Z" fill="#A445A6"/>
<path d="M149.022 163.502C149.908 162.718 150.795 161.933 151.693 161.156C152.058 163.723 152.675 166.219 152.692 168.882C152.707 171.169 152.012 173.662 151.631 176.057C150.901 176.208 150.195 176.352 149.465 176.503C149.313 172.167 149.162 167.831 149.022 163.502Z" fill="#732B7F"/>
<path d="M191.289 214.513C188.09 216.97 185.136 218.514 183.516 215.205C185.549 212.67 187.593 210.141 189.626 207.605C190.107 207.467 190.589 207.308 191.071 207.169C191.147 209.619 191.224 212.07 191.289 214.513Z" fill="#471D51"/>
<path d="M153.014 154.27C153.339 152.216 153.558 150.159 154.145 148.08C154.235 147.76 156.048 147.302 157.053 146.905C157.9 147.955 158.745 149.025 159.592 150.075C157.403 151.469 155.215 152.863 153.015 154.25L153.014 154.27Z" fill="#A445A6"/>
<path d="M140.906 159.864C142.256 157.09 143.595 154.31 144.932 151.549C145.178 151.578 145.413 151.599 145.66 151.627C145.392 154.49 145.113 157.346 144.833 160.222C144.385 160.987 143.936 161.752 143.223 163C142.326 161.794 141.616 160.829 140.905 159.884L140.906 159.864Z" fill="#883B8F"/>
<path d="M252.946 194.522L250.367 196.508C250.168 196.28 249.993 196.045 249.794 195.817C250.684 195.18 251.55 194.55 252.439 193.913C252.604 194.12 252.769 194.327 252.946 194.522Z" fill="#883B8F"/>
<path d="M146.43 141.66C146.931 141.972 147.444 142.292 147.945 142.604C146.256 145.521 144.566 148.438 142.841 151.354C141.932 152.898 140.918 154.418 139.963 155.953C139.367 155.833 138.748 155.718 138.152 155.598C140.915 150.947 143.679 146.297 146.443 141.647L146.43 141.66Z" fill="#732B7F"/>
<path d="M94.4734 162.09C95.3163 162.616 96.1479 163.134 96.9909 163.659C95.4683 164.403 93.9458 165.146 92.7276 165.745C91.8085 167.847 90.9699 169.789 89.8711 172.322C87.5989 167.479 87.9336 166.831 94.4734 162.09Z" fill="#732B7F"/>
<path d="M95.3569 160.01C95.9008 160.203 96.4561 160.402 97 160.595C96.2621 160.679 95.5116 160.775 94.7736 160.858C94.9562 160.575 95.1629 160.286 95.3683 160.017L95.3569 160.01Z" fill="#732B7F"/>
<path d="M180.308 138.27C179.136 136.348 177.768 134.535 176.817 132.479C175.658 129.939 174.843 127.195 173.88 124.547C176.16 124.569 178.452 124.597 180.719 124.631C182.507 124.388 184.271 124.15 186.059 123.906C186.22 125.741 186.392 127.582 186.54 129.43C186.067 131.788 179.168 133.673 183.299 136.707C184.473 135.663 185.473 134.761 186.461 133.873C186.977 134.132 187.469 134.397 187.985 134.656C187.684 138.271 187.776 141.63 192.779 142.366C190.722 143.152 188.677 143.946 186.62 144.732C184.816 143.671 183.025 142.596 181.233 141.542L181.21 141.528C180.91 140.442 180.609 139.356 180.321 138.257L180.308 138.27Z" fill="#883B8F"/>
<path d="M176.972 147.248C176.061 145.698 175.15 144.148 174.239 142.598C176.776 142.863 179.3 143.141 181.849 143.414C188.165 146.681 191.303 151.856 190.309 159.51C186.709 156.284 183.111 153.038 179.512 149.813C179.367 149.472 179.209 149.144 179.065 148.803C178.363 148.282 177.673 147.768 176.972 147.248Z" fill="#BA58C2"/>
<path d="M180.733 124.618C178.453 124.596 176.161 124.568 173.894 124.534C176.703 120.1 179.197 115.616 185.652 113.831C187.925 113.2 190.23 111.231 192.524 109.861C192.524 109.861 192.492 110.196 192.48 110.189C188.561 114.996 184.654 119.79 180.734 124.597L180.733 124.618Z" fill="#721D79"/>
<path d="M190.315 159.507C191.31 151.853 188.171 146.679 181.856 143.411C181.646 142.779 181.435 142.167 181.225 141.534C183.028 142.596 184.819 143.67 186.611 144.725C189.32 144.491 192.029 144.257 195.024 143.993C192.613 146.731 190.843 149.41 194.953 150.447C195.396 150.555 194.899 152.126 194.834 153.005C194.61 154.161 194.385 155.337 194.162 156.493L194.21 156.482C194.22 156.906 194.229 157.33 194.227 157.767C194.381 157.947 194.537 158.106 194.704 158.273C193.659 158.938 192.602 159.616 191.557 160.281C191.135 160.019 190.714 159.756 190.305 159.48L190.315 159.507Z" fill="#732B7F"/>
<path d="M192.525 109.882C196.501 108.641 200.476 107.4 204.428 106.165C204.391 106.392 204.401 106.608 204.485 106.785C202.841 107.787 201.209 108.776 198.975 110.141C201.144 112.392 203.223 114.565 205.302 116.739C204.515 117.627 203.729 118.516 202.84 119.529C201.86 118.919 201.154 118.478 200.448 118.038C200.049 117.205 199.65 116.371 199.263 115.545C195.842 114.833 192.722 113.85 192.493 110.217L192.525 109.882Z" fill="#721D79"/>
<path d="M208.289 104.873C210.874 105.523 213.458 106.173 216.043 106.823L215.767 107.089C213.287 106.463 210.796 105.829 208.303 105.216L208.276 104.886L208.289 104.873Z" fill="#883B8F"/>
<path d="M204.43 106.161C205.721 105.732 207.012 105.304 208.291 104.869C208.291 104.869 208.318 105.199 208.307 105.192C208.058 105.789 207.797 106.399 207.548 106.996C206.524 106.922 205.5 106.848 204.489 106.761C204.405 106.583 204.382 106.381 204.432 106.14L204.43 106.161Z" fill="#883B8F"/>
<path d="M180.306 138.27C180.606 139.356 180.907 140.442 181.195 141.541C180.895 140.455 180.594 139.369 180.306 138.27Z" fill="#732B7F"/>
<path d="M191.568 160.308C192.613 159.643 193.67 158.965 194.715 158.3C194.826 159.205 194.628 160.335 195.109 160.97C196.116 162.308 197.21 163.763 198.875 164.382C199.568 164.647 201.777 162.911 203.304 162.087C204.284 162.698 205.264 163.308 206.255 163.926C203.583 169.406 208.484 170.456 211.237 172.234C216.696 175.783 223.012 178.466 228.91 181.599C229.104 181.72 228.498 182.743 228.248 183.36C223.67 180.882 218.978 178.522 214.552 175.867C208.129 172.031 201.857 168.038 195.636 163.993C194.078 162.98 192.923 161.55 191.579 160.315L191.568 160.308Z" fill="#BA58C2"/>
<path d="M225.013 174.341C224.806 173.272 224.61 172.209 224.403 171.14C224.868 170.886 225.754 170.498 225.737 170.384C225.738 169.005 225.582 167.675 225.474 166.333C226.205 166.559 227.11 167.228 227.624 166.942C234.137 163.417 234.216 167.979 236.074 170.287C232.678 174.251 228.908 174.826 225.002 174.334L225.013 174.341Z" fill="#BA58C2"/>
<path d="M225.492 166.329C225.6 167.671 225.743 169.014 225.755 170.379C225.748 170.5 224.885 170.882 224.421 171.136C220.378 168.595 216.537 165.846 212.215 163.632C210.907 162.963 208.282 163.771 206.276 163.9C205.297 163.29 204.306 162.672 203.326 162.061C203.187 161.035 203.061 159.995 202.861 158.408C210.919 161.215 218.223 163.763 225.528 166.31L225.492 166.329Z" fill="#883B8F"/>
<path d="M225.004 174.34C228.911 174.832 232.693 174.244 236.077 170.293C236.618 170.526 237.148 170.752 237.69 170.985C237.482 171.295 237.239 171.603 237.066 171.913C236.999 172.039 237.084 172.196 237.1 172.331C238.18 171.876 239.27 171.427 240.071 171.091C238.752 173.737 237.541 176.179 236.329 178.621C229.837 181.01 224.59 179.034 224.993 174.333L225.004 174.34ZM231.859 175.918C231.968 176.069 232.076 176.241 232.185 176.393C232.848 175.991 233.499 175.582 234.162 175.18C234.032 174.974 233.914 174.775 233.785 174.569C233.155 175.012 232.501 175.462 231.872 175.905L231.859 175.918Z" fill="#A836B2"/>
<path d="M251.034 171.111C250.483 170.831 249.933 170.55 249.382 170.27C248.07 169.89 246.756 169.531 245.443 169.151C247.137 167.533 248.876 165.942 250.501 164.281C251.876 162.86 253.357 161.422 254.42 159.87C255.717 157.983 256.594 155.981 257.658 154.032C257.71 155.715 257.762 157.398 257.813 159.081C256.828 160.515 255.679 161.929 254.881 163.396C253.485 165.953 252.312 168.544 251.046 171.098L251.034 171.111Z" fill="#BA58C2"/>
<path d="M251.023 171.112C252.29 168.538 253.475 165.954 254.858 163.41C255.656 161.944 256.805 160.529 257.79 159.095C258.092 160.558 258.06 162.252 258.843 163.387C259.365 164.131 261.059 164.079 262.235 164.373C262.34 164.585 262.471 164.771 262.625 164.951C262.43 165.247 262.27 165.544 262.181 165.844C258.838 168.357 255.494 170.87 252.151 173.382L252.223 173.364C251.83 172.618 251.427 171.865 251.035 171.119L251.023 171.112Z" fill="#732B7F"/>
<path d="M236.35 178.63C237.561 176.188 238.773 173.747 240.091 171.1C239.304 171.424 238.211 171.892 237.12 172.34C237.105 172.205 237.02 172.048 237.087 171.922C237.259 171.612 237.502 171.304 237.71 170.995C240.559 167.86 241.847 169.833 243.488 170.647C246.823 173.353 239.534 172.884 240.627 174.944C242.057 175.146 243.569 175.357 245.105 175.563C244.318 176.075 243.543 176.574 242.756 177.086C242.216 177.209 241.665 177.326 241.139 177.436L241.102 177.455C240.309 177.859 239.528 178.271 238.735 178.675L238.687 178.687C237.932 178.655 237.165 178.637 236.411 178.605L236.373 178.644L236.35 178.63Z" fill="#BA58C2"/>
<path d="M245.093 175.554C243.569 175.336 242.044 175.138 240.614 174.936C239.522 172.876 246.798 173.358 243.486 170.646C244.155 170.143 244.8 169.647 245.457 169.137C246.77 169.517 248.084 169.876 249.397 170.256C247.966 172.018 246.536 173.779 245.105 175.541L245.093 175.554Z" fill="#883B8F"/>
<path d="M236.788 184.373C234.478 184.25 232.193 184.121 229.896 183.985C233.986 180.077 234.723 183.713 236.788 184.373Z" fill="#BA58C2"/>
<path d="M241.128 177.427C241.668 177.303 242.219 177.187 242.745 177.077C242.206 177.2 241.655 177.316 241.128 177.427Z" fill="#A836B2"/>
<path d="M252.174 173.367C252.202 173.488 252.23 173.609 252.258 173.73C252.254 173.603 252.25 173.476 252.233 173.362L252.162 173.38L252.174 173.367Z" fill="#732B7F"/>
<path d="M262.199 165.83C262.288 165.53 262.436 165.226 262.643 164.937C262.846 164.897 263.049 164.856 263.24 164.829L263.559 164.839C263.113 165.168 262.668 165.496 262.21 165.837L262.199 165.83Z" fill="#BA58C2"/>
<path d="M263.542 164.847C263.542 164.847 263.215 164.829 263.227 164.836C263.238 164.843 263.567 164.821 263.555 164.814L263.531 164.84L263.542 164.847Z" fill="#732B7F"/>
<path d="M262.241 164.367C261.065 164.073 259.371 164.125 258.849 163.381C258.066 162.246 258.098 160.552 257.796 159.09C257.744 157.407 257.692 155.724 257.64 154.041C257.7 153.451 257.746 152.874 257.806 152.284C258.228 151.168 258.663 150.039 259.085 148.923C259.048 148.545 259.024 148.175 258.987 147.797C258.41 146.392 257.846 144.975 257.269 143.571C257.28 142.804 257.267 142.044 257.277 141.278C256.18 141.827 255.083 142.376 253.998 142.932C253.494 142.66 252.99 142.387 252.487 142.115C253.705 139.364 255.297 136.491 252.461 134.912L245.948 130.225C244.54 129.264 243.133 128.303 241.725 127.342C241.314 126.521 240.902 125.701 240.502 124.887C239.478 123.455 238.453 122.022 237.441 120.577C233.767 118.599 230.104 116.609 226.429 114.632C225.864 114.802 225.285 114.984 224.719 115.154C224.291 114.804 223.862 114.474 223.434 114.123C224.682 113.626 225.931 113.109 227.178 112.612C233.93 115.901 241.289 118.336 245.265 124.701C248.057 129.158 253.409 131.95 257.529 135.563C258.011 135.989 258.044 136.804 258.266 137.443C259.308 138.971 260.088 140.731 261.468 141.967C264.259 144.48 266.105 147.177 262.978 151.977C262.327 152.971 262.124 154.181 262.11 155.197C262.054 158.275 262.189 161.306 262.241 164.367Z" fill="#721D79"/>
<path d="M227.167 112.599C225.919 113.096 224.67 113.613 223.423 114.11C220.811 113.903 218.175 113.702 215.564 113.495C217.014 111.599 218.453 109.696 219.519 108.292C222.239 108.274 224.439 108.246 226.627 108.23C226.811 109.682 226.983 111.147 227.167 112.599Z" fill="#883B8F"/>
<path d="M226.631 108.242C224.443 108.258 222.243 108.286 219.523 108.304C218.457 109.708 217.007 111.604 215.568 113.507C215.304 113.364 215.041 113.221 214.765 113.09C213.469 111.467 212.148 109.85 210.851 108.227C209.741 107.827 208.654 107.422 207.544 107.022C207.805 106.412 208.054 105.815 208.303 105.218C210.794 105.851 213.274 106.478 215.767 107.091C219.688 106.171 223.8 104.827 226.229 107.469C226.354 107.736 226.493 107.989 226.607 108.248L226.631 108.242Z" fill="#721D79"/>
<path d="M179.064 148.8C179.209 149.141 179.354 149.482 179.512 149.811C179.367 149.469 179.209 149.141 179.064 148.8Z" fill="#732B7F"/>
<path d="M52.7106 177.016C52.2651 176.759 51.8184 176.523 51.3729 176.266C52.1352 175.78 52.8848 175.307 53.6471 174.821C53.3429 175.551 53.0388 176.281 52.7232 177.003L52.7106 177.016Z" fill="#D1BAD0"/>
<path d="M214.762 113.088C215.026 113.231 215.289 113.374 215.564 113.505C218.176 113.712 220.812 113.913 223.423 114.12C223.851 114.47 224.281 114.8 224.709 115.151C225.274 114.981 225.853 114.798 226.419 114.629C230.094 116.606 233.756 118.596 237.431 120.573C235.829 120.87 234.184 121.287 232.615 121.437C231.105 121.582 229.67 121.461 228.193 121.459L227.812 121.306L227.481 121.1C223.51 115.616 215.402 122.45 209.441 122.12L213.006 124.342C213.552 126.061 214.087 127.774 214.633 129.493C215.893 137.592 222.387 141.033 230.887 142.383C232.585 142.647 235.45 140.818 237.76 139.959C242.555 136.701 243.248 130.906 239.117 128.457L237.944 127.726C236.744 125.682 238.908 125.464 240.478 124.917C240.889 125.738 241.301 126.558 241.701 127.372C243.108 128.333 244.516 129.294 245.923 130.255C248.098 131.819 250.262 133.377 252.437 134.942C251.1 136.532 248.715 138.43 248.727 139.608C248.748 140.812 251.117 141.327 252.451 142.138C252.955 142.41 253.458 142.682 253.962 142.954C254.223 143.138 254.471 143.334 254.732 143.518C254.771 143.647 254.799 143.769 254.839 143.898C254.799 143.769 254.76 143.64 254.72 143.511C255.558 143.532 256.408 143.559 257.246 143.58C257.823 144.985 258.387 146.402 258.964 147.807C258.989 148.177 259.025 148.555 259.061 148.933C258.639 150.049 258.205 151.178 257.782 152.294C257.723 152.884 257.676 153.46 257.617 154.05C256.554 155.999 255.676 158.001 254.38 159.889C253.329 161.428 251.859 162.872 250.461 164.299C248.835 165.961 247.096 167.551 245.402 169.17C244.745 169.679 244.089 170.169 243.432 170.678C241.79 169.864 240.516 167.879 237.654 171.026C237.112 170.793 236.571 170.56 236.041 170.334C234.183 168.027 234.104 163.464 227.59 166.989C227.077 167.275 226.16 166.599 225.44 166.38C218.136 163.833 210.831 161.286 202.774 158.478C202.973 160.065 203.112 161.092 203.238 162.132C201.711 162.956 199.502 164.692 198.809 164.427C197.144 163.807 196.062 162.339 195.043 161.015C194.561 160.38 194.76 159.25 194.649 158.345C194.482 158.178 194.339 158.005 194.171 157.838C194.162 157.414 194.152 156.99 194.155 156.553L194.107 156.565C194.33 155.409 194.555 154.233 194.779 153.077C194.832 152.191 195.34 150.627 194.898 150.519C190.788 149.482 192.57 146.79 194.969 144.065C191.987 144.316 189.265 144.563 186.556 144.796C188.613 144.01 190.658 143.217 192.715 142.43C187.725 141.681 187.62 138.335 187.922 134.72C192.116 131.63 195.591 128.301 195.852 123.595C195.092 124.041 194.468 124.404 193.842 124.787C193.053 124.337 192.252 123.901 191.475 123.458C191.236 123.309 191.022 123.134 190.832 122.953C191.112 122.626 191.39 122.319 191.67 121.992C191.935 121.718 192.222 121.458 192.521 121.206C193.326 120.809 194.13 120.412 194.923 120.007C197.142 123.772 198.569 118.937 200.357 118.108L202.749 119.599C203.65 118.573 204.437 117.684 205.211 116.809L205.126 116.839C208.736 118.525 211.722 116.061 214.664 113.152L214.762 113.088ZM201.521 154.752C205.142 152.934 207.35 152.2 208.955 150.86C209.715 150.226 209.301 148.464 209.425 147.204C207.615 147.81 205.495 148.077 204.094 149.147C203.004 149.972 202.786 151.821 201.534 154.739L201.521 154.752Z" fill="#C759E2"/>
<path d="M192.581 121.139C192.282 121.391 192.006 121.658 191.729 121.924C191.45 122.251 191.171 122.558 190.891 122.885C191.105 123.061 191.308 123.229 191.534 123.391C191.053 123.926 190.571 124.462 190.066 125.003C188.716 124.643 187.391 124.277 186.041 123.916C184.254 124.16 182.49 124.398 180.702 124.641C184.622 119.834 188.541 115.027 192.448 110.233C192.676 113.885 195.785 114.862 199.218 115.56C197.794 117.033 196.381 118.493 194.957 119.966C194.152 120.363 193.348 120.76 192.555 121.165L192.581 121.139ZM187.555 120.388C187.313 120.864 186.986 121.392 187.056 121.414C187.402 121.546 187.84 121.547 188.238 121.608C188.398 121.31 188.745 120.838 188.644 120.753C188.397 120.537 187.95 120.509 187.555 120.388Z" fill="#A445A6"/>
<path d="M193.922 124.704C194.56 124.328 195.184 123.965 195.933 123.513C195.672 128.218 192.184 131.56 188.002 134.637C187.486 134.378 186.994 134.113 186.477 133.854C188.955 130.802 191.444 127.756 193.922 124.704Z" fill="#A841B1"/>
<path d="M193.927 124.706C191.449 127.758 188.96 130.803 186.482 133.855C185.495 134.744 184.507 135.633 183.32 136.69C179.2 133.663 186.087 131.791 186.573 129.42C187.75 127.939 188.927 126.458 190.092 124.989C190.573 124.454 191.079 123.912 191.56 123.377C192.349 123.826 193.15 124.263 193.927 124.706Z" fill="#BA58C2"/>
<path d="M190.081 124.992C188.904 126.473 187.727 127.954 186.562 129.422C186.402 127.587 186.242 125.733 186.081 123.898C187.419 124.252 188.756 124.625 190.105 124.986L190.081 124.992Z" fill="#511760"/>
<path d="M194.218 156.512C194.227 156.936 194.237 157.36 194.234 157.797C194.225 157.373 194.215 156.949 194.218 156.512Z" fill="#BA58C2"/>
<path d="M207.555 107.008C208.666 107.408 209.752 107.813 210.863 108.213C208.79 109.658 206.74 111.097 204.704 112.523C205.501 112.832 206.666 113.307 208.051 113.857L205.239 116.764C205.239 116.764 205.311 116.746 205.324 116.733C203.245 114.56 201.166 112.386 198.997 110.136C201.231 108.77 202.875 107.768 204.507 106.78C205.531 106.854 206.542 106.941 207.566 107.015L207.555 107.008Z" fill="#BA58C2"/>
<path d="M194.99 119.945C196.415 118.472 197.827 117.012 199.252 115.539C199.65 116.372 200.049 117.206 200.437 118.032C198.636 118.874 197.222 123.697 194.99 119.945Z" fill="#BA58C2"/>
<path d="M231.873 175.92C232.503 175.477 233.156 175.028 233.786 174.585C233.915 174.791 234.033 174.99 234.163 175.196C233.5 175.597 232.849 176.006 232.186 176.408C232.077 176.257 231.969 176.085 231.86 175.934L231.873 175.92Z" fill="#BA58C2"/>
<path d="M240.504 124.868C238.934 125.415 236.757 125.646 237.957 127.689C234.703 125.598 231.447 123.527 228.193 121.436C229.671 121.438 231.105 121.559 232.615 121.414C234.185 121.264 235.829 120.847 237.431 120.55C238.456 121.983 239.48 123.415 240.492 124.861L240.504 124.868Z" fill="#C459D5"/>
<path d="M252.493 142.1C251.147 141.282 248.778 140.787 248.769 139.57C248.746 138.385 251.141 136.494 252.479 134.903C255.315 136.483 253.724 139.336 252.504 142.107L252.493 142.1ZM251.12 138.8C251.265 139.141 251.349 139.507 251.571 139.749C251.627 139.805 252.442 139.415 252.46 139.321C252.507 138.933 252.374 138.599 252.312 138.247C251.984 138.398 251.655 138.548 251.12 138.8Z" fill="#BA58C2"/>
<path d="M254.785 143.482C254.525 143.298 254.276 143.102 254.016 142.919C255.113 142.37 256.21 141.821 257.295 141.265C257.284 142.031 257.285 142.804 257.287 143.558C256.449 143.537 255.599 143.509 254.761 143.488L254.785 143.482Z" fill="#BA58C2"/>
<path d="M205.232 116.758L208.044 113.851C206.659 113.301 205.481 112.839 204.697 112.517C206.721 111.104 208.794 109.659 210.856 108.207C212.152 109.831 213.473 111.448 214.77 113.071C211.84 115.967 208.854 118.431 205.232 116.758Z" fill="#883B8F"/>
<path d="M237.787 139.935C235.465 140.807 232.613 142.623 230.915 142.358C222.415 141.009 215.921 137.567 214.661 129.469C217.308 126.543 219.616 122.779 224.088 124.48C223.64 125.057 223.18 125.627 222.731 126.204C220.318 130.341 222.444 137.789 226.647 137.483C229.01 137.306 232.513 139.97 234.952 134.825C236.002 136.043 237.052 137.241 238.09 138.452C237.99 138.933 237.889 139.434 237.789 139.915L237.787 139.935Z" fill="#ECB1F1"/>
<path d="M224.083 124.488C219.624 122.775 217.304 126.552 214.656 129.477C214.11 127.758 213.575 126.045 213.029 124.326C217.859 123.241 222.688 122.156 227.505 121.084L227.835 121.29L228.203 121.456C231.457 123.548 234.713 125.619 237.967 127.71C238.366 127.958 238.753 128.2 239.14 128.441C238.486 129.287 237.808 130.139 237.154 130.985C235.019 129.738 232.883 128.511 230.759 127.271C228.534 126.343 226.308 125.436 224.082 124.508L224.083 124.488Z" fill="#883B8F"/>
<path d="M227.507 121.075C222.678 122.16 217.848 123.245 213.032 124.317C211.835 123.572 210.651 122.833 209.466 122.095C215.427 122.426 223.536 115.591 227.507 121.075Z" fill="#C459D5"/>
<path d="M201.539 154.748C202.802 151.838 203.009 149.982 204.099 149.157C205.5 148.086 207.62 147.82 209.43 147.214C209.319 148.461 209.732 150.223 208.96 150.87C207.367 152.197 205.147 152.944 201.526 154.761L201.539 154.748Z" fill="#732B7F"/>
<path d="M237.154 130.969C237.808 130.123 238.486 129.271 239.14 128.425C243.258 130.887 242.577 136.669 237.769 139.94C237.869 139.459 237.971 138.958 238.071 138.477C237.76 135.985 237.451 133.474 237.154 130.969Z" fill="#C459D5"/>
<path d="M192.585 121.136C193.389 120.739 194.193 120.342 194.986 119.938C194.182 120.335 193.378 120.732 192.585 121.136Z" fill="#BA58C2"/>
<path d="M254.765 143.492C254.805 143.621 254.844 143.749 254.883 143.877C254.844 143.749 254.816 143.628 254.777 143.499L254.765 143.492Z" fill="#BA58C2"/>
<path d="M190.898 122.869C191.178 122.542 191.457 122.235 191.736 121.908C191.445 122.228 191.178 122.542 190.898 122.869Z" fill="#BA58C2"/>
<path d="M187.563 120.395C187.958 120.515 188.405 120.543 188.652 120.76C188.755 120.824 188.394 121.31 188.246 121.614C187.835 121.567 187.41 121.553 187.064 121.421C187.018 121.392 187.321 120.871 187.563 120.395Z" fill="#511760"/>
<path d="M251.123 138.802C251.658 138.55 251.987 138.4 252.315 138.249C252.376 138.601 252.509 138.955 252.463 139.323C252.445 139.417 251.63 139.807 251.574 139.751C251.352 139.509 251.268 139.143 251.123 138.802Z" fill="#721D79"/>
<path d="M234.945 134.837C232.506 139.982 229.003 137.318 226.64 137.496C222.437 137.801 220.311 130.354 222.713 126.209C226.159 128.253 229.592 130.31 233.039 132.353C233.662 133.181 234.298 134.016 234.934 134.83L234.945 134.837Z" fill="#3C2C3D"/>
<path d="M233.052 132.357C229.605 130.313 226.159 128.269 222.725 126.213C223.174 125.636 223.634 125.066 224.083 124.489C226.308 125.416 228.546 126.33 230.76 127.251C231.52 128.957 232.279 130.663 233.052 132.357Z" fill="#C375CA"/>
<path d="M233.037 132.361C232.278 130.654 231.518 128.948 230.746 127.255C232.869 128.495 235.017 129.729 237.141 130.969C237.451 133.461 237.76 135.973 238.07 138.465C237.032 137.254 235.971 136.049 234.933 134.838C234.298 134.003 233.674 133.175 233.037 132.361Z" fill="#732B7F"/>
</svg>
