<svg width="301" height="301" viewBox="0 0 301 301" fill="none" xmlns="http://www.w3.org/2000/svg">
<path d="M104.381 248.778C103.866 248.517 103.361 248.277 102.846 248.016C104.742 246.441 106.638 244.866 108.527 243.307C110.146 244.297 111.587 245.901 113.424 246.136C119.587 246.93 125.822 247.591 132.168 247.584C137.174 247.561 142.399 246.952 147.469 245.722C154.366 244.047 158.223 237.845 163.093 232.951C168.988 227.053 169.315 221.038 168.179 214.957C166.855 207.813 164.985 200.964 168.058 193.022C168.696 191.357 168.663 188.902 167.814 187.673C165.248 183.943 165.143 179.739 166.1 175.011C166.944 170.914 165.057 168.878 161.32 167.997C158.733 167.385 156.471 165.971 154.054 164.894C151.787 163.535 149.534 162.141 147.237 160.812C144.981 159.512 142.691 158.298 140.415 157.049C141.612 155.449 142.802 153.865 143.999 152.265C149.933 155.072 155.94 157.783 161.788 160.757C163.847 161.8 166.286 162.996 167.233 164.946C169.937 170.479 174.289 173.209 180.709 173.239C176.526 174.73 172.343 176.221 168.278 177.684C170.447 184.1 173.89 185.924 179.95 181.328C180.617 180.818 181.778 180.884 182.681 180.885C187.68 180.878 192.684 180.949 199.501 181.003C196.902 178.846 195.614 177.036 193.744 176.359C189.898 174.962 185.748 174.184 181.741 173.14C183.012 173.064 184.302 172.898 185.54 172.946C197.046 173.368 203.358 180.71 209.141 188.748C208.216 189.193 207.285 189.656 206.361 190.101C204.168 189.871 201.992 189.645 199.792 189.432C196.129 182.942 189.828 182.358 182.342 183.735C175.491 184.989 172.272 189.789 175.957 195.833C176.233 193.663 176.518 191.513 176.843 188.96C178.363 188.401 180.138 187.736 182.41 186.895C181.118 190.786 174.029 195.123 181.988 197.346C182.771 196.113 183.584 194.849 184.627 193.191C184.614 194.712 184.613 195.765 184.596 196.552C186.096 195.385 187.566 194.248 189.036 193.112L189.827 194.703C189.308 198.393 188.766 202.096 188.247 205.785C187.561 210.675 186.907 215.573 186.165 220.468C185.241 226.559 184.255 232.672 183.292 238.772C181.334 242.383 175.561 243.513 175.985 248.681C171.84 251.48 167.711 254.283 163.566 257.081C162.984 257.03 162.419 256.982 161.83 256.947C160.366 257.37 158.908 257.776 157.444 258.198C148.595 259.967 140.507 259.33 133.635 254.727C132.951 254.273 131.692 253.618 131.283 253.929C125.851 258.024 122.299 253.538 117.837 253.397C119.831 253.069 121.808 252.737 123.801 252.409C123.856 252.009 123.889 251.622 123.945 251.222C121.175 251.017 118.406 250.811 115.636 250.605C111.868 249.979 108.092 249.371 104.323 248.745L104.381 248.778ZM146.657 252.368C155.345 255.941 171.799 245.015 172.215 236.764C172.239 236.224 171.941 235.736 171.971 235.179C172.15 231.761 172.154 228.337 172.634 224.92C173.406 219.468 174.816 213.969 175.312 208.542C175.468 206.888 173.512 205.418 172.202 203.358C171.889 209.471 172.026 214.342 171.275 219.216C170.395 224.847 168.352 230.507 167.56 236.142C167.149 239.125 166.478 241.045 164.284 243.75C159.63 249.47 153.894 250.552 146.657 252.368Z" fill="#C258BE"/>
<path d="M39.8797 125.256C44.4791 123.173 49.0945 121.095 54.1032 118.833C53.5754 118.079 53.2708 117.213 52.6208 116.805C44.5133 111.534 44.6279 103.941 48.8568 94.2382C55.7453 78.4471 63.1233 62.7599 74.4084 49.2388C81.6011 40.6185 90.7256 33.0475 102.505 33.6699C101.993 34.6707 101.475 35.6886 100.27 38.096C105.46 37.5732 109.729 37.139 114.014 36.7088C116.684 37.7739 119.346 38.856 122.016 39.9211C120.09 40.0399 118.156 40.1758 116.23 40.2946C116.149 40.8012 116.075 41.2907 115.994 41.7973C120.088 41.752 124.174 41.7236 128.268 41.6783C144.797 44.5279 161.339 47.3051 177.843 50.2612C185.162 51.571 192.048 53.7318 196.587 59.632C195.298 59.7977 193.992 59.9593 192.702 60.1249C185.216 58.2651 177.778 56.2856 170.202 54.6479C168.525 54.2834 166.388 55.1399 164.473 55.4497C162.281 55.0877 160.08 54.7046 157.887 54.3426L156.031 53.6321C152.87 52.4248 149.803 50.9402 146.517 50.0404C141.186 48.5897 135.66 47.5791 130.265 46.244C127.128 45.457 124.144 44.294 121.021 43.4728C116.515 42.3044 111.735 41.7258 107.427 40.1555C97.8237 36.6541 90.0008 39.6966 84.3166 49.58C83.5197 50.9796 82.5826 52.4192 81.4206 53.539C69.6068 65.0832 61.3554 78.8575 53.3819 92.7768C49.7683 99.0774 50.4633 104.276 54.8708 109.014C55.936 110.147 56.7826 111.47 57.7282 112.723C58.0811 113.602 58.434 114.481 58.7869 115.36C59.0208 115.833 59.2386 116.302 59.4725 116.774C59.3608 117.969 59.2491 119.164 59.1374 120.36C58.8516 121.022 58.5658 121.684 58.28 122.346C57.8337 122.705 57.3805 123.08 56.9342 123.439C53.7401 124.764 50.5529 126.071 47.3588 127.396C46.7561 127.791 46.1534 128.185 45.5439 128.597C44.6636 128.583 43.7672 128.565 42.8869 128.551C42.5673 128.64 42.243 128.785 41.9532 128.975C41.7967 129.143 41.5966 129.244 41.3851 129.285C41.1162 129.292 40.8633 129.304 40.5944 129.312C40.3799 127.96 40.1494 126.603 39.9349 125.251L39.8797 125.256ZM110.941 38.6098L110.523 38.7682C110.674 38.9192 110.833 39.053 110.984 39.2039C111.065 39.0924 111.207 38.9589 111.203 38.8825C111.18 38.7638 111.026 38.7064 110.941 38.6098Z" fill="#422145"/>
<path d="M39.8735 125.247C40.088 126.6 40.3186 127.956 40.54 129.291C40.4639 129.479 40.3809 129.684 40.3049 129.872C40.1484 130.04 39.9575 130.161 39.7413 130.257C39.4077 130.513 39.0811 130.75 38.7475 131.005C38.3972 131.783 38.0631 132.565 37.7128 133.343C36.6318 135.969 35.5507 138.596 34.4536 141.219L34.419 141.304C33.2704 152.589 32.1219 163.874 30.9733 175.159C31.0413 179.937 30.3205 185.044 31.3727 189.448C32.8686 195.733 34.6952 202.251 38.0955 207.376C44.6186 217.217 56.9758 218.643 67.7609 222.027C70.2952 222.814 74.0624 220.861 77.2856 220.165C83.6289 218.633 87.6847 221.438 91.0863 225.51C91.3064 226.017 91.5333 226.506 91.7534 227.013C91.939 227.474 92.1476 227.921 92.3333 228.382C91.6549 228.701 90.9696 229.037 90.3072 229.36C87.099 225.074 83.1305 224.153 76.9565 226.405C64.0107 231.116 54.7737 224.696 44.9557 219.842C28.7402 211.84 27.1638 195.731 25.7239 178.848C24.4926 164.425 28.1453 150.193 31.8373 135.82C32.9732 131.438 34.6057 127.012 39.8574 125.243L39.8735 125.247Z" fill="#3D2C3C"/>
<path d="M192.722 60.1317C194.012 59.9661 195.317 59.8045 196.607 59.6388C196.607 59.6388 196.667 59.5785 196.66 59.5956C197.949 60.0884 199.228 60.5601 200.524 61.0358C203.51 63.2904 206.488 65.5622 209.489 67.8208C210.227 68.3634 210.964 68.9059 211.694 69.4656C212.158 70.0712 212.628 70.6596 213.092 71.2652C213.57 71.4416 214.025 71.6311 214.502 71.8075C216.758 75.2527 218.675 79.0081 221.358 82.0525C227.131 88.5822 233.703 94.4089 239.174 101.202C242.782 105.683 245.47 111.08 247.84 116.474C251.783 125.423 255.151 134.699 258.772 143.831C258.597 144.089 258.624 144.284 258.884 144.386C258.994 144.903 259.087 145.416 259.197 145.933C259.499 147.157 259.801 148.38 260.103 149.604L260.105 149.642C260.197 150.117 260.311 150.578 260.403 151.053L260.416 151.282C260.494 151.659 260.565 152.053 260.635 152.447C260.883 152.622 260.913 152.856 260.756 153.155L260.765 153.308C260.872 154.182 260.979 155.055 261.086 155.929C260.336 156.644 259.595 157.38 258.845 158.095C255.818 152.311 252.798 146.51 249.786 140.73C246.357 132.963 242.921 125.213 239.491 117.446C239.549 117.084 239.591 116.718 239.594 116.361C239.537 115.538 239.49 114.736 239.433 113.912C237.743 106.751 232.724 102.255 228.015 97.3851C223.256 92.4649 218.879 87.17 214.624 81.7928C211.106 77.3533 207.995 72.5643 204.702 67.9178C204.686 67.7821 204.718 67.5267 204.67 67.5146C204.445 67.4581 204.194 67.5082 203.964 67.507C203.211 67.2238 202.448 66.9194 201.695 66.6362C201.589 66.3275 201.394 66.1092 201.107 65.9431C198.745 64.8612 196.4 63.7833 194.038 62.7014C193.623 61.8445 193.201 61.0048 192.786 60.1479L192.722 60.1317Z" fill="#4D1D51"/>
<path d="M199.816 189.455C202.009 189.685 204.185 189.911 206.384 190.124C207.561 191.812 208.739 193.5 209.909 195.205C211.491 196.374 213.057 197.539 214.64 198.707C214.761 199.415 214.875 200.14 214.996 200.848C214.175 201.3 213.361 201.736 212.539 202.189C211.437 201.366 210.192 200.677 209.223 199.7C204.225 194.626 197.65 196.119 194.276 203.797C192.474 207.898 192.374 212.521 191.666 216.898C191.078 220.495 190.72 224.094 190.274 227.689C187.087 235.432 183.908 243.197 180.72 250.941L180.552 251.444L180.085 251.722C179.153 252.58 178.205 253.433 177.273 254.291L176.923 254.673C175.693 254.779 174.471 254.867 173.257 254.977C170.05 255.677 166.852 256.399 163.645 257.1C167.79 254.301 171.919 251.498 176.064 248.699C181.63 247.424 182.393 243.043 183.371 238.79C184.334 232.69 185.313 226.594 186.244 220.486C186.986 215.591 187.639 210.693 188.325 205.804C190.961 202.137 193.614 198.474 196.233 194.803C197.477 193.045 198.637 191.229 199.839 189.442L199.816 189.455Z" fill="#4D1D51"/>
<path d="M163.622 257.134C166.829 256.433 170.027 255.711 173.235 255.011C173.078 255.573 172.905 256.132 172.755 256.678C172.076 257.129 171.381 257.575 170.703 258.026C169.716 258.625 168.736 259.207 167.75 259.807C164.664 261.083 161.601 262.347 158.514 263.624L158.142 263.756C156.264 264.15 154.376 264.524 152.498 264.918C148.125 263.858 143.752 262.799 139.38 261.739C135.676 260.734 131.965 259.746 128.261 258.742C122.505 257.335 116.765 255.932 111.002 254.542C107.928 253.601 103.96 253.641 104.38 248.797C108.149 249.423 111.924 250.031 115.693 250.657C116.43 251.595 117.157 252.511 117.894 253.449C122.355 253.59 125.908 258.076 131.339 253.982C131.749 253.67 133.024 254.329 133.692 254.779C140.564 259.383 148.644 260.037 157.5 258.251C158.965 257.828 160.423 257.422 161.887 256.999C162.469 257.051 163.034 257.099 163.622 257.134Z" fill="#422145"/>
<path d="M263.148 167.737C264.481 179.72 266.547 191.642 260.069 204.318C258.995 206.401 257.524 208.328 256.233 210.337C257.574 207.286 256.515 206.795 253.923 208.384C252.087 209.504 250.38 210.919 248.618 212.209C248.42 212.084 248.211 212.031 247.958 212.043C248.914 210.514 249.617 208.733 250.876 207.506C256.514 201.939 257.788 195.334 258.658 188.589C259.525 181.938 260.385 175.305 261.253 168.654C261.885 168.361 262.524 168.051 263.157 167.758L263.148 167.737Z" fill="#4D1D51"/>
<path d="M248.604 212.202C250.366 210.913 252.073 209.497 253.908 208.377C256.517 206.792 257.559 207.28 256.218 210.33C248.637 218.684 239.683 224.698 229.295 226.984C223.476 228.271 221.16 223.926 220.017 219.048C220.613 217.748 221.194 216.445 221.791 215.146C222.434 215.307 223.078 215.469 223.737 215.634C224.134 215.791 224.525 215.964 224.923 216.12C224.887 220.628 226.95 221.484 231.331 219.591C235.581 217.76 240.025 216.673 244.325 215.024C245.82 214.439 247.164 213.177 248.581 212.215L248.604 212.202Z" fill="#422145"/>
<path d="M92.3748 228.397C92.1891 227.937 91.9805 227.489 91.7949 227.029C91.5748 226.522 91.3479 226.032 91.1439 225.529C87.7423 221.458 83.6704 218.648 77.3432 220.184C77.4243 219.677 77.4983 219.188 77.5794 218.681C79.8608 217.466 82.1424 216.251 84.4239 215.036C84.2306 219.146 86.6141 219.123 89.8382 217.768C92.9541 222.37 96.0264 227.037 99.2022 231.578C101.054 234.226 103.094 236.714 105.052 239.275C106.209 240.619 107.366 241.963 108.539 243.312C106.643 244.887 104.747 246.463 102.858 248.021C101.665 246.197 100.488 244.378 99.2951 242.554C100.988 235.395 95.1715 232.825 92.3978 228.384L92.3748 228.397Z" fill="#9E45A6"/>
<path d="M92.3687 228.402C95.1493 232.826 100.966 235.396 99.266 242.572C92.3239 241.206 92.5617 234.359 90.3357 229.397C91.0141 229.078 91.6994 228.742 92.3617 228.419L92.3687 228.402Z" fill="#473B47"/>
<path d="M221.802 215.125C221.206 216.425 220.625 217.728 220.028 219.027C217.518 213.41 215.024 207.798 212.52 202.164C213.341 201.711 214.155 201.276 214.977 200.823C217.404 204.105 219.839 207.369 222.267 210.65C222.267 210.65 222.272 210.727 222.279 210.71C222.128 212.177 221.976 213.645 221.825 215.112L221.802 215.125Z" fill="#473B47"/>
<path d="M180.691 250.961C183.879 243.217 187.058 235.453 190.246 227.709C190.502 236.355 188.675 244.458 180.691 250.961Z" fill="#473B47"/>
<path d="M263.137 167.735C262.504 168.028 261.865 168.338 261.232 168.631C260.423 165.116 259.62 161.584 258.811 158.069C259.561 157.354 260.302 156.617 261.052 155.902C261.737 159.857 262.445 163.798 263.13 167.752L263.137 167.735Z" fill="#833B8F"/>
<path d="M172.743 256.679C172.9 256.116 173.057 255.554 173.223 255.012C174.453 254.906 175.676 254.818 176.89 254.709C175.51 255.36 174.123 256.028 172.743 256.679Z" fill="#473B47"/>
<path d="M158.145 263.756L158.515 263.623L158.345 263.957L158.145 263.756Z" fill="#473B47"/>
<path d="M258.86 144.359C258.6 144.256 258.573 144.062 258.747 143.805L259.099 143.987L258.86 144.359Z" fill="#833B8F"/>
<path d="M260.747 153.262L260.745 153.095L260.988 153.23L260.747 153.262Z" fill="#833B8F"/>
<path d="M209.147 188.772C203.364 180.734 197.059 173.375 185.547 172.97C184.308 172.922 183.011 173.105 181.747 173.164C181.409 173.079 181.078 173.109 180.722 173.246C174.286 173.211 169.95 170.486 167.246 164.952C166.292 163.019 163.86 161.807 161.802 160.763C155.953 157.79 149.962 155.082 144.012 152.272C143.559 149.016 143.096 145.738 142.649 142.464C142.279 142.635 141.915 142.788 141.545 142.959C140.641 147.38 139.747 151.823 138.843 156.244C138.346 156.552 137.858 156.881 137.362 157.189C136.377 156.077 135.392 154.964 134.398 153.83L134.369 153.465C138.142 148.39 135.222 146.848 131.403 145.777C131.653 145.03 131.918 144.288 132.16 143.558C134.647 139.252 130.243 139.539 128.965 137.751C129.092 137.35 129.235 136.953 129.369 136.535L124.577 131.738C123.856 129.054 123.026 127.209 119.821 130.751C118.147 132.609 116.231 133.84 114.232 131.25C112.894 129.521 110.471 127.935 108.244 127.922C105.946 127.909 103.296 129.86 100.709 130.999C100.789 123.228 91.855 130.809 90.4005 126.568C87.9142 129.952 85.5453 133.178 83.1672 136.382C79.5802 135.614 75.8782 134.911 72.8234 138.999C69.4163 143.564 74.1203 144.462 75.5196 146.827C75.8614 147.383 76.523 147.718 77.0236 148.145L77.0419 148.187C75.0345 148.944 73.027 149.701 70.0584 150.819C74.1569 152.469 77.6558 153.893 81.1777 155.303C81.8694 155.477 82.5541 155.668 83.2389 155.858C82.6817 156.622 81.5448 157.898 81.6733 158.062C84.3702 161.336 87.2189 164.497 90.4441 168.129C90.9866 166.045 91.2405 165.111 91.4784 164.174C93.6834 165.423 95.8885 166.673 98.4221 168.118C98.5841 169.118 98.4441 170.908 99.1345 172.136C101.403 176.205 103.846 180.149 106.464 183.967C108.779 187.352 108.415 190.309 104.238 193.1C104.492 194.048 104.73 194.992 104.984 195.941C105.102 196.874 105.23 197.828 105.348 198.761C105.511 199.103 105.674 199.445 105.83 199.804C105.493 200.942 105.156 202.081 104.819 203.22C103.898 204.663 102.984 206.09 102.063 207.534C101.331 208.159 100.6 208.785 99.868 209.41C98.0817 209.752 96.2862 210.073 93.9274 210.516C95.2472 208.175 96.0925 206.656 96.9309 205.154C101.184 204.321 102.787 201.806 101.704 198.091C101.198 196.364 100.391 194.111 101.133 192.584C103.119 188.51 102.647 185.343 100.103 182.917C95.8467 178.857 94.4714 171.661 86.9423 171.089C86.1149 171.032 85.4792 170.195 84.7466 169.729C84.4168 168.706 84.4346 167.261 83.6997 166.757C79.9218 164.096 75.8631 161.779 72.0691 159.115C70.0436 157.684 68.3563 155.812 66.4988 154.141C66.373 153.621 66.2311 153.096 66.1053 152.575C66.3593 151.509 66.5904 150.457 66.8445 149.392C67.153 146.966 67.4776 144.545 67.7861 142.12C71.2251 137.695 73.2575 131.449 80.2424 131.527C81.7028 130.764 83.919 130.323 84.5271 129.215C89.825 119.366 96.002 116.494 105.693 119.735C109.664 128.88 119.786 123.178 126.704 125.215C122.019 123.569 117.312 121.936 112.627 120.29C112.786 119.897 112.952 119.487 113.095 119.09C113.888 119.232 114.671 119.354 115.464 119.496C119.751 119.368 124.022 119.235 128.302 119.124C130.459 121.453 132.387 124.044 134.893 125.953C135.689 126.567 138.017 125.325 139.633 124.922C139.602 124.387 139.563 123.869 139.532 123.334C145.419 124.285 151.865 121.537 154.603 116.917C155.097 115.611 155.567 114.317 156.109 113.023C156.627 111.742 157.233 110.464 157.8 109.195C159.634 109.26 161.478 109.346 163.312 109.411C163.092 110.786 162.856 112.157 162.548 114.056C165.39 111.325 167.47 108.855 169.969 107.017C173.585 104.386 175.027 101.7 173.894 97.8022C172.831 94.1672 173.846 90.8277 177.924 88.5014C183.202 86.0998 186.842 88.8385 191.01 90.3172C203.926 94.9135 213.249 102.654 216.17 116.974C218.508 128.4 226.39 135.76 234.277 143.064C237.831 146.365 241.107 150.047 238.877 156.3C238.559 156.822 238.257 157.349 237.932 157.888C232.932 151.289 227.565 144.937 223.027 137.983C219.143 132.04 215.468 125.755 213.078 118.964C211.042 113.184 209.594 107.438 203.819 104.634C200.745 102.772 197.663 100.888 194.491 98.9628L193.606 101.149C193.108 100.498 192.594 99.8416 192.096 99.1897C189.313 96.4779 186.524 93.7831 183.757 91.0753C182.16 91.2578 180.585 91.4272 178.767 91.6295C180.114 95.1291 181.145 97.8343 182.167 100.518C181.863 101.27 181.566 102.005 181.261 102.756C180.794 103.034 180.321 103.329 179.87 103.611L179.824 103.637C178.542 105.009 177.26 106.381 175.994 107.757C168.303 110.475 167.165 112.147 167.492 119.963C167.532 120.782 167.262 122.239 166.756 122.526C161.997 125.265 161.391 130.702 157.879 134.299C155.302 136.946 153.388 140.229 151.634 142.593C152.582 145.239 153.505 147.861 154.88 151.687C155.882 147.723 156.609 144.876 157.674 140.627C158.629 143.652 159.859 145.428 159.602 147.245C159.057 151.174 160.675 153.217 163.401 155.105C169.133 159.065 176.557 161.342 178.412 169.41C178.508 169.83 179.65 169.984 180.346 169.971C183.698 169.834 187.074 169.589 190.444 169.362C192.441 170.165 194.414 170.98 196.411 171.782C197.389 172.121 198.375 172.444 199.338 172.78C202.37 173.955 205.387 175.126 208.419 176.301C208.32 176.633 208.26 176.957 208.216 177.285C207.925 178.266 207.641 179.229 207.321 180.372C209.038 180.069 210.371 179.839 211.712 179.592C212.594 179.381 213.493 179.174 214.376 178.962C214.261 184.88 216.87 187.392 222.205 186.497C220.909 190.444 223.007 192.965 226.39 190.822C229.3 188.974 231.306 185.375 233.707 182.552C234.28 179.648 233.876 175.745 235.59 174.049C239.835 169.864 240.495 166.002 239.579 161.35C239.485 160.837 241.362 159.615 242.324 158.727C242.66 160.524 242.989 162.337 243.308 164.13C242.363 168.786 241.401 173.437 240.44 178.088C239.236 181.061 238.026 184.05 236.823 187.023C232.039 195.25 227.722 197.554 220.098 195.905C216.446 193.502 212.795 191.098 209.166 188.682L209.147 188.772ZM146.369 126.01L146.284 126.045L143.764 126.843C139.494 127.935 135.231 129.011 130.431 130.234C133.032 133.22 135.795 136.416 138.566 139.595C139.143 139.571 139.72 139.546 140.28 139.518C140.502 132.667 144.728 131.77 149.37 130.809C151.687 130.336 153.953 128.591 156.253 127.418C156.191 126.913 156.137 126.391 156.075 125.886C153.372 125.735 150.677 125.567 147.974 125.415C147.431 125.618 146.905 125.824 146.369 126.01Z" fill="#5F1760"/>
<path d="M108.515 243.307C107.358 241.963 106.201 240.619 105.045 239.275C108.629 236.11 110.49 239.305 112.985 240.101C116.154 240.764 119.306 241.424 122.475 242.087C126.563 242.624 130.652 243.16 135.77 243.824C135.48 244.014 136.524 243.185 137.663 242.605C138.87 241.986 140.185 241.582 141.827 240.94C142.411 241.294 143.626 242.013 145.293 243.014C145.261 240.729 145.256 239.298 145.235 237.862C146.195 238.292 147.165 238.742 148.125 239.171C148.538 239.726 148.942 240.261 149.355 240.816C150.413 239.689 151.465 238.579 152.524 237.452C153.35 236.418 154.177 235.383 155.01 234.331C158.891 230.958 163.331 227.782 161.005 222.192C161.573 219.738 162.164 217.271 162.848 214.356C158.513 208.3 159.28 192.968 162.722 189.673C160.034 185.329 157.457 181.144 154.381 176.138C156.659 176.333 157.964 176.435 160.265 176.617C155.056 172.807 150.693 169.624 146.329 166.44C146.053 165.109 145.76 163.775 145.483 162.445C146.52 162.818 147.535 163.242 148.606 163.53C150.426 164.024 152.257 164.446 154.091 164.906C156.498 165.962 158.77 167.397 161.357 168.009C165.093 168.89 166.964 170.922 166.137 175.023C165.164 179.747 165.269 183.951 167.85 187.685C168.699 188.915 168.726 191.386 168.095 193.034C165.022 200.976 166.891 207.825 168.216 214.969C169.352 221.05 169.016 227.044 163.129 232.963C158.244 237.853 154.387 244.055 147.506 245.734C142.436 246.964 137.204 247.59 132.205 247.596C125.868 247.624 119.624 246.942 113.46 246.148C111.624 245.913 110.19 244.292 108.563 243.319L108.515 243.307Z" fill="#5F1760"/>
<path d="M199.813 189.456C198.611 191.243 197.451 193.06 196.208 194.818C193.597 198.51 190.952 202.155 188.3 205.818C188.819 202.128 189.361 198.425 189.88 194.735L189.089 193.144C187.619 194.281 186.149 195.418 184.649 196.584C184.65 195.794 184.667 194.745 184.68 193.224C183.628 194.86 182.825 196.145 182.042 197.379C174.082 195.156 181.171 190.819 182.463 186.928C180.191 187.769 178.416 188.434 176.896 188.993C176.571 191.546 176.286 193.695 176.01 195.865C172.326 189.822 175.544 185.022 182.395 183.768C189.865 182.387 196.182 182.975 199.846 189.464L199.813 189.456Z" fill="#7D2B7F"/>
<path d="M146.646 252.369C153.884 250.554 159.627 249.454 164.274 243.752C166.468 241.047 167.123 239.122 167.549 236.143C168.335 230.525 170.385 224.849 171.265 219.217C172.022 214.326 171.878 209.473 172.191 203.36C173.501 205.42 175.458 206.889 175.302 208.544C174.806 213.971 173.402 219.452 172.623 224.921C172.137 228.356 172.14 231.763 171.961 235.18C171.937 235.72 172.236 236.209 172.205 236.766C171.789 245.017 155.335 255.942 146.646 252.369Z" fill="#833B8F"/>
<path d="M180.718 173.246C181.059 173.106 181.413 173.063 181.744 173.165C185.774 174.195 189.917 174.99 193.747 176.384C195.601 177.056 196.905 178.87 199.504 181.028C192.687 180.973 187.699 180.907 182.684 180.909C181.781 180.908 180.62 180.843 179.953 181.353C173.916 185.935 170.466 184.128 168.281 177.709C172.339 176.262 176.529 174.754 180.711 173.263L180.718 173.246Z" fill="#C459D5"/>
<path d="M154.088 164.905C152.254 164.445 150.416 164.04 148.603 163.529C147.532 163.241 146.524 162.8 145.48 162.444C144.83 162.3 144.164 162.152 143.513 162.007C143.426 161.872 143.364 161.631 143.254 161.641C142.946 161.658 142.62 161.764 142.307 161.836C141.812 162.183 141.295 162.542 140.8 162.888C140.079 162.745 139.38 162.588 138.659 162.445C138.099 161.025 137.54 159.605 136.981 158.185C137.112 157.86 137.251 157.519 137.382 157.194C137.879 156.886 138.367 156.557 138.863 156.249C139.394 156.514 139.925 156.778 140.432 157.056C142.709 158.305 145.015 159.524 147.254 160.82C149.551 162.149 151.804 163.542 154.071 164.901L154.088 164.905Z" fill="#39113F"/>
<path d="M140.423 157.059C139.893 156.794 139.362 156.529 138.854 156.251C139.758 151.83 140.653 147.388 141.557 142.966C141.927 142.796 142.29 142.642 142.661 142.472C143.107 145.745 143.577 149.006 144.024 152.279C142.834 153.862 141.636 155.463 140.446 157.046L140.423 157.059Z" fill="#833B8F"/>
<path d="M209.151 188.769C212.802 191.172 216.454 193.575 220.09 195.974C216.691 195.704 213.285 195.452 209.895 195.203C208.718 193.515 207.54 191.827 206.37 190.122C207.302 189.66 208.226 189.214 209.158 188.752L209.151 188.769Z" fill="#A141B1"/>
<path d="M183.345 238.826C182.368 243.078 181.598 247.477 176.039 248.735C175.599 243.562 181.388 242.437 183.345 238.826Z" fill="#9E45A6"/>
<path d="M117.883 253.429C117.147 252.491 116.419 251.575 115.682 250.637C118.452 250.843 121.221 251.049 123.991 251.254C123.935 251.654 123.902 252.041 123.847 252.441C121.854 252.769 119.876 253.101 117.883 253.429Z" fill="#4D1D51"/>
<path d="M80.2594 131.574C73.2583 131.492 71.2491 137.725 67.8031 142.167C64.9731 144.693 65.5978 147.089 66.8615 149.439C66.6074 150.504 66.3764 151.556 66.1223 152.622C66.2481 153.143 66.39 153.668 66.5158 154.188C68.3573 155.855 70.0375 157.744 72.0861 159.162C75.8801 161.826 79.9227 164.139 83.7166 166.804C84.4355 167.304 84.4338 168.753 84.7636 169.776C81.337 169.443 77.9103 169.11 74.4837 168.777L74.2747 168.725C74.0872 167.831 73.8997 166.937 73.7192 166.026C72.6384 166.508 71.5415 166.985 70.4607 167.467C68.1923 167.293 65.94 167.122 63.6716 166.948C63.6074 166.801 63.534 166.632 63.4698 166.484C63.1869 166.657 62.911 166.814 62.6441 166.992C58.2291 168.706 54.3698 170.843 52.7112 176.035C52.2844 177.395 49.9727 178.772 48.3307 179.546C39.5089 183.787 37.0777 189.18 40.7444 196.536C41.3934 197.865 41.9245 199.617 41.5941 201.133C40.5819 205.866 42.9031 208.011 46.4135 209.494C48.6809 210.458 50.817 211.747 53.2089 212.403C61.2855 214.6 69.4611 216.595 77.593 218.654C77.512 219.161 77.4379 219.65 77.3568 220.157C74.1496 220.858 70.3664 222.806 67.8482 222.024C57.0562 218.657 44.7059 217.214 38.1828 207.372C34.7824 202.247 32.9489 195.746 31.4599 189.445C30.4078 185.041 31.1216 179.951 31.0605 175.156C32.73 168.536 34.5512 161.937 36.03 155.307C37.1575 150.246 37.4667 145.28 34.5063 141.301L34.5409 141.215C35.6219 138.588 36.7029 135.962 37.8 133.339C38.9344 132.288 40.0688 131.236 41.2124 130.206C41.3759 129.889 41.4291 129.583 41.4019 129.256C41.6134 129.215 41.8065 129.132 41.963 128.964C42.3513 129.099 42.6756 128.955 42.8968 128.54C43.7771 128.554 44.6734 128.572 45.5537 128.586C46.1563 128.191 46.766 127.779 47.3686 127.385C50.5627 126.06 53.7499 124.752 56.944 123.427C57.3904 123.069 57.8435 122.693 58.2898 122.335C58.5756 121.673 58.8615 121.01 59.1633 120.352C59.275 119.157 59.3868 117.962 59.4985 116.767C59.2646 116.294 59.0468 115.825 58.8129 115.353C60.2931 115.329 61.7733 115.305 63.2628 115.303C60.9966 115.167 62.5789 108.413 57.7632 112.737C56.8108 111.501 55.9642 110.178 54.906 109.028C50.4823 104.286 49.8034 99.0911 53.417 92.7906C61.3905 78.8713 69.6351 65.114 81.4558 53.5527C82.6017 52.4289 83.5388 50.9893 84.3518 49.5938C90.0428 39.6933 97.8658 36.6508 107.462 40.1693C111.754 41.7356 116.55 42.3182 121.056 43.4866C124.186 44.2907 127.163 45.4707 130.3 46.2578C135.688 47.61 141.206 48.5995 146.552 50.0541C149.854 50.958 152.912 52.4215 156.066 53.6459C156.682 53.8757 157.314 54.1095 157.922 54.3564C160.115 54.7183 162.316 55.1015 164.509 55.4634C164.566 55.6284 164.559 55.9088 164.664 55.9541C168.352 57.4816 173.933 57.0004 172.872 63.603C172.849 63.7477 173.451 63.88 173.768 64.016C174.292 64.693 174.654 65.7248 175.375 65.9999C185.785 69.7414 189.646 81.7378 200.841 84.4154C202.482 84.8271 204.302 84.7947 206.04 84.9673C205.288 83.3672 204.998 81.1492 203.698 80.3337C201.262 78.7813 197.382 78.8239 195.591 76.8127C190.507 71.0768 185.081 66.0081 177.357 63.7309C182.236 61.6999 186.797 61.1131 190.874 63.8674C191.361 64.1966 192.906 63.1355 193.96 62.7223C196.321 63.8042 198.667 64.8822 201.028 65.9641C201.216 66.1995 201.412 66.4178 201.616 66.6572C202.369 66.9404 203.132 67.2447 203.886 67.5279C204.044 67.7934 204.306 67.9345 204.646 67.9257C207.939 72.5722 211.05 77.3612 214.568 81.8007C218.823 87.1779 223.201 92.4728 227.96 97.393C232.668 102.263 237.687 106.759 239.377 113.92C239.441 114.727 239.481 115.546 239.538 116.369C239.535 116.726 239.493 117.092 239.435 117.454C238.058 118.407 236.68 119.359 235.371 120.273C230.801 115.061 226.451 110.225 222.197 105.281C218.155 100.559 217.691 92.558 208.605 90.5791C213.373 97.4023 216.841 103.673 221.517 108.799C231.783 120.031 241.058 131.787 244.386 147.77C244.735 149.401 245.458 150.9 246.01 152.468L246.001 152.447C245.548 156.455 245.102 160.445 244.649 164.453C244.194 164.395 243.739 164.337 243.277 164.297C242.941 162.5 242.612 160.686 242.292 158.894C241.151 158.08 239.994 157.263 238.845 156.467C241.075 150.214 237.8 146.532 234.245 143.231C226.375 135.93 218.477 128.566 216.139 117.14C213.202 102.816 203.879 95.0761 190.978 90.4839C186.811 89.0052 183.171 86.2663 177.893 88.6679C175.373 85.0435 173.043 81.2595 170.298 77.8421C167.305 74.1177 163.919 70.7086 160.707 67.1741C159.757 65.9759 158.807 64.7778 157.834 63.5927C158.055 63.046 158.409 62.4764 158.426 61.9537C158.516 60.2448 158.472 58.5589 158.474 56.8469C156.884 57.5772 155.231 58.1597 153.757 59.0882C152.848 59.6694 152.217 60.7906 151.453 61.6715C147.249 59.9767 142.745 58.7148 138.928 56.4584C134.019 53.5706 130.182 48.9569 122.956 50.7001C122.011 50.9335 120.552 50.3792 120.072 49.6378C116.252 43.7112 110.444 43.7026 103.502 46.1006C101.748 46.7141 99.7674 45.7845 97.9144 46.2039C94.6934 46.9387 91.0841 47.5384 88.4891 49.4841C87.4194 50.2883 88.5523 54.4492 88.7308 57.0721C88.7785 57.6109 89.0676 58.0787 89.2486 58.5945C91.3558 64.9005 90.3957 66.3532 83.2666 67.7256C73.0108 69.6871 69.1751 73.2974 67.7686 83.031C67.2774 86.3892 67.9492 89.7193 68.0901 93.0478C63.3025 93.0131 59.1151 94.6908 57.4679 99.9418C56.7942 102.087 57.6626 104.451 57.8438 106.717C58.3519 106.6 58.8508 106.461 59.3589 106.344C60.648 96.7692 62.2293 94.8326 68.3817 95.3039C69.8287 96.1939 71.1397 97.4638 72.7803 97.8755C74.4692 98.2994 77.1672 98.6376 78.2739 97.6545C82.0979 94.2483 85.5015 94.5944 89.4496 95.1711C92.0717 95.5657 95.116 94.6549 97.9573 94.3329C99.1026 91.7223 100.248 89.1116 101.393 86.501C101.622 85.4105 101.858 84.303 102.087 83.2125C103.111 82.0394 104.144 80.8873 105.168 79.7141C107.108 82.3648 109.109 84.9935 106.528 89.0503C103.64 89.5301 103.082 90.6886 105.006 92.5452C104.99 92.9362 104.957 93.3232 104.948 93.6971C104.346 95.1834 103.76 96.6736 103.175 98.1638C102.885 98.4862 102.611 98.8127 102.314 99.1522C101.941 99.4162 101.585 99.6843 101.212 99.9483C100.92 100.364 100.627 100.78 100.358 101.183C99.6948 102.296 99.0224 103.388 98.3591 104.501C98.1424 105.124 97.9095 105.744 97.6927 106.367C97.6999 108.1 97.691 109.829 97.6913 111.579C96.593 113.241 95.7419 115.738 94.323 116.398C87.3251 119.591 84.8438 126.552 80.2271 131.698L80.2594 131.574ZM34.7316 160.966C36.7895 164.286 37.5358 166.863 39.3202 168.101C42.501 170.311 44.684 166.888 46.0017 164.377C48.3813 159.856 43.8879 159.707 41.8068 158.545C40.8559 158.005 38.4705 159.608 34.7316 160.966ZM83.8735 107.02C84.7305 109.324 85.2262 111.951 85.7596 111.859C87.9252 111.499 90.1055 110.315 92.2717 109.428C91.6602 107.525 91.0256 105.634 90.4142 103.731C88.5605 104.677 86.6977 105.602 83.8735 107.02ZM222.955 123.894C225.961 126.229 228.99 128.551 232.078 130.945C232.828 124.847 230.941 123.075 222.955 123.894ZM58.2503 134.688C58.1847 133.712 58.1261 132.719 58.0445 131.739C54.8118 132.678 51.556 133.63 48.3233 134.568C48.3755 135.184 48.4276 135.799 48.4729 136.431C51.7351 135.857 54.9881 135.262 58.2503 134.688Z" fill="#C258BE"/>
<path d="M91.1355 225.523C91.3556 226.03 91.5825 226.52 91.7865 227.023C91.5664 226.516 91.3395 226.026 91.1355 225.523Z" fill="#473B47"/>
<path d="M258.816 158.053C259.626 161.568 260.429 165.101 261.238 168.616C260.371 175.267 259.51 181.901 258.643 188.552C257.773 195.296 256.499 201.902 250.861 207.468C249.619 208.7 248.9 210.476 247.944 212.005C248.453 209.085 248.971 206.185 249.427 203.571C246.216 203.668 242.476 203.802 239.447 203.889C239.069 200.839 238.848 198.978 238.62 197.133C238.897 196.449 239.148 195.741 239.425 195.058C243.522 189.706 248.16 184.51 245.653 177.746C245.351 176.917 246.18 175.526 246.367 174.406C247.222 169.013 248.352 163.594 248.648 158.268C248.77 156.172 246.956 154.305 246.032 152.342L246.041 152.363C246.688 150.023 247.293 147.653 248.003 145.328C248.497 143.759 249.174 142.216 249.765 140.671C252.792 146.455 255.812 152.256 258.823 158.036L258.816 158.053Z" fill="#C258BE"/>
<path d="M249.75 140.682C249.159 142.228 248.498 143.774 247.988 145.34C247.254 147.677 246.673 150.034 246.026 152.375C245.474 150.806 244.745 149.324 244.402 147.677C241.074 131.693 231.8 119.937 221.534 108.705C216.858 103.58 213.383 97.3256 208.622 90.4852C217.708 92.4642 218.172 100.466 222.214 105.187C226.451 110.127 230.794 114.981 235.387 120.179C236.689 119.283 238.074 118.313 239.452 117.36C242.882 125.127 246.318 132.877 249.747 140.644L249.75 140.682ZM240.537 125.141C239.856 125.29 239.348 125.407 238.863 125.511C238.923 125.978 238.876 126.794 239.06 126.821C239.618 126.886 240.262 126.653 240.88 126.526C240.775 126.085 240.679 125.666 240.56 125.128L240.537 125.141Z" fill="#833B8F"/>
<path d="M209.88 195.208C213.287 195.46 216.686 195.73 220.076 195.978C227.684 197.624 232.017 195.324 236.8 187.097C236.847 188.294 236.855 189.5 236.934 190.706C236.995 191.606 237.141 192.47 237.257 193.365C237.193 193.744 237.128 194.123 237.063 194.502C233.869 199.459 230.675 204.416 227.489 209.355C225.741 209.82 223.994 210.285 222.254 210.733C222.254 210.733 222.249 210.656 222.265 210.66C221.752 205.187 219.332 201.099 214.618 198.692C213.036 197.524 211.47 196.359 209.887 195.191L209.88 195.208Z" fill="#C459D5"/>
<path d="M214.619 198.704C219.332 201.11 221.736 205.195 222.265 210.672C219.831 207.407 217.403 204.126 214.975 200.844C214.861 200.12 214.74 199.412 214.619 198.704Z" fill="#C258BE"/>
<path d="M238.626 197.148C238.854 198.993 239.074 200.855 239.452 203.904C242.489 203.801 246.222 203.684 249.433 203.586C248.977 206.2 248.452 209.117 247.95 212.021C248.196 212.026 248.421 212.083 248.609 212.186C247.192 213.148 245.858 214.431 244.354 214.995C240.054 216.645 235.603 217.748 231.36 219.563C226.986 221.438 224.9 220.595 224.951 216.091C231.967 211.322 237.559 205.65 238.633 197.131L238.626 197.148Z" fill="#833B8F"/>
<path d="M238.628 197.148C237.554 205.666 231.946 211.334 224.946 216.108C224.549 215.952 224.158 215.778 223.761 215.622C225.016 213.528 226.264 211.452 227.503 209.354C230.697 204.397 233.89 199.44 237.077 194.5C237.865 194.698 238.637 194.892 239.426 195.09C239.149 195.773 238.898 196.481 238.621 197.165L238.628 197.148Z" fill="#721D79"/>
<path d="M227.5 209.351C226.245 211.445 224.997 213.521 223.758 215.619C223.115 215.458 222.471 215.296 221.812 215.131C221.963 213.663 222.114 212.196 222.265 210.728C224.013 210.263 225.753 209.816 227.5 209.351Z" fill="#C258BE"/>
<path d="M63.6519 166.935C65.9203 167.109 68.1726 167.279 70.441 167.453C71.7092 167.865 72.9867 168.299 74.2549 168.711L74.4641 168.763C77.3713 171.036 79.8129 174.415 83.2779 175.397C95.8234 178.941 101.294 190.814 95.9979 204.728C95.0711 203.254 94.1373 201.796 93.1943 200.317C92.9142 196.107 92.4456 191.925 92.3839 187.656C92.284 180.725 86.774 181.205 81.989 180.814C78.5738 180.54 75.0408 180.688 71.014 180.656C72.3495 178.583 72.8653 177.79 73.4732 176.814C66.0632 176.56 59.1861 179.294 52.8418 185.016C52.4736 185.356 51.433 184.907 50.7159 184.84C49.2432 186.333 47.7704 187.827 46.3436 189.294C45.3488 188.95 44.2415 188.578 41.8313 187.748C43.7566 190.433 44.8443 191.948 45.9228 193.442C46.0145 195.666 45.5311 198.217 46.3128 200.05C47.4589 202.69 48.9056 205.857 51.3062 206.93C56.011 209.052 61.3813 210.098 66.6321 211.134C69.2862 211.668 72.2932 211.199 75.5018 211.195C75.9448 211.721 76.9593 212.935 78.8002 215.128C78.2935 212.047 78.0539 210.537 77.7184 208.477C79.8996 208.517 82.4943 208.716 82.5543 208.524C84.4392 202.467 87.1341 207.453 89.3299 206.8C89.157 207.227 88.9911 207.637 88.8182 208.064C88.3973 208.316 87.9994 208.555 87.5785 208.806C86.5119 210.872 85.4223 212.951 84.3557 215.017C82.0742 216.232 79.7927 217.447 77.5112 218.663C69.3794 216.603 61.2037 214.608 53.1272 212.412C50.7352 211.755 48.5992 210.466 46.3317 209.502C42.8214 208.019 40.484 205.87 41.5123 201.142C41.8428 199.625 41.3185 197.856 40.6626 196.544C37.0189 189.175 39.434 183.778 48.249 179.554C49.8979 178.763 52.1933 177.382 52.6293 176.043C54.2879 170.851 58.1404 168.732 62.5624 167C62.8979 167.046 63.238 167.038 63.5897 166.957L63.6519 166.935Z" fill="#5F1760"/>
<path d="M93.2048 200.326C94.1317 201.8 95.0655 203.258 96.0084 204.737C96.3623 204.825 96.6654 204.996 96.9456 205.179C96.1003 206.698 95.2459 208.196 93.9422 210.541C96.3009 210.098 98.0872 209.756 99.8827 209.435C100.184 213.33 100.478 217.243 100.831 221.886C101.272 222.109 103.099 222.455 103.889 223.613C106.881 227.996 109.585 232.607 112.29 237.219C112.765 238.016 112.775 239.128 113.006 240.09C110.488 239.307 108.627 236.112 105.066 239.264C103.108 236.703 101.067 234.215 99.2157 231.567C96.0307 227.004 92.9677 222.359 89.8357 217.753C89.9767 217.054 90.1406 216.343 90.2816 215.644C90.3102 214.786 90.3319 213.944 90.3766 213.09C90.7628 211.042 91.1422 209.01 91.5215 206.979C91.6009 205.907 91.6802 204.836 91.7665 203.747C92.2459 202.607 92.7484 201.453 93.2278 200.313L93.2048 200.326Z" fill="#721D79"/>
<path d="M91.5014 206.969C91.1152 209.018 90.7359 211.049 90.3497 213.097C90.3211 213.956 90.2995 214.797 90.2548 215.652C90.1138 216.35 89.9497 217.062 89.8087 217.76C86.6077 219.102 84.2241 219.125 84.4013 215.011C85.4679 212.945 86.5414 210.862 87.6241 208.8C88.045 208.548 88.4429 208.309 88.8639 208.057C89.0367 207.63 89.2027 207.22 89.3756 206.793L89.3295 206.819C90.0535 206.869 90.7775 206.919 91.5014 206.969Z" fill="#C258BE"/>
<path d="M112.992 240.106C112.761 239.145 112.751 238.032 112.276 237.235C109.564 232.64 106.867 228.012 103.875 223.629C103.085 222.471 101.242 222.121 100.817 221.902C100.464 217.259 100.17 213.347 99.8687 209.451C100.6 208.825 101.332 208.2 102.064 207.574C102.985 206.13 103.899 204.704 104.82 203.26C105.157 202.122 105.494 200.983 105.831 199.844C105.668 199.502 105.505 199.16 105.349 198.801C105.231 197.868 105.103 196.914 104.985 195.981C104.731 195.033 104.493 194.089 104.239 193.141C108.416 190.35 108.773 187.41 106.465 184.008C103.863 180.193 101.411 176.228 99.1351 172.176C98.4447 170.949 98.5848 169.159 98.4228 168.158C95.8892 166.713 93.6841 165.464 91.4791 164.214C90.6699 162.318 90.2635 159.995 88.9159 158.64C87.5177 157.236 85.1692 156.778 83.2325 155.916C82.5409 155.742 81.8562 155.552 81.1715 155.361C80.4117 152.555 83.7257 146.95 77.0356 148.245L77.0174 148.203C78.0802 147.416 79.391 146.804 80.0932 145.813C80.5974 145.093 80.3115 143.873 80.3793 142.874C81.3219 140.721 82.2414 138.58 83.1679 136.423C85.5299 133.214 87.8988 129.989 90.4012 126.608C91.8718 130.854 100.79 123.269 100.709 131.039C103.296 129.901 105.953 127.933 108.245 127.962C110.472 127.976 112.895 129.562 114.233 131.29C116.232 133.881 118.148 132.649 119.821 130.792C123.027 127.25 123.864 129.078 124.578 131.779C123.559 132.106 122.557 132.438 119.899 133.314C124.145 134.775 126.757 135.675 129.369 136.575C129.242 136.976 129.099 137.373 128.966 137.791C128.791 138.18 128.606 138.548 128.431 138.937C127.118 139.116 125.813 139.277 124.484 139.452C124.582 139.909 124.665 140.363 124.77 140.803C125.984 140.167 127.198 139.531 128.413 138.895C128.721 141.023 129.028 143.151 129.329 145.297C128.614 151.572 130.204 154.21 134.346 153.519L134.376 153.884C134.027 155.49 133.685 157.079 133.343 158.668C132.01 158.503 130.67 158.355 128.979 158.156C132.652 167.64 133.341 167.907 138.607 162.473C139.328 162.616 140.027 162.773 140.748 162.916C142.449 169.045 142.754 169.253 146.29 166.471C150.654 169.655 155.017 172.839 160.225 176.648C157.925 176.466 156.626 176.347 154.342 176.169C157.434 181.179 160.011 185.364 162.683 189.704C159.241 192.999 158.467 208.349 162.809 214.387C162.125 217.302 161.557 219.756 160.965 222.224C159.72 224.339 158.345 226.421 157.253 228.594C156.324 230.449 155.72 232.424 154.978 234.345C154.151 235.38 153.325 236.415 152.492 237.466C151.02 238.038 149.564 238.614 148.093 239.185C147.132 238.756 146.163 238.306 145.203 237.877C144.042 235.666 135.833 234.585 133.073 236.282L133.08 236.265C130.861 235.576 128.625 234.883 127.616 234.574C125.208 238.072 123.829 240.078 122.45 242.084C119.281 241.421 116.128 240.761 112.96 240.098L112.992 240.106ZM116.811 181.693L117.018 181.575C117.66 188.567 118.279 195.573 119.024 203.757C119.879 201.864 120.477 201.13 120.464 200.506C120.274 192.046 120.13 183.561 119.611 175.169C119.525 173.849 117.736 172.93 115.941 170.974C116.065 165.297 114.077 159.849 109.977 154.63C109.701 154.918 109.213 155.247 109.197 155.506C109.142 156.603 109.061 157.768 109.31 158.772C112.165 170.102 114.949 181.433 112.105 194.193C111.943 194.942 111.844 195.802 112.04 196.453C112.643 198.336 113.399 200.144 114.288 202.456C115.221 194.768 116.024 188.232 116.804 181.71L116.811 181.693Z" fill="#9936B2"/>
<path d="M203.789 104.687C209.564 107.491 211.005 113.253 213.049 119.016C215.448 125.828 219.129 132.097 222.998 138.035C227.536 144.989 232.902 151.341 237.903 157.941C236.275 158.812 234.646 159.683 232.427 160.876C234.303 162.194 236.088 163.432 237.865 164.687L237.34 165.722C235.196 165.372 233.045 165.039 232.5 164.94C227.291 169.58 222.851 173.546 218.394 177.509C217.044 177.998 215.687 178.504 214.338 178.994C213.455 179.205 212.556 179.412 211.673 179.623C210.518 178.844 209.356 178.082 208.193 177.32C208.237 176.992 208.298 176.669 208.397 176.336C205.364 175.161 202.348 173.99 199.315 172.815C198.336 172.475 197.351 172.153 196.388 171.817C196.135 167.802 193.397 168.394 190.422 169.398C187.059 169.608 183.682 169.852 180.324 170.006C179.62 170.037 178.485 169.865 178.389 169.446C176.534 161.378 169.104 159.118 163.378 155.14C160.652 153.252 159.041 151.192 159.579 147.281C159.82 145.459 158.59 143.683 157.651 140.662C156.571 144.907 155.86 147.759 154.857 151.722C153.49 147.879 152.559 145.274 151.611 142.628C153.349 140.26 155.279 136.981 157.856 134.334C161.368 130.737 161.974 125.3 166.733 122.561C167.239 122.274 167.494 120.814 167.469 119.998C167.143 112.182 168.273 110.528 175.972 107.793C177.253 106.421 178.535 105.049 179.801 103.673L179.847 103.646C180.314 103.368 180.788 103.073 181.239 102.791C181.543 102.04 181.84 101.305 182.145 100.553C182.993 100.428 183.834 100.319 184.666 100.189C181.002 106.966 189.232 103.311 189.946 106.406C190.652 104.006 191.358 101.605 192.064 99.2038C192.562 99.8557 193.076 100.512 193.574 101.163C193.977 102.883 193.827 105.179 194.901 106.201C196.899 108.095 199.589 109.241 202.219 110.841C202.766 108.702 203.281 106.686 203.787 104.648L203.789 104.687Z" fill="#9936B2"/>
<path d="M157.798 109.239C157.231 110.508 156.641 111.79 156.106 113.067C155.581 114.365 155.11 115.659 154.601 116.961C151.539 117.039 148.319 114.839 145.517 119.442C145.141 120.063 142.602 119.859 141.182 119.69C137.018 119.21 132.899 118.572 128.754 118.002C124.165 116.907 119.553 115.825 114.964 114.73C112.812 113.305 110.66 111.881 108.501 110.473C108.916 109.448 109.299 108.415 109.714 107.39C110.714 105.007 112.119 102.631 112.579 100.225C112.82 98.93 111.481 97.5967 110.848 96.2712C110.831 95.4388 110.814 94.6064 110.803 93.757C112.309 93.0999 113.809 92.46 115.98 91.5181C117.978 96.9123 119.769 102.424 122.013 107.691C124.376 113.234 127.575 113.209 130.118 110.516C129.133 105.64 128.276 101.849 127.63 98.0172C126.612 91.9093 125.269 86.3408 119.469 83.1165C116.536 81.4771 113.846 78.1863 113.055 74.845C110.708 65.0163 110.536 64.5217 100.444 67.6535C98.8064 69.0302 96.0098 70.3796 95.7278 71.7766C94.6363 77.4493 94.3217 83.1287 93.7385 88.5526C91.0672 88.936 88.8326 89.335 86.612 89.5681C80.5985 90.2419 75.8216 88.9114 73.2191 83.4785C71.0317 78.9025 73.5682 73.8183 78.9989 72.2643C83.3767 70.9918 87.718 69.5031 92.0959 68.0989C97.5641 65.9709 98.0783 64.6133 94.6274 61.4515C94.5135 60.5949 94.3765 59.7514 94.2625 58.8948C99.7561 58.6738 105.25 58.4529 111.667 58.1815C110.85 55.4736 110.122 53.0703 109.016 49.3678C112.003 49.9105 113.669 50.2157 115.329 50.538C117.718 51.6833 119.984 53.1742 122.569 53.8793C125.952 54.8034 131.272 53.7861 132.793 55.9368C136.873 61.7028 143.289 62.485 149.496 64.0048C156.329 65.6821 158.272 71.3446 160.021 77.3537C161.056 80.9254 162.677 84.2302 164.045 87.6786C162.907 89.6136 161.76 91.5276 160.623 93.4626C162.143 94.3899 163.664 95.3172 165.834 96.6523C160.057 99.9822 156.676 103.65 157.798 109.239Z" fill="#9936B2"/>
<path d="M218.424 177.535C222.865 173.569 227.322 169.606 232.531 164.967C233.082 165.049 235.226 165.399 237.37 165.748L237.896 164.714C236.118 163.458 234.334 162.22 232.457 160.902C234.693 159.713 236.321 158.842 237.933 157.967C238.251 157.445 238.553 156.918 238.878 156.379C240.019 157.192 241.176 158.009 242.325 158.806C241.363 159.693 239.463 160.929 239.58 161.429C240.503 166.064 239.836 169.943 235.591 174.128C233.853 175.837 234.265 179.723 233.708 182.631C230.498 181.28 227.36 179.796 224.066 178.612C222.333 177.989 220.322 177.88 218.433 177.556L218.424 177.535Z" fill="#7D2B7F"/>
<path d="M160.736 67.0447C163.947 70.5793 167.334 73.9884 170.327 77.7127C173.072 81.1302 175.418 84.9182 177.922 88.5385C173.828 90.8608 172.813 94.2004 173.891 97.8395C175.031 101.72 173.582 104.424 169.966 107.054C167.459 108.871 165.371 111.358 162.545 114.093C162.862 112.215 163.082 110.84 163.309 109.448C166.259 102.379 169.217 95.2927 172.167 88.2235C169.607 83.9115 166.964 79.6728 164.526 75.2785C163.071 72.6554 161.976 69.8024 160.713 67.0578L160.736 67.0447Z" fill="#9E45A6"/>
<path d="M96.9447 205.194C96.6714 204.993 96.3614 204.84 96.0075 204.751C101.31 190.821 95.8329 178.964 83.2874 175.421C79.8225 174.438 77.3808 171.059 74.4736 168.787C77.9002 169.12 81.3269 169.453 84.7535 169.786C85.4861 170.252 86.1218 171.089 86.9492 171.146C94.4622 171.714 95.8537 178.913 100.11 182.973C102.654 185.399 103.126 188.566 101.14 192.641C100.398 194.167 101.205 196.421 101.711 198.147C102.81 201.867 101.191 204.377 96.9378 205.211L96.9447 205.194Z" fill="#9E45A6"/>
<path d="M108.49 110.447C110.642 111.872 112.794 113.296 114.953 114.704C115.119 116.307 115.285 117.911 115.451 119.514C114.658 119.372 113.874 119.25 113.082 119.108C109.506 118.267 105.924 117.443 102.348 116.603C100.806 114.898 99.254 113.173 97.7114 111.468C97.7043 109.735 97.7131 108.006 97.7129 106.256C97.9297 105.633 98.1626 105.014 98.3793 104.391C99.0426 103.278 99.715 102.186 100.378 101.072C100.671 100.656 100.963 100.241 101.232 99.8377C101.605 99.5737 101.962 99.3056 102.334 99.0416C102.624 98.7192 102.898 98.3927 103.195 98.0532C103.517 98.1339 103.852 98.1805 104.211 98.214C105.252 100.545 106.285 102.893 107.326 105.225C107.461 105.767 107.603 106.292 107.738 106.833C107.992 108.045 108.252 109.24 108.506 110.451L108.49 110.447ZM104.674 110.769C104.649 110.612 104.647 110.442 104.622 110.286C104.477 110.381 104.268 110.46 104.196 110.593C104.141 110.73 104.208 110.916 104.233 111.072C104.378 110.977 104.529 110.865 104.674 110.769Z" fill="#4D1D51"/>
<path d="M218.428 177.527C220.31 177.868 222.312 177.956 224.061 178.583C227.355 179.767 230.493 181.251 233.702 182.602C231.302 185.425 229.296 189.024 226.386 190.872C223.002 193.015 220.895 190.472 222.201 186.547C216.866 187.441 214.256 184.93 214.372 179.012C215.722 178.523 217.078 178.017 218.428 177.527Z" fill="#833B8F"/>
<path d="M147.995 125.401C150.697 125.553 153.393 125.721 156.096 125.873C156.158 126.377 156.212 126.899 156.274 127.404C153.974 128.577 151.708 130.323 149.39 130.795C144.749 131.757 140.523 132.653 140.301 139.504C139.724 139.529 139.147 139.553 138.587 139.582C135.816 136.402 133.052 133.206 130.452 130.22C135.252 128.997 139.515 127.922 143.784 126.829C144.617 126.567 145.472 126.293 146.305 126.031L146.39 125.996C146.932 125.794 147.459 125.587 147.995 125.401Z" fill="#C258BE"/>
<path d="M172.176 88.2072C169.226 95.2764 166.269 102.363 163.319 109.432C161.468 109.363 159.641 109.281 157.807 109.216C156.685 103.627 160.066 99.9593 165.843 96.6293C163.673 95.2943 162.153 94.367 160.632 93.4397C161.77 91.5046 162.917 89.5906 164.054 87.6556C166.759 87.8452 169.471 88.0177 172.193 88.2113L172.176 88.2072Z" fill="#721D79"/>
<path d="M128.76 117.99C132.905 118.56 137.017 119.216 141.188 119.679C142.631 119.834 145.148 120.052 145.523 119.431C148.325 114.827 151.529 117.024 154.607 116.949C151.869 121.569 145.439 124.321 139.535 123.367C139.567 123.902 139.605 124.419 139.637 124.954C138.005 125.354 135.7 126.582 134.896 125.985C132.391 124.077 130.463 121.485 128.305 119.156C128.458 118.78 128.617 118.387 128.753 118.007L128.76 117.99Z" fill="#721D79"/>
<path d="M80.3834 142.855C80.3156 143.854 80.6176 145.077 80.0973 145.794C79.3951 146.784 78.0773 147.413 77.0214 148.183C76.5048 147.753 75.8432 147.417 75.5174 146.865C74.1181 144.5 69.4142 143.602 72.8212 139.037C75.8761 134.949 79.562 135.648 83.1651 136.421C82.2386 138.578 81.3191 140.718 80.3926 142.876C79.912 143.056 79.4314 143.237 78.9347 143.413C79.4153 143.233 79.8959 143.052 80.3765 142.872L80.3834 142.855Z" fill="#7D2B7F"/>
<path d="M192.077 99.2245C191.371 101.625 190.665 104.026 189.959 106.427C189.236 103.31 181.015 106.987 184.68 100.21C184.366 97.1765 184.052 94.1433 183.739 91.1101C186.521 93.8219 189.311 96.5167 192.077 99.2245Z" fill="#7D2B7F"/>
<path d="M97.7351 111.469C99.2777 113.173 100.829 114.899 102.372 116.603C104.081 117.371 105.797 118.121 107.506 118.889C106.906 119.19 106.313 119.474 105.713 119.775C96.0145 116.551 89.8444 119.406 84.5465 129.254C83.9545 130.367 81.7382 130.808 80.2617 131.566C84.8784 126.421 87.3597 119.46 94.3577 116.267C95.7697 115.624 96.6276 113.11 97.7259 111.448L97.7351 111.469Z" fill="#A141B1"/>
<path d="M203.788 104.681C203.266 106.714 202.768 108.734 202.22 110.874C199.607 109.277 196.9 108.127 194.903 106.233C193.828 105.211 193.978 102.915 193.576 101.196C193.866 100.478 194.163 99.7437 194.461 99.0091C197.649 100.938 200.715 102.818 203.788 104.681Z" fill="#7D2B7F"/>
<path d="M83.2438 155.912C85.1804 156.774 87.529 157.232 88.9271 158.636C90.2747 159.991 90.6812 162.313 91.4903 164.21C91.2525 165.148 90.9917 166.099 90.4491 168.183C87.224 164.551 84.3845 161.411 81.6784 158.116C81.5499 157.952 82.6867 156.675 83.2438 155.912Z" fill="#7D2B7F"/>
<path d="M105.699 119.773C106.299 119.472 106.892 119.188 107.492 118.887C109.216 119.357 110.916 119.84 112.639 120.311C117.324 121.957 122.032 123.59 126.716 125.236C119.791 123.216 109.685 128.922 105.706 119.756L105.699 119.773Z" fill="#9E45A6"/>
<path d="M237.277 193.342C237.17 192.469 237.015 191.583 236.954 190.683C236.868 189.495 236.86 188.288 236.82 187.074C238.023 184.102 239.233 181.112 240.437 178.14C241.064 178.297 241.689 178.416 242.323 178.557C245.093 184.276 241.713 188.904 237.268 193.321L237.277 193.342Z" fill="#C258BE"/>
<path d="M128.754 117.993C128.602 118.368 128.443 118.761 128.307 119.141C124.02 119.27 119.75 119.403 115.47 119.514C115.304 117.911 115.138 116.307 114.972 114.703C119.561 115.798 124.172 116.88 128.761 117.976L128.754 117.993Z" fill="#7D2B7F"/>
<path d="M134.358 153.499C130.216 154.191 128.61 151.548 129.341 145.277L129.295 145.303L131.386 145.828C135.212 146.882 138.131 148.424 134.358 153.499Z" fill="#721D79"/>
<path d="M77.0199 148.244C83.726 146.954 80.396 152.554 81.1558 155.361C77.65 153.954 74.135 152.526 70.0365 150.877C72.989 149.754 75.0124 149.002 77.0199 148.244Z" fill="#7D2B7F"/>
<path d="M183.731 91.1284C184.045 94.1616 184.358 97.1947 184.672 100.228C183.824 100.354 182.982 100.463 182.15 100.592C181.112 97.9043 180.081 95.1992 178.75 91.7036C180.552 91.4973 182.15 91.3149 183.74 91.1495L183.731 91.1284Z" fill="#721D79"/>
<path d="M242.314 178.601C241.687 178.444 241.062 178.325 240.428 178.184C241.389 173.533 242.335 168.877 243.296 164.226C243.751 164.284 244.206 164.342 244.668 164.382C243.886 169.116 243.097 173.867 242.314 178.601Z" fill="#9E45A6"/>
<path d="M129.336 145.274C129.028 143.146 128.721 141.017 128.42 138.872L128.413 138.889C128.62 138.508 128.788 138.136 128.963 137.748C130.242 139.536 134.655 139.27 132.174 143.559C131.218 144.128 130.261 144.697 129.297 145.283L129.343 145.257L129.336 145.274Z" fill="#721D79"/>
<path d="M129.378 136.552C126.765 135.652 124.153 134.751 119.907 133.291C122.565 132.415 123.568 132.083 124.586 131.755C126.186 133.361 127.794 134.95 129.378 136.552Z" fill="#721D79"/>
<path d="M133.362 158.65C133.704 157.061 134.053 155.455 134.395 153.866C135.396 154.982 136.381 156.095 137.359 157.225C137.227 157.55 137.089 157.891 136.958 158.216C135.762 158.368 134.567 158.519 133.372 158.671L133.362 158.65Z" fill="#721D79"/>
<path d="M66.8645 149.431C65.6008 147.082 64.9761 144.686 67.8061 142.159C67.4976 144.585 67.173 147.006 66.8645 149.431Z" fill="#A141B1"/>
<path d="M112.649 120.315C110.926 119.845 109.226 119.362 107.503 118.892C105.793 118.124 104.077 117.374 102.368 116.606C105.943 117.447 109.526 118.27 113.101 119.111C112.942 119.504 112.776 119.914 112.633 120.311L112.649 120.315Z" fill="#721D79"/>
<path d="M190.44 169.409C193.4 168.401 196.138 167.809 196.407 171.828C194.41 171.026 192.437 170.211 190.44 169.409Z" fill="#833B8F"/>
<path d="M208.202 177.343C209.364 178.105 210.519 178.884 211.681 179.647C210.348 179.876 209.008 180.123 207.29 180.426C207.627 179.288 207.911 178.324 208.186 177.339L208.202 177.343Z" fill="#833B8F"/>
<path d="M179.771 103.689C178.489 105.061 177.207 106.433 175.941 107.809C177.223 106.437 178.505 105.065 179.771 103.689Z" fill="#721D79"/>
<path d="M129.293 145.303C130.25 144.734 131.207 144.165 132.17 143.578C131.905 144.321 131.656 145.068 131.414 145.797C130.722 145.624 130.015 145.446 129.316 145.29L129.293 145.303Z" fill="#9936B2"/>
<path d="M104.217 193.136C104.471 194.084 104.725 195.033 104.963 195.977C104.709 195.029 104.455 194.08 104.217 193.136Z" fill="#721D79"/>
<path d="M181.228 102.805C180.761 103.083 180.287 103.378 179.836 103.66C180.303 103.382 180.777 103.087 181.228 102.805Z" fill="#721D79"/>
<path d="M148 125.401C147.457 125.604 146.93 125.811 146.395 125.996C146.937 125.794 147.464 125.587 148 125.401Z" fill="#721D79"/>
<path d="M105.331 198.794C105.494 199.136 105.657 199.478 105.813 199.837C105.65 199.495 105.487 199.153 105.331 198.794Z" fill="#721D79"/>
<path d="M122.491 242.073C123.87 240.067 125.25 238.06 127.658 234.562C128.666 234.872 130.902 235.565 133.138 236.257C133.321 236.943 133.497 237.646 133.68 238.332C133.841 238.24 134.002 238.149 134.179 238.062C133.819 237.463 133.468 236.886 133.108 236.288C135.868 234.59 144.093 235.676 145.237 237.882C145.259 239.318 145.271 240.732 145.303 243.017C143.635 242.015 142.42 241.297 141.836 240.943C140.172 241.598 138.879 241.989 137.672 242.608C136.534 243.188 135.496 244 135.779 243.826C130.668 243.146 126.573 242.627 122.484 242.09L122.491 242.073Z" fill="#7D2B7F"/>
<path d="M155.012 234.338C155.755 232.417 156.359 230.442 157.288 228.586C158.38 226.414 159.754 224.331 161 222.216C163.334 227.789 158.894 230.965 155.006 234.355L155.012 234.338Z" fill="#7D2B7F"/>
<path d="M146.302 166.451C142.773 169.216 142.461 169.024 140.76 162.896C141.262 162.532 141.773 162.19 142.267 161.844C142.667 161.906 143.067 161.969 143.467 162.032C144.11 162.193 144.783 162.325 145.434 162.469C145.71 163.799 146.003 165.133 146.279 166.464L146.302 166.451Z" fill="#7D2B7F"/>
<path d="M148.136 239.166C149.607 238.594 151.063 238.019 152.535 237.447C151.476 238.574 150.424 239.684 149.366 240.811L148.136 239.166Z" fill="#7D2B7F"/>
<path d="M133.365 158.652C134.561 158.501 135.756 158.349 136.952 158.197C137.511 159.617 138.07 161.037 138.636 162.44C133.371 167.874 132.682 167.607 129.008 158.123C130.684 158.318 132.033 158.487 133.372 158.635L133.365 158.652Z" fill="#7D2B7F"/>
<path d="M143.485 162.024C143.085 161.961 142.685 161.899 142.285 161.836C142.598 161.764 142.924 161.657 143.233 161.64C143.343 161.63 143.405 161.872 143.492 162.007L143.485 162.024Z" fill="#5F1760"/>
<path d="M172.166 88.2142C169.461 88.0246 166.749 87.8521 164.028 87.6585C162.669 84.2313 161.054 80.9094 159.997 77.3507C158.248 71.3416 156.314 65.7003 149.471 64.0019C143.256 62.4609 136.856 61.6828 132.769 55.9339C131.247 53.7832 125.927 54.8005 122.545 53.8764C119.96 53.1713 117.716 51.6673 115.32 50.5391C113.49 49.1953 111.66 47.8516 109.356 46.1445C108.445 48.701 107.903 50.2587 107.251 52.0896C104.806 51.2127 102.815 49.8285 100.615 49.8787C97.7906 49.9413 94.7966 51.166 91.8836 51.884L94.2543 58.8959C94.3682 59.7525 94.5052 60.596 94.6191 61.4526C93.7753 63.6684 92.9314 65.8842 92.0876 68.1C87.7327 69.4911 83.3845 70.9969 78.9907 72.2654C73.5691 73.8405 71.0326 78.9247 73.2109 83.4796C75.8133 88.9125 80.5902 90.243 86.6038 89.5692C88.8152 89.315 91.0429 88.9331 93.7302 88.5537C94.2974 83.1258 94.6119 77.4464 95.7195 71.7777C95.9855 70.3767 98.7981 69.0313 100.436 67.6546C107.245 74.5572 115.975 80.4362 110.779 93.754C110.796 94.5864 110.814 95.4188 110.824 96.2682C110.526 98.0563 110.452 99.9009 109.832 101.608C109.362 102.902 108.176 104.034 107.313 105.248C106.272 102.917 105.238 100.568 104.198 98.2373C104.455 96.6834 104.705 95.1466 104.962 93.5927C104.978 93.2016 105.011 92.8147 105.02 92.4407C105.53 91.2701 106.032 90.1165 106.541 88.9459C109.123 84.8891 107.122 82.2604 105.182 79.6096C103.604 77.0306 102.035 74.4728 100.457 71.8938C99.9528 72.2191 99.456 72.5271 98.9522 72.8524C98.8894 73.5329 98.5735 74.3569 98.7797 74.898C99.8154 77.6795 100.989 80.3828 102.094 83.1252C101.865 84.2157 101.629 85.3232 101.4 86.4137C100.255 89.0242 99.1097 91.6348 97.9643 94.2454C95.123 94.5674 92.0788 95.4783 89.4567 95.0838C85.5316 94.494 82.1049 94.1609 78.2809 97.5672C77.1742 98.5502 74.4831 98.1949 72.7873 97.7882C71.1467 97.3765 69.8357 96.1065 68.3818 95.2336C68.2816 94.4745 68.1974 93.7195 68.0972 92.9604C67.9632 89.6148 67.2844 86.3018 67.7756 82.9437C69.1821 73.2101 73.0339 69.6038 83.2736 67.6382C90.4188 66.2698 91.3628 64.8132 89.2556 58.5072C89.0907 57.9953 88.7856 57.5235 88.7379 56.9846C88.5594 54.3617 87.4265 50.2008 88.4962 49.3967C91.0911 47.4509 94.7005 46.8512 97.9215 46.1164C99.7745 45.697 101.755 46.6267 103.509 46.0132C110.444 43.6323 116.259 43.6238 120.079 49.5505C120.559 50.2918 122.018 50.8461 122.963 50.6128C130.189 48.8695 134.042 53.4873 138.935 56.371C142.759 58.6104 147.256 59.8893 151.46 61.5841C153.597 62.2145 155.711 62.8579 157.847 63.4882C158.798 64.6864 159.748 65.8845 160.721 67.0696C161.984 69.8142 163.08 72.6672 164.534 75.2904C166.956 79.6806 169.615 83.9233 172.175 88.2353L172.166 88.2142Z" fill="#5F1760"/>
<path d="M242.331 178.6C243.113 173.866 243.903 169.114 244.685 164.38C245.138 160.373 245.584 156.382 246.037 152.375C246.961 154.338 248.774 156.204 248.652 158.3C248.357 163.627 247.203 169.058 246.372 174.439C246.201 175.562 245.355 176.95 245.658 177.778C248.171 184.525 243.527 189.739 239.43 195.09C238.657 194.896 237.869 194.699 237.081 194.501C237.146 194.122 237.211 193.743 237.276 193.364C241.721 188.947 245.094 184.336 242.331 178.6Z" fill="#833B8F"/>
<path d="M83.8596 107.018C86.6838 105.6 88.5374 104.654 90.4003 103.729C91.0117 105.633 91.6463 107.523 92.2578 109.427C90.0916 110.313 87.9112 111.497 85.7457 111.857C85.2284 111.953 84.7165 109.322 83.8596 107.018Z" fill="#7D2B7F"/>
<path d="M222.957 123.895C230.942 123.076 232.83 124.848 232.08 130.945C228.992 128.552 225.979 126.234 222.957 123.895Z" fill="#833B8F"/>
<path d="M102.115 83.0927C100.987 80.3633 99.8368 77.647 98.8011 74.8655C98.5949 74.3245 98.9038 73.5175 98.9736 72.82C99.4773 72.4947 99.9742 72.1866 100.478 71.8613C102.056 74.4403 103.619 77.0152 105.204 79.5771C104.18 80.7503 103.146 81.9024 102.122 83.0756L102.115 83.0927Z" fill="#A141B1"/>
<path d="M74.2567 168.719C72.9884 168.307 71.711 167.873 70.4427 167.461C71.5396 166.984 72.6205 166.502 73.7013 166.021C73.8888 166.914 74.0762 167.808 74.2567 168.719Z" fill="#9E45A6"/>
<path d="M97.7163 106.258C97.7235 107.991 97.7146 109.72 97.7148 111.471C97.7077 109.737 97.7165 108.009 97.7163 106.258Z" fill="#A141B1"/>
<path d="M106.551 88.9362C106.042 90.1068 105.539 91.2604 105.03 92.4311C103.106 90.5745 103.664 89.416 106.551 88.9362Z" fill="#A141B1"/>
<path d="M104.964 93.5829C104.707 95.1368 104.457 96.6736 104.2 98.2275C103.865 98.1809 103.529 98.1344 103.185 98.0667C103.786 96.5805 104.372 95.0902 104.957 93.6L104.964 93.5829Z" fill="#A141B1"/>
<path d="M100.378 101.068C99.7215 102.164 99.0422 103.274 98.3789 104.387C99.0352 103.291 99.7146 102.181 100.378 101.068Z" fill="#A141B1"/>
<path d="M63.6598 166.944C63.3151 167.007 62.9682 167.033 62.6328 166.986C62.9155 166.813 63.1911 166.657 63.4577 166.48C63.522 166.628 63.5955 166.796 63.6598 166.944Z" fill="#9E45A6"/>
<path d="M240.539 125.14C240.665 125.661 240.754 126.097 240.859 126.537C240.241 126.664 239.597 126.898 239.039 126.833C238.855 126.806 238.902 125.99 238.842 125.523C239.35 125.406 239.852 125.306 240.516 125.153L240.539 125.14Z" fill="#C258BE"/>
<path d="M93.2167 200.324C92.7373 201.465 92.235 202.618 91.7555 203.759C90.9522 204.781 90.1488 205.802 89.3454 206.824L89.3915 206.798C87.1957 207.451 84.5008 202.465 82.6159 208.522C82.5467 208.693 79.9681 208.498 77.78 208.475C78.1085 210.553 78.3549 212.045 78.8616 215.126C77.0047 212.929 75.9903 211.715 75.5634 211.193C72.3547 211.197 69.3477 211.666 66.6936 211.132C61.4428 210.096 56.0726 209.05 51.3678 206.928C48.9671 205.855 47.5044 202.684 46.3743 200.049C45.5926 198.215 46.0691 195.681 45.9844 193.44C48.1414 192.532 50.2893 191.603 52.2692 190.783C51.6767 188.395 51.2236 186.625 50.7775 184.838C51.5106 184.909 52.5352 185.354 52.9034 185.014C59.2538 179.306 66.1309 176.572 73.5348 176.812C72.9177 177.767 72.395 178.577 71.0755 180.654C75.0955 180.703 78.6353 180.538 82.0505 180.812C86.8355 181.203 92.3293 180.719 92.4454 187.654C92.514 191.906 92.9758 196.105 93.2559 200.315L93.2167 200.324ZM54.5121 187.168C55.1505 187.648 55.4557 188.12 55.8602 188.127C56.2256 188.143 56.6881 187.657 57.0999 187.384C56.7807 187.078 56.5147 186.598 56.1217 186.518C55.784 186.433 55.2618 186.848 54.5052 187.185L54.5121 187.168Z" fill="#9936B2"/>
<path d="M50.7442 184.852C51.1972 186.621 51.6272 188.404 52.2358 190.796C50.2651 191.638 48.1081 192.546 45.951 193.453C44.8794 191.942 43.7848 190.444 41.8595 187.759C44.2697 188.59 45.3609 188.958 46.3719 189.306C47.8147 187.843 49.2714 186.345 50.7442 184.852Z" fill="#7D2B7F"/>
<path d="M89.3233 206.829C90.1267 205.807 90.9301 204.785 91.7335 203.764C91.6541 204.835 91.5746 205.907 91.4883 206.996C90.7644 206.946 90.0404 206.896 89.3164 206.846L89.3233 206.829Z" fill="#5F1760"/>
<path d="M90.2666 215.657C90.2952 214.799 90.3168 213.957 90.3615 213.103C90.3329 213.961 90.3113 214.803 90.2666 215.657Z" fill="#9E45A6"/>
<path d="M116.807 181.693C116.004 188.229 115.225 194.751 114.292 202.439C113.403 200.128 112.646 198.319 112.044 196.437C111.847 195.785 111.947 194.926 112.109 194.176C114.969 181.42 112.185 170.089 109.313 158.755C109.064 157.752 109.146 156.587 109.2 155.49C109.216 155.231 109.704 154.901 109.989 154.634C114.079 159.851 116.067 165.299 115.953 170.978C117.748 172.934 119.538 173.854 119.624 175.174C120.126 183.561 120.287 192.051 120.477 200.51C120.49 201.135 119.898 201.852 119.036 203.762C118.299 195.56 117.657 188.568 117.03 181.58C117.186 179.925 117.358 178.275 117.514 176.62C116.976 176.768 116.438 176.915 115.9 177.062L116.823 181.697L116.807 181.693Z" fill="#7D2B7F"/>
<path d="M128.419 138.873C127.204 139.509 125.99 140.145 124.776 140.782C124.677 140.324 124.595 139.871 124.49 139.43C125.802 139.251 127.108 139.09 128.437 138.915L128.428 138.894L128.419 138.873Z" fill="#721D79"/>
<path d="M110.796 93.7459C115.976 80.4241 107.269 74.532 100.453 67.6465C110.529 64.5106 110.7 65.0053 113.063 74.838C113.855 78.1792 116.545 81.4701 119.478 83.1095C125.278 86.3338 126.614 91.9194 127.638 98.0102C128.278 101.859 129.142 105.633 130.127 110.509C127.607 113.189 124.385 113.227 122.021 107.684C119.777 102.417 117.97 96.9012 115.988 91.5111C113.817 92.453 112.318 93.0929 110.812 93.7499L110.796 93.7459Z" fill="#A141B1"/>
<path d="M107.312 105.239C108.176 104.025 109.361 102.892 109.831 101.599C110.458 99.8747 110.525 98.0472 110.823 96.2591C111.456 97.5847 112.802 98.9008 112.554 100.212C112.101 102.602 110.689 104.995 109.689 107.378C109.029 107.213 108.354 107.043 107.701 106.861C107.566 106.319 107.424 105.794 107.289 105.252L107.312 105.239Z" fill="#A141B1"/>
<path d="M107.713 106.85C108.373 107.015 109.048 107.185 109.701 107.367C109.286 108.392 108.903 109.425 108.488 110.45C108.234 109.239 107.974 108.044 107.704 106.828L107.713 106.85Z" fill="#5F1760"/>
<path d="M104.682 110.763C104.537 110.858 104.385 110.971 104.24 111.066C104.215 110.909 104.149 110.723 104.204 110.587C104.259 110.45 104.485 110.375 104.63 110.279C104.655 110.436 104.657 110.606 104.682 110.763Z" fill="#5F1760"/>
<path d="M80.3832 142.851C79.9026 143.032 79.422 143.212 78.9414 143.393C79.422 143.212 79.9026 143.032 80.3993 142.855L80.3832 142.851Z" fill="#9936B2"/>
<path d="M133.116 236.267C133.477 236.865 133.828 237.443 134.188 238.041C134.027 238.132 133.866 238.224 133.689 238.311C133.506 237.625 133.329 236.922 133.146 236.237L133.123 236.25L133.116 236.267Z" fill="#9936B2"/>
<path d="M54.5038 187.163C55.2604 186.826 55.7756 186.429 56.1203 186.496C56.5293 186.58 56.7793 187.057 57.0985 187.363C56.6867 187.636 56.2242 188.122 55.8588 188.105C55.4543 188.098 55.1491 187.626 54.5107 187.146L54.5038 187.163Z" fill="#5F1760"/>
<path d="M116.807 181.687L115.884 177.051C116.422 176.904 116.96 176.757 117.498 176.61C117.342 178.264 117.17 179.915 117.014 181.569L116.807 181.687Z" fill="#9936B2"/>
</svg>
