<svg width="289" height="309" viewBox="0 0 289 309" fill="none" xmlns="http://www.w3.org/2000/svg">
<path d="M114.689 109.305C121.047 109.773 127.458 109.946 133.739 110.778C143.972 112.136 153.154 115.918 162.303 119.633C166.361 121.283 170.425 122.924 174.478 124.584C179.178 126.509 183.771 125.719 187.445 123.359C191.972 120.441 196.012 117.001 199.856 113.504C202.414 111.182 205.483 109.769 208.987 108.871C211.829 108.139 214.268 109.536 215.156 111.846C215.484 112.702 216.315 113.446 216.918 114.244C217.943 116.133 218.986 118.016 220.011 119.905C220.235 120.265 220.459 120.625 220.682 120.984L220.669 120.957C219.974 121.056 219.296 121.15 218.601 121.249C216.919 118.936 215.198 116.642 213.578 114.294C212.427 112.629 210.858 111.252 208.434 111.998C205.856 112.791 203.406 113.988 201.177 115.297C196.922 117.808 195.221 121.712 193.129 125.377C191.79 127.731 192.452 130.543 194.738 132.389C196.968 134.182 199.26 134.25 201.65 132.528C204.491 130.486 207.283 128.404 210.13 126.375C210.447 126.141 210.93 125.989 211.361 125.93C213.812 125.641 219.279 128.6 220.2 130.676C220.068 131.01 219.731 131.382 219.835 131.676C221.443 136.494 219.071 140.025 214.294 142.831C208.913 146.004 202.711 147.73 196.265 148.732C190.444 149.631 184.872 150.721 179.449 152.781C172.852 155.285 167.554 158.588 163.976 163.682C163.019 165.053 161.426 166.141 160.125 167.367C157.331 167.433 164.765 167.434 165.602 169.479C165.771 169.887 154.684 174.684 155.167 175.013C153.026 177.831 151.376 181.015 147.311 182.53C143.359 183.997 139.272 185.225 135.352 186.736C133.228 187.556 131.322 188.745 129.301 189.759C126.712 191.052 124.117 192.331 121.528 193.623C121.324 189.542 121.661 185.386 120.814 181.388C119.383 174.641 112.954 158.287 111.086 151.586C130.271 152.4 117.154 159.772 117.927 158.929C118.761 158.028 119.444 157.041 120.194 156.088C120.562 156.444 120.925 156.808 121.282 157.159C121.248 157.27 121.22 157.395 121.198 157.51C120.673 158.442 120.055 159.364 119.677 160.337C119.507 160.791 121.116 157 121.198 157.51C121.814 157.249 122.754 159.307 123.255 158.948C123.633 158.68 122.211 160.279 122.437 159.878C122.963 160.055 123.482 160.218 124.008 160.394C123.806 161.106 124.967 159.542 124.842 160.269C124.724 160.933 125.609 158.917 125.561 159.583C126.445 159.249 126.04 161.609 126.941 161.27L125.924 163.553C127.683 164.517 129.471 165.48 131.242 166.448C131.148 165.036 132.187 161.535 133.287 161.827C152.706 155.129 134.712 167.049 134.774 166.914C134.093 166.559 133.429 166.199 132.748 165.844C135.094 166.144 135.797 164.996 136.554 163.676C138.037 161.093 139.327 160.669 141.518 161.675C140.681 162.026 139.776 162.397 138.877 162.781C137.965 163.922 137.041 165.059 136.128 166.2C136.36 166.294 140.099 160.687 136.829 166.495L138.902 162.813C139.86 162.852 141.198 160.141 142.024 159.909C143.757 159.431 143.657 161.611 141.847 160.863C142.376 159.899 142.892 158.93 143.426 157.957C143.922 157.809 144.422 157.652 144.918 157.504L144.929 157.508C145.254 157.31 145.595 157.108 145.925 156.901C146.231 156.685 146.554 156.465 146.865 156.24C151.097 154.504 154.893 152.456 156.361 148.535C157.177 146.33 158.514 144.232 159.126 142.01C159.612 140.213 159.728 138.239 159.333 136.441C158.919 134.502 157.706 132.669 156.843 130.794C162.226 131.708 167.588 132.682 172.989 133.513C175.877 133.962 178.883 134.453 181.683 132.508C180.12 132.029 178.749 131.763 177.576 131.221C173.677 129.415 169.973 127.286 165.946 125.68C156.171 121.765 146.053 118.511 135.214 116.891C133.928 116.701 132.681 115.964 131.443 115.992C125.231 116.148 119.214 114.593 112.842 115.083C109.561 115.334 106.073 114.917 102.593 115.444C96.1456 116.422 89.5975 116.972 83.0957 117.719C80.9669 117.966 78.8408 118.26 76.7134 118.53C76.7452 118.776 76.7704 119.009 76.8021 119.256C79.0605 119.939 81.3045 120.673 83.5773 121.305C87.2579 122.34 91.0106 123.22 94.6349 124.38C96.14 124.862 97.3816 125.887 98.7477 126.666C99.9903 128.901 100.868 131.33 102.565 133.313C105.362 136.573 108.731 139.523 111.787 142.652C115.15 146.092 117.811 149.796 118.743 154.148C118.438 154.689 118.158 155.238 117.853 155.779L117.819 155.789C117.622 155.382 117.508 154.928 117.199 154.593C116.681 154.05 116.108 153.375 115.384 153.173C115.019 153.065 114.249 153.876 113.658 154.27C113.135 154.441 112.613 154.613 112.083 154.771C109.999 152.213 107.91 149.664 105.826 147.107C103.298 143.797 100.934 140.4 98.2039 137.197C96.4069 135.089 94.1435 133.229 92.0049 131.323C86.6098 126.519 81.6178 121.278 72.8223 120.141C70.4189 120.347 68.0036 120.548 65.5949 120.763C65.3925 120.769 65.202 120.779 65.0048 120.776C64.5305 120.887 64.0444 120.993 63.5701 121.103C62.7382 121.142 61.913 121.195 61.0811 121.234C61.0204 120.887 60.74 120.35 60.9238 120.226C62.2319 119.316 63.5501 117.883 65.0205 117.77C68.2952 117.506 71.089 112.973 74.9213 117.498C75.0827 117.287 75.2442 117.076 75.4056 116.865C75.0723 115.918 74.7442 114.961 74.4109 114.013C75.0742 113.668 75.7494 113.327 76.4127 112.981L76.4009 112.977C76.7727 112.897 77.1275 112.822 77.4993 112.742C79.938 112.247 82.3714 111.761 84.7983 111.262C87.6643 111.042 90.5355 110.814 93.3897 110.59C94.215 110.538 95.0402 110.485 95.8655 110.433C100.427 110.18 104.971 109.933 109.532 109.681C111.233 109.538 112.945 109.399 114.645 109.256L114.689 109.305ZM159.653 163.84C160.94 162.866 162.286 161.914 161.062 160.301C165.069 162.739 156.136 167.557 154.096 167.445C151.754 167.314 153.441 158.241 153.109 160.092C152.867 161.406 153.206 163.15 154.186 164.161C155.764 165.799 157.528 164.257 159.124 163.617C159.148 163.827 159.16 164.033 159.184 164.243C159.344 164.11 159.504 163.977 159.664 163.844L159.653 163.84ZM146.289 170.869C147.284 170.16 148.345 169.487 149.226 168.704C149.435 168.51 147.527 171.49 147.23 171.361C146.76 171.16 147.599 167.329 147.173 167.557C146.689 167.81 146.493 168.411 146.159 168.852C143.447 167.839 144.864 166.71 145.607 165.744C147.471 165.133 141.216 170.793 142.484 168.514C143.748 166.245 142.96 165.952 142.661 164.692C142.391 163.935 147.342 161.123 147.071 160.366C146.357 160.626 148.722 171.693 148.464 172.127C147.241 174.198 148.866 169.169 148.224 171.369C147.431 174.065 142.688 171.307 146.283 170.878L146.289 170.869ZM151.313 168.632C151.313 168.632 151.313 168.632 151.301 168.628C150.803 169.514 150.169 170.362 149.858 171.292C149.676 171.843 149.992 172.493 150.079 173.095C150.839 172.807 147.234 172.774 147.559 172.296C148.723 170.607 146.257 168.932 147.13 167.127C147.306 166.765 155.03 165.716 154.609 165.554C155.641 168.248 153.139 165.668 152.863 166.006C152.191 166.796 151.812 167.747 151.318 168.623L151.313 168.632Z" fill="#9912AF"/>
<path d="M160.147 167.396C161.443 166.179 163.03 165.077 163.999 163.71C167.559 158.622 172.875 155.314 179.471 152.81C184.877 150.754 190.461 149.669 196.288 148.76C202.734 147.759 208.935 146.032 214.317 142.859C219.082 140.049 221.453 136.518 219.858 131.705C219.765 131.414 220.091 131.038 220.222 130.704C221.27 132.478 222.73 134.175 223.285 136.041C223.964 138.343 223.944 140.777 224.14 143.154C224.235 144.273 224.644 144.733 226.234 144.584C229.235 144.301 231.298 142.731 231.421 139.965C231.682 133.62 228.59 128.385 222.536 124.197C221.184 123.266 219.937 122.25 218.635 121.282C219.33 121.183 220.008 121.089 220.703 120.99C221.854 121.849 223.005 122.707 224.167 123.57C226.883 126.141 229.588 128.708 232.304 131.278C232.704 133.168 233.092 135.053 233.492 136.942C232.649 142.452 229.594 147.172 225.488 151.562C222.953 154.273 218.951 154.769 215.381 155.936C211.352 157.262 207.299 158.581 203.238 159.863C198.818 161.251 195.862 163.902 193.411 166.968C187.71 174.091 182.04 181.235 176.374 188.371C174.682 190.443 172.983 192.501 171.291 194.572C170.932 195.06 170.567 195.556 170.207 196.044C166.208 200.068 162.208 204.093 158.197 208.113C157.122 209.039 156.063 209.96 154.988 210.886L154.972 210.914C154.586 211.246 154.183 211.584 153.797 211.916C152.73 212.7 151.652 213.479 150.581 214.272C148.783 215.623 146.997 216.978 145.199 218.329C142.811 220.097 140.429 221.855 138.041 223.622C136.65 224.603 135.26 225.585 133.869 226.566C131.662 228.062 129.449 229.545 127.243 231.041C124.473 233.008 121.71 234.988 118.94 236.955C116.82 238.045 114.738 239.194 112.568 240.222C109.382 241.715 106.519 243.873 102.361 243.485C104.299 241.86 106.79 240.465 108.098 238.57C115.931 227.181 117.598 214.453 120.057 201.907L121.603 193.659C124.192 192.367 126.799 191.092 129.377 189.795C131.392 188.791 133.291 187.588 135.427 186.772C139.347 185.261 143.434 184.033 147.386 182.566C151.451 181.051 153.101 177.867 155.242 175.049C155.801 174.409 156.408 173.786 156.937 173.124C157.747 172.114 158.498 171.083 159.289 170.056C161.656 171.506 159.176 172.68 159.004 173.996C158.904 174.778 159.09 175.583 159.142 176.374C159.944 175.91 156.518 176.669 157.049 176.053C157.924 175.055 158.044 169.945 158.728 168.857C159.129 168.977 167.778 170.098 168.179 170.219C167.781 171.432 172.78 176.291 172.121 177.411C171.441 178.567 164.213 177.856 163.931 178.722C163.218 179.408 162.615 180.2 161.762 180.758C156.036 184.491 150.423 188.353 144.451 191.819C140.227 194.274 135.505 196.451 130.081 196.596C127.021 196.68 126.491 197.722 126.322 199.688C125.875 204.824 125.515 209.98 124.678 215.078C123.802 220.419 122.414 225.711 121.244 231.071C122.87 229.95 124.74 228.848 126.32 227.532C131.44 223.258 136.446 218.91 141.482 214.584C152.314 205.262 163.646 196.265 170.866 184.702C175.834 176.736 180.921 168.811 185.83 160.824C186.591 159.573 186.693 158.053 187.093 156.662C186.723 156.485 186.366 156.313 185.996 156.136C184.28 157.695 182.421 159.181 180.866 160.832C175.768 166.278 170.795 171.779 165.774 177.264C166.294 176.039 166.906 174.825 167.302 173.566C167.512 172.891 167.323 172.141 167.316 171.422C167.65 169.693 166.468 169.294 164.614 169.483C163.968 169.342 163.323 169.201 162.677 169.06C162.655 169.276 162.621 169.488 162.599 169.704C163.273 169.642 163.947 169.581 164.633 169.523C165.167 170.039 165.713 170.558 166.247 171.074C164.054 170.123 162.501 170.408 161.711 172.443C161.332 173.394 160.706 174.279 160.191 175.192C160.146 174.112 160.739 173.261 161.109 172.351C161.641 171.053 162.037 169.694 159.978 168.858C159.29 167 161.541 168.934 161.642 167.996C161.197 167.804 160.71 167.608 160.217 167.398L160.147 167.396Z" fill="#900C9B"/>
<path d="M224.119 123.563C222.968 122.704 221.818 121.846 220.655 120.983L220.668 121.01C220.445 120.65 220.221 120.29 219.997 119.93C218.972 118.042 217.929 116.158 216.904 114.269C217.866 114.176 218.935 114.244 219.793 113.957C223.367 112.759 227.594 112.04 230.228 110.036C233.267 107.718 238.156 106.127 238.562 102.275C239.008 98.0004 242.669 95.1316 244.744 91.573C244.975 91.1628 245.585 90.8099 246.136 90.6146C248.939 89.6227 251.706 88.1921 254.648 87.8878C256.911 87.6545 259.558 88.6558 261.808 89.4813C264.182 90.3626 265.338 92.0183 265.906 94.1913C266.838 97.7598 268.09 101.241 267.454 104.944C267.3 105.874 267.758 106.877 267.936 107.848C266.824 106.947 265.706 106.055 264.593 105.154C263.009 103.021 264.091 100.619 263.694 98.3725C262.95 94.166 258.68 90.6709 253.617 91.6623C245.816 93.1763 245.57 98.888 248.472 103.249C248.89 103.869 249.196 104.538 249.558 105.182C249.104 105.636 248.207 106.144 248.282 106.54C248.834 109.245 246.818 111.235 245.268 113.256C244.676 114.03 242.806 114.247 241.453 114.581C240.528 114.811 239.333 114.586 238.561 114.948C234.808 116.743 231.069 118.588 227.485 120.588C226.143 121.33 225.23 122.549 224.124 123.554L224.119 123.563Z" fill="#F9D4FC"/>
<path d="M264.586 105.158C265.699 106.059 266.817 106.951 267.929 107.852C268.017 109.742 268.08 111.623 268.196 113.512C268.243 114.312 268.405 115.109 268.51 115.908C268.059 115.926 267.608 115.944 267.157 115.962C263.62 113.009 259.223 114.686 254.844 114.387C255.573 119.831 256.633 124.99 260.876 129.416C260.368 129.537 259.675 129.883 259.377 129.732C256.271 128.131 252.488 127.127 251.197 123.867C250.913 123.161 249.924 122.595 249.173 122.036C247.756 120.97 246.689 121.25 245.411 122.383C243.445 124.133 241.251 125.735 238.993 127.246C236.847 128.685 234.505 129.943 232.248 131.276C229.532 128.705 226.828 126.138 224.112 123.567C225.218 122.563 226.131 121.344 227.472 120.602C231.057 118.602 234.783 116.753 238.548 114.962C239.321 114.6 240.515 114.825 241.44 114.595C242.782 114.257 244.664 114.044 245.256 113.27C246.806 111.249 248.821 109.259 248.27 106.554C248.189 106.167 249.103 105.654 249.546 105.196C249.984 105.856 250.434 106.521 250.872 107.181C253.128 109.106 255.714 110.443 259.207 110.146C259.958 109.921 260.71 109.697 261.461 109.473C261.791 109.266 262.132 109.063 262.457 108.865C264.672 108.514 265.117 107.497 264.147 105.964C264.294 105.703 264.417 105.434 264.552 105.169L264.586 105.158Z" fill="#F0B7F5"/>
<path d="M232.266 131.273C234.523 129.94 236.865 128.683 239.011 127.243C241.269 125.732 243.468 124.121 245.429 122.381C246.706 121.247 247.773 120.967 249.191 122.033C249.942 122.592 250.931 123.158 251.215 123.864C252.506 127.124 256.289 128.128 259.395 129.729C259.681 129.876 260.385 129.534 260.894 129.414C261.23 129.523 261.555 129.627 261.897 129.727C262.327 129.746 262.756 129.765 263.186 129.784C265.441 129.515 267.771 129.44 269.931 128.935C272.296 128.368 273.105 126.653 272.163 124.794C271.337 123.156 270.319 121.583 269.408 119.97C268.652 118.637 267.926 117.302 267.175 115.96C267.626 115.942 268.077 115.923 268.527 115.905C269.753 118.145 271.316 119.912 274.765 120.45C275.601 120.58 276.068 122.628 276.504 123.847C276.684 124.359 276.316 124.989 276.199 125.575C275.391 126.909 274.594 128.248 273.786 129.583C273.384 129.944 272.971 130.3 272.563 130.669C272.343 130.758 272.122 130.848 271.901 130.937C270.241 130.277 269.841 131.164 269.516 132.145C265.26 135.641 253.998 135.908 249.78 132.622C246.642 130.17 245.635 129.989 241.902 131.926C238.968 133.453 236.265 135.276 233.455 136.96C233.055 135.07 232.667 133.185 232.267 131.296L232.266 131.273Z" fill="#E598E7"/>
<path d="M72.8608 120.172C81.6562 121.308 86.6601 126.554 92.0434 131.353C94.1819 133.259 96.4571 135.124 98.2424 137.228C100.972 140.43 103.342 143.818 105.864 147.137C105.279 148.529 104.168 147.953 103.115 147.577C100.897 144.703 98.9416 141.665 96.3647 138.998C93.4064 135.949 90.071 133.09 86.5729 130.419C80.7892 126.003 74.3769 122.627 65.7063 124.424C64.7939 124.076 63.8934 123.732 62.9811 123.384C63.0985 123.907 63.2159 124.431 63.3333 124.954C61.6083 125.469 59.7938 125.84 58.1937 126.511C53.5407 128.466 48.7298 130.298 45.7118 133.967C44.4024 134.854 42.6709 135.557 41.8559 136.677C40.2624 138.851 39.2277 141.27 37.8249 143.534C37.4969 144.066 36.5877 144.369 35.9625 144.772C35.8198 143.915 35.6771 143.058 35.5292 142.211C35.803 141.345 36.0888 140.485 36.3626 139.62C38.3514 137.172 40.3283 134.721 42.3171 132.274C43.0814 131.673 43.822 131.065 44.6284 130.49C46.9202 128.868 49.2356 127.254 51.5511 125.64C54.3431 124.946 57.1351 124.252 59.8758 123.574C59.8702 123.18 59.8738 122.745 59.8721 122.319L59.9575 122.293C60.2687 122.069 60.5681 121.84 60.8794 121.615C60.9529 121.484 61.0382 121.358 61.1472 121.24C61.979 121.201 62.8042 121.149 63.6361 121.11C64.1104 120.999 64.5965 120.893 65.0709 120.783C65.2732 120.776 65.4638 120.766 65.6609 120.769C68.2765 121.222 70.8803 121.67 73.6655 122.149C73.3177 121.253 73.1004 120.705 72.8831 120.157L72.8608 120.172Z" fill="#BD28F2"/>
<path d="M35.5273 142.217C35.67 143.074 35.8128 143.931 35.9607 144.779C35.7235 149.844 35.272 154.911 35.3068 159.973C35.3969 172.332 34.751 184.787 39.2722 196.847C40.8912 201.164 43.585 205.238 45.7874 209.428C46.2729 210.005 46.7636 210.572 47.2372 211.144C47.4913 211.627 47.7401 212.118 47.9942 212.601C47.6458 212.488 47.2974 212.375 46.9609 212.266C46.6664 212.082 46.3718 211.899 46.0891 211.719L46.1049 211.691C44.788 210.169 43.4645 208.633 42.1477 207.11C41.9211 206.503 41.7904 205.852 41.4285 205.308C39.7361 202.711 37.982 200.148 36.2621 197.574C35.6851 196.025 35.1199 194.48 34.5429 192.93C33.8511 190.903 33.1712 188.88 32.4741 186.862C32.0511 181.203 31.6228 175.553 31.188 169.889C31.1628 169.656 31.1205 169.428 31.0901 169.205C31.6334 163.924 31.9781 158.617 32.7895 153.364C33.3643 149.618 34.5858 145.934 35.5273 142.217Z" fill="#AB19AE"/>
<path d="M61.1194 121.265C61.0104 121.383 60.9251 121.509 60.8516 121.639C60.5404 121.864 60.241 122.093 59.9297 122.318L59.8443 122.343C57.0763 123.449 54.3083 124.554 51.5285 125.655C49.2249 127.274 46.9029 128.874 44.6059 130.506C43.8048 131.071 43.0589 131.689 42.2946 132.289C41.4011 132.463 40.501 132.623 39.6076 132.796C46.0989 126.213 55.5404 122.441 63.4418 117.19C65.7409 116.388 68.04 115.585 70.339 114.783C71.6977 114.54 73.0563 114.297 74.415 114.055L75.4097 116.907C75.2483 117.118 75.0868 117.329 74.9254 117.54C71.0931 113.014 68.2993 117.547 65.0246 117.811C63.5541 117.925 62.2308 119.367 60.9279 120.267C60.7441 120.392 61.0245 120.929 61.0852 121.275L61.1194 121.265Z" fill="#AB19AE"/>
<path d="M273.791 129.575C274.6 128.24 275.396 126.901 276.204 125.566C278.767 126.593 276.537 127.7 276.244 128.726C275.956 129.743 275.178 130.316 273.791 129.575Z" fill="#F1F1F1"/>
<path d="M269.511 132.135C269.836 131.154 270.248 130.271 271.897 130.926C271.103 131.326 270.304 131.735 269.511 132.135Z" fill="#F0B7F5"/>
<path d="M118.786 154.169C117.854 149.816 115.199 146.103 111.83 142.672C108.769 139.553 105.405 136.594 102.608 133.334C100.899 131.346 100.033 128.921 98.7908 126.686C99.7393 124.875 100.059 122.414 101.772 121.391C105.213 119.317 109.374 117.959 113.316 116.433C114.149 116.115 115.36 116.211 116.347 116.351C120.558 116.948 124.806 117.479 128.933 118.326C132.462 119.048 135.98 119.968 139.283 121.193C145.813 123.603 152.657 125.732 156.893 130.828C157.755 132.703 158.963 134.545 159.383 136.475C159.772 138.282 159.656 140.256 159.175 142.044C158.57 144.28 157.238 146.368 156.411 148.569C154.954 152.494 151.164 154.533 146.915 156.274C146.604 156.499 146.281 156.719 145.975 156.935C145.645 157.142 145.304 157.344 144.974 157.551C144.974 157.551 144.967 157.538 144.979 157.542C144.479 157.699 143.983 157.847 143.483 158.004C141.499 158.953 139.521 159.892 137.537 160.841L137.536 160.818C135.215 161.635 132.888 162.462 130.566 163.279C131.732 161.814 133.242 160.192 132.165 158.52C131.25 157.118 135.178 161.736 133.62 160.642C133.233 160.37 131.52 163.759 130.902 163.695C129.351 164.507 122.883 156.381 121.331 157.193C120.963 156.838 120.6 156.473 120.244 156.122C119.759 155.468 119.282 154.827 118.798 154.173L118.786 154.169Z" fill="#B553CD"/>
<path d="M218.604 121.277C219.901 122.255 221.164 123.266 222.504 124.193C228.559 128.381 231.65 133.616 231.389 139.961C231.279 142.731 229.204 144.297 226.203 144.58C224.595 144.734 224.192 144.265 224.109 143.149C223.912 140.773 223.938 138.33 223.254 136.037C222.699 134.171 221.25 132.478 220.191 130.7C219.27 128.625 213.815 125.669 211.353 125.955C210.927 126.004 210.438 126.165 210.122 126.4C207.281 128.442 204.477 130.52 201.642 132.552C199.251 134.274 196.954 134.215 194.729 132.413C192.443 130.567 191.781 127.755 193.121 125.401C195.212 121.737 196.913 117.832 201.169 115.321C203.398 114.012 205.853 112.806 208.425 112.023C210.861 111.28 212.43 112.658 213.57 114.319C215.178 116.662 216.911 118.96 218.592 121.273L218.604 121.277Z" fill="#B553CD"/>
<path d="M156.885 130.829C152.661 125.738 145.805 123.603 139.275 121.194C135.967 119.979 132.449 119.059 128.925 118.327C124.786 117.476 120.55 116.948 116.339 116.352C115.352 116.212 114.141 116.116 113.308 116.434C109.366 117.96 105.21 119.309 101.764 121.392C100.063 122.42 99.7313 124.876 98.7828 126.687C97.4167 125.908 96.187 124.887 94.67 124.401C91.0576 123.246 87.293 122.361 83.6124 121.327C81.333 120.681 79.0956 119.96 76.8373 119.277C76.8055 119.031 76.7803 118.798 76.7485 118.551C78.876 118.281 81.0073 117.978 83.1308 117.74C89.6326 116.994 96.1807 116.443 102.628 115.465C106.12 114.942 109.596 115.355 112.877 115.105C119.249 114.614 125.266 116.169 131.478 116.014C132.716 115.985 133.963 116.722 135.249 116.912C146.088 118.532 156.189 121.791 165.981 125.702C170.008 127.307 173.7 129.432 177.611 131.242C178.784 131.784 180.155 132.05 181.718 132.53C178.913 134.484 175.912 133.983 173.024 133.534C167.623 132.703 162.261 131.729 156.878 130.815L156.885 130.829Z" fill="#760B9C"/>
<path d="M103.107 147.578C104.16 147.954 105.276 148.521 105.856 147.138C107.94 149.696 110.029 152.244 112.113 154.802C112.36 155.07 112.613 155.328 112.86 155.595C113.407 156.921 113.958 158.238 114.505 159.564L115.332 161.326C117.205 168.018 119.384 174.674 120.826 181.425C121.674 185.422 121.337 189.579 121.54 193.659C121.029 196.41 120.518 199.161 119.995 201.907C119.537 201.61 119.079 201.312 118.634 201.018C118.407 200.411 117.953 199.779 118.012 199.195C118.217 197.063 118.875 194.936 118.85 192.811C118.802 188.528 118.827 184.193 118.065 179.969C117.314 175.726 115.595 171.585 114.377 167.389C112.862 162.179 110.894 157.144 106.808 152.74C105.343 151.153 104.327 149.324 103.096 147.597L103.107 147.578Z" fill="#D530F0"/>
<path d="M121.32 157.197C122.871 156.385 124.428 155.563 125.979 154.751C126.658 155.262 127.353 155.768 128.032 156.279C127.877 156.403 127.71 156.522 127.555 156.646L125.26 155.827C127.461 157.116 127.34 158.618 126.452 160.372C127.258 159.597 128.07 158.812 128.942 157.97C130.885 158.227 131.764 158.888 130.865 160.56C130.364 161.501 130.147 162.543 129.794 163.547C128.878 163.131 127.95 162.71 126.897 162.233C126.576 162.701 126.255 163.146 125.95 163.586L125.973 163.571C126.171 162.209 126.353 160.852 124.058 160.436C123.604 160.106 123.157 159.789 122.703 159.459C122.209 158.824 121.719 158.179 121.236 157.547C121.258 157.432 121.286 157.308 121.32 157.197Z" fill="#BB54CC"/>
<path d="M125.966 163.58C126.276 163.131 126.586 162.682 126.913 162.228C127.966 162.704 128.894 163.125 129.81 163.542C130.06 163.452 130.309 163.362 130.571 163.276C132.892 162.459 135.219 161.633 137.54 160.816C137.084 161.627 136.734 162.476 136.181 163.23C135.8 163.755 134.954 164.628 134.7 164.549C132.176 163.782 131.929 165.306 131.308 166.484C129.537 165.516 127.749 164.553 125.978 163.585L125.966 163.58Z" fill="#AB19AE"/>
<path d="M72.8579 120.171C73.0752 120.719 73.2925 121.267 73.6403 122.163C70.867 121.688 68.2513 121.236 65.6357 120.783C68.0392 120.578 70.4544 120.377 72.8631 120.162L72.8579 120.171Z" fill="#D530F0"/>
<path d="M141.888 160.895C140.439 160.87 138.972 160.85 137.523 160.825C139.506 159.876 141.485 158.937 143.468 157.988C142.939 158.952 142.422 159.921 141.894 160.885L141.888 160.895Z" fill="#AB19AE"/>
<path d="M145.966 156.943C146.278 156.718 146.601 156.498 146.907 156.282C146.596 156.507 146.273 156.728 145.966 156.943Z" fill="#AB19AE"/>
<path d="M143.474 157.996C143.97 157.848 144.47 157.691 144.971 157.534C144.475 157.681 143.975 157.839 143.474 157.996Z" fill="#AB19AE"/>
<path d="M122.495 159.912C122.579 159.763 122.639 159.606 122.711 159.453C123.165 159.783 123.612 160.099 124.065 160.428C123.54 160.252 123.021 160.089 122.495 159.912Z" fill="#AB19AE"/>
<path d="M159.647 163.848C159.487 163.981 159.327 164.114 159.167 164.247C159.143 164.037 159.131 163.832 159.107 163.622C159.272 163.681 159.443 163.731 159.626 163.785L159.652 163.839L159.647 163.848Z" fill="#B22CBE"/>
<path d="M165.698 177.27C170.719 171.785 175.697 166.274 180.79 160.837C182.338 159.173 184.204 157.701 185.92 156.141C186.289 156.318 186.647 156.491 187.016 156.667C186.617 158.058 186.514 159.578 185.753 160.829C180.844 168.817 175.758 176.741 170.789 184.708C163.574 196.261 152.237 205.268 141.405 214.589C136.369 218.915 131.346 223.268 126.243 227.537C124.658 228.863 122.788 229.964 121.167 231.076C122.343 225.707 123.726 220.424 124.601 215.083C125.439 209.986 125.798 204.829 126.246 199.693C126.415 197.727 126.945 196.685 130.004 196.602C135.429 196.456 140.155 194.27 144.374 191.824C150.347 188.358 155.96 184.496 161.685 180.763C162.539 180.206 163.141 179.413 163.854 178.727C164.464 178.251 165.073 177.774 165.699 177.292L165.698 177.27Z" fill="#CD6CD5"/>
<path d="M118.648 201.005C119.106 201.303 119.563 201.6 120.009 201.894C117.55 214.44 115.883 227.168 108.05 238.557C106.737 240.461 104.263 241.851 102.313 243.472C98.4235 245.308 94.3944 244.059 90.4174 243.703C90.111 243.415 89.8045 243.126 89.4862 242.833C85.1204 241.274 80.7546 239.716 76.3889 238.157C74.7281 237.094 73.0726 236.021 71.4118 234.958C70.7067 234.191 69.9964 233.434 69.2913 232.667C67.7064 231.217 66.1438 229.752 64.5432 228.329C60.804 225.002 57.0477 221.679 53.3032 218.36C51.5287 216.439 49.7607 214.531 47.9861 212.61C47.7321 212.128 47.4832 211.636 47.2344 211.144C46.749 210.567 46.2635 209.991 45.7847 209.428C46.652 209.402 47.5193 209.376 48.3866 209.35C50.899 211.904 53.2893 214.548 55.9803 216.987C59.1856 219.9 62.6075 222.656 65.9796 225.45C69.2662 228.168 72.3716 231.057 75.9825 233.477C81.5172 237.2 88.0924 239.1 95.363 239.714C100.369 240.136 104.87 238.35 106.342 235.282C107.841 232.19 110.017 229.283 111.288 226.143C112.796 222.404 113.669 218.506 114.777 214.67C116.092 210.113 117.35 205.557 118.641 200.991L118.648 201.005Z" fill="#BD28F2"/>
<path d="M164.538 169.489C166.387 169.31 167.586 169.704 167.24 171.428L167.172 171.448C166.829 171.326 166.503 171.198 166.165 171.066C165.631 170.551 165.085 170.032 164.551 169.516L164.538 169.489Z" fill="#AB19AE"/>
<path d="M164.557 169.527C163.882 169.588 163.208 169.65 162.522 169.707C162.544 169.491 162.578 169.28 162.601 169.064C163.246 169.204 163.891 169.345 164.537 169.486L164.55 169.513L164.557 169.527Z" fill="#AB19AE"/>
<path d="M262.495 108.858C262.165 109.065 261.824 109.268 261.499 109.466C260.748 109.69 259.996 109.914 259.245 110.139C255.747 110.446 253.161 109.108 250.91 107.174C251.812 105.951 250.69 105.572 249.584 105.189C249.222 104.545 248.911 103.885 248.498 103.256C245.591 98.9042 245.842 93.1832 253.643 91.6692C258.7 90.6871 262.983 94.1865 263.72 98.3794C264.117 100.626 263.03 103.037 264.619 105.161C264.472 105.422 264.349 105.691 264.214 105.956C263.656 106.922 263.087 107.883 262.524 108.857L262.495 108.858Z" fill="#FCF8FD"/>
<path d="M267.174 115.958C267.912 117.297 268.651 118.635 269.406 119.969C270.317 121.582 271.336 123.154 272.161 124.793C273.104 126.652 272.295 128.367 269.93 128.933C267.764 129.448 265.434 129.523 263.185 129.783C262.755 129.764 262.325 129.745 261.895 129.726C261.559 129.617 261.234 129.512 260.892 129.412C256.644 124.996 255.589 119.827 254.86 114.383C259.239 114.682 263.636 113.005 267.174 115.958Z" fill="#FCF8FD"/>
<path d="M262.49 108.859C263.048 107.894 263.617 106.933 264.18 105.958C265.15 107.491 264.711 108.499 262.49 108.859Z" fill="#F9D4FC"/>
<path d="M249.554 105.19C250.671 105.577 251.799 105.946 250.88 107.175C250.442 106.514 249.992 105.85 249.554 105.19Z" fill="#F9D4FC"/>
<path d="M76.3945 238.172C80.7603 239.731 85.1261 241.289 89.4919 242.848C88.1695 242.522 86.8367 242.214 85.5235 241.846C83.256 241.204 80.9923 240.53 78.7235 239.866C77.9436 239.307 77.1691 238.74 76.3893 238.181L76.3945 238.172Z" fill="#B553CD"/>
<path d="M78.7287 239.856C80.9976 240.521 83.2441 241.2 85.5287 241.837C86.8419 242.205 88.18 242.503 89.4971 242.839C89.8036 243.128 90.1101 243.416 90.4283 243.709C86.5359 242.42 82.6382 241.14 78.7339 239.847L78.7287 239.856Z" fill="#AB19AE"/>
<path d="M118.65 201.008C117.364 205.565 116.101 210.129 114.786 214.687C113.677 218.523 112.804 222.421 111.296 226.16C110.026 229.3 107.849 232.206 106.35 235.298C104.867 238.363 100.378 240.152 95.3716 239.731C88.0958 239.126 81.5258 237.217 75.9911 233.494C72.3854 231.065 69.2748 228.185 65.9882 225.467C62.6161 222.673 59.1823 219.913 55.9889 217.004C53.3031 214.556 50.9194 211.925 48.3952 209.366C48.4106 208.935 48.602 208.444 48.402 208.092C46.3497 204.292 44.2292 200.512 42.1204 196.736C38.2427 189.843 38.4633 182.409 37.8496 175.17C37.1774 167.228 37.4462 159.229 37.6703 151.259C37.7925 146.903 38.0421 142.446 41.7119 138.729C43.189 137.242 44.3834 135.574 45.7158 133.99C48.7338 130.321 53.5447 128.489 58.1977 126.534C59.803 125.853 61.6176 125.482 63.3374 124.977C64.1323 124.802 64.9272 124.626 65.7103 124.447C74.3691 122.646 80.7932 126.026 86.5769 130.442C90.075 133.113 93.4104 135.972 96.3687 139.021C98.9508 141.678 100.889 144.721 103.119 147.6C104.338 149.323 105.366 151.157 106.831 152.743C110.912 157.156 112.885 162.182 114.4 167.392C115.618 171.588 117.325 175.725 118.088 179.972C118.845 184.205 118.825 188.531 118.873 192.814C118.898 194.939 118.24 197.066 118.035 199.198C117.971 199.791 118.43 200.414 118.657 201.022L118.65 201.008ZM87.5769 137.55C84.023 134.322 79.9335 131.641 75.0339 129.769C72.8017 128.938 70.5891 128.048 68.3254 127.273C64.5013 125.963 60.3722 125.978 57.1948 127.811C50.9019 131.442 46.4749 136.377 44.5131 142.461C42.4098 148.999 44.3684 155.364 46.4965 161.654C47.0499 163.296 47.9927 165.357 49.606 166.202C54.4103 168.723 60.0587 168.836 65.014 166.9C71.7139 164.287 78.3797 163.073 85.5569 165.065C90.7794 166.515 94.881 165.136 96.0296 159.31C96.1239 158.941 96.2655 158.588 96.3019 158.221C96.7369 153.763 95.4898 149.466 93.5253 145.384C92.1613 142.557 91.2949 139.325 87.5703 137.536L87.5598 137.555L87.5769 137.55ZM88.5469 179.971C86.7789 183.818 85.0158 187.253 85.771 191.161C86.4008 194.409 86.8703 197.689 87.2294 200.963C87.9383 207.352 88.0979 213.857 91.4242 219.837C93.5014 223.568 95.7192 227.427 100.622 229.547C104.68 231.299 106.304 230.837 108.13 227.593C108.629 226.708 109.185 225.82 109.508 224.894C112.669 215.543 113.579 205.926 114.292 196.306C114.832 188.986 114.404 181.645 111.547 174.58C110.349 171.633 108.678 168.696 106.473 166.151C104.05 163.338 100.716 163.48 98.4619 166.347C94.8928 170.895 91.6878 175.629 88.5535 179.984L88.5469 179.971ZM51.7643 176.881C50.6155 176.65 48.8949 176.248 47.1507 175.939C45.3592 175.613 44.0968 176.214 43.8142 177.625C43.1888 180.704 42.4715 183.796 42.2587 186.899C41.9166 192.151 45.4438 196.512 48.5505 200.812C52.9808 206.951 57.5268 213.086 62.7664 218.797C68.3032 224.838 74.963 230.171 82.5157 234.726C82.9957 235.01 83.7501 235.134 84.3572 235.115C87.2089 235.047 88.5258 233.592 88.1578 230.662C87.676 226.873 86.6922 223.118 86.4536 219.327C85.9934 211.841 83.4047 204.804 79.6939 197.993C78.9607 196.645 77.4232 195.312 75.8205 194.55C69.7806 191.699 64.761 187.97 60.9261 183.399C58.6225 180.65 55.8688 178.626 51.7354 176.881L51.7643 176.881ZM67.5005 172.781C67.5005 172.781 67.6017 172.828 67.6438 172.855C67.4496 173.199 67.1845 173.519 67.0665 173.88C65.8426 177.821 63.2308 181.602 67.6659 185.637C70.7672 188.457 71.5168 188.994 75.4576 187.042C76.184 186.685 77.0025 186.418 77.6013 185.96C79.3033 184.653 81.9229 183.685 81.5161 181.379C81.0696 178.891 80.6507 176.278 79.3502 174.045C78.629 172.802 76.1039 172.214 74.3894 171.322C73.7622 170.997 73.1927 170.469 72.5145 170.362C71.5498 170.207 70.2499 170.068 69.5656 170.451C68.6343 170.969 68.1661 171.977 67.5005 172.781Z" fill="#EAA4F5"/>
<path d="M45.7127 133.981C44.392 135.569 43.1858 137.232 41.7087 138.72C38.0389 142.437 37.7893 146.893 37.6671 151.249C37.443 159.219 37.1743 167.218 37.8464 175.161C38.4601 182.4 38.2395 189.834 42.1173 196.727C44.2378 200.507 46.3465 204.282 48.3988 208.083C48.5936 208.443 48.4022 208.935 48.392 209.357C47.5247 209.383 46.6574 209.409 45.7901 209.435C43.5876 205.245 40.8886 201.18 39.2748 196.854C34.7655 184.798 35.3943 172.348 35.3095 159.98C35.2747 154.918 35.7261 149.851 35.9633 144.786C36.6056 144.377 37.5029 144.07 37.8257 143.547C39.2286 141.283 40.2685 138.855 41.8567 136.69C42.6836 135.575 44.4032 134.868 45.7127 133.981Z" fill="#D530F0"/>
<path d="M48.002 212.616C49.7765 214.537 51.5445 216.444 53.3191 218.365C53.2009 218.525 53.0999 218.679 52.9818 218.838C51.9046 217.95 50.8223 217.071 49.7333 216.178C48.689 215.156 47.6617 214.129 46.6173 213.106C46.7287 212.833 46.8402 212.559 46.9569 212.276C47.3053 212.389 47.6536 212.502 47.9902 212.611L48.002 212.616Z" fill="#B22CBE"/>
<path d="M45.7969 209.434C46.2823 210.01 46.7678 210.586 47.2466 211.149C46.7612 210.573 46.2757 209.996 45.7969 209.434Z" fill="#D530F0"/>
<path d="M52.9798 218.84C53.0926 218.69 53.1989 218.526 53.3171 218.367C57.0615 221.686 60.8178 225.009 64.557 228.337C66.1643 229.772 67.7321 231.228 69.3051 232.674C67.067 231.147 64.8827 229.55 62.5685 228.108C61.3062 227.321 59.8259 226.77 58.4323 226.116C57.719 225.011 57.0005 223.914 56.2872 222.809C55.1429 221.762 54.0105 220.72 52.8609 219.682C52.8962 219.392 52.938 219.116 52.9732 218.827L52.9798 218.84Z" fill="#AB19AE"/>
<path d="M112.884 155.588C113.172 155.176 113.455 154.751 113.743 154.339C116.703 154.533 117.204 155.183 115.963 157.135C115.459 157.929 115.014 158.745 114.529 159.556C113.982 158.231 113.43 156.914 112.884 155.588Z" fill="#9912AF"/>
<path d="M146.164 168.854C146.688 168.604 147.195 168.36 148.48 167.744C147.49 169.148 146.88 170.005 146.281 170.866C142.04 169.464 140.541 169.679 146.027 162.737C145.91 163.12 145.865 163.53 145.672 163.897C144.979 165.229 143.866 166.499 143.604 167.873C143.316 169.393 144.448 169.932 146.159 168.863L146.164 168.854Z" fill="#9912AF"/>
<path d="M159.903 159.972C156.672 158.998 155.669 159.39 155.262 161.932C156.157 161.3 156.952 160.721 157.753 160.156C158.061 160.266 158.368 160.376 158.681 160.477C158.413 161.332 158.385 162.341 157.774 162.997C157.442 163.359 155.532 163.394 155.336 163.111C154.727 162.3 154.039 161.025 154.464 160.37C154.98 159.58 156.53 159.048 157.756 158.814C158.329 158.705 159.206 159.544 159.942 159.953L159.908 159.963L159.903 159.972Z" fill="#AB19AE"/>
<path d="M159.626 163.793C159.46 163.733 159.289 163.684 159.107 163.63C159.366 162.412 159.637 161.199 159.896 159.982L159.93 159.971C160.251 160.108 160.56 160.241 160.886 160.369C160.46 161.504 160.04 162.653 159.626 163.793Z" fill="#AB19AE"/>
<path d="M150.337 171.982L153.48 166.398C153.646 166.458 153.8 166.512 153.966 166.572L150.822 172.156C150.656 172.096 150.502 172.042 150.337 171.982Z" fill="#AB19AE"/>
<path d="M166.176 171.078C166.519 171.201 166.845 171.328 167.183 171.46C166.354 173.336 165.525 175.212 164.696 177.088C164.425 177.014 164.143 176.935 163.877 176.852C164.646 174.932 165.407 172.998 166.176 171.078Z" fill="#900C9B"/>
<path d="M96.0356 159.31C94.8871 165.136 90.7854 166.515 85.5629 165.065C78.3857 163.073 71.7318 164.291 65.0201 166.9C60.0647 168.836 54.4163 168.723 49.612 166.201C47.9988 165.357 47.056 163.296 46.5025 161.654C44.3745 155.363 42.4158 148.999 44.5192 142.461C46.4692 136.373 50.908 131.442 57.2009 127.81C60.3782 125.978 64.5073 125.963 68.3315 127.273C70.5952 128.047 72.813 128.929 75.0399 129.769C75.8846 130.843 76.426 132.279 77.6344 132.934C80.7991 134.657 84.2448 136.033 87.5829 137.55L87.5816 137.527C88.608 139.035 89.6396 140.535 90.6661 142.043C88.1695 142.439 86.4203 142.442 85.8098 143.097C84.4589 144.563 83.4761 146.283 84.9248 148.278C85.417 148.969 85.1248 150.018 85.1927 150.982C87.9155 152.178 89.9982 150.448 92.9346 149.548C93.5819 151.906 94.1438 154.089 94.8094 156.263C95.1244 157.294 95.6286 158.291 96.0527 159.305L96.0356 159.31Z" fill="#C254CC"/>
<path d="M88.5427 179.967C91.677 175.611 94.882 170.877 98.4511 166.33C100.705 163.462 104.039 163.32 106.462 166.134C108.65 168.684 110.333 171.625 111.536 174.562C114.41 181.623 114.821 188.969 114.281 196.288C113.568 205.909 112.658 215.526 109.497 224.876C109.186 225.807 108.618 226.69 108.12 227.575C106.293 230.82 104.669 231.281 100.611 229.53C95.7084 227.41 93.4905 223.55 91.4134 219.819C88.0871 213.84 87.9274 207.334 87.2186 200.945C86.8595 197.671 86.39 194.391 85.7602 191.143C85.005 187.235 86.7563 183.796 88.5361 179.953L88.5427 179.967Z" fill="#BB54CC"/>
<path d="M51.7598 176.881C55.8879 178.635 58.6416 180.659 60.9505 183.398C64.7854 187.969 69.7932 191.694 75.8449 194.549C77.4528 195.302 78.985 196.644 79.7182 197.992C83.4238 204.812 86.0125 211.849 86.4779 219.327C86.7166 223.118 87.6951 226.882 88.1822 230.661C88.5502 233.591 87.2334 235.047 84.3817 235.115C83.7627 235.129 83.0083 235.005 82.5402 234.726C74.9874 230.171 68.3158 224.833 62.7908 218.796C57.5512 213.085 53.0105 206.941 48.5749 200.811C45.4682 196.511 41.9357 192.16 42.2831 186.899C42.484 183.791 43.2132 180.704 43.8386 177.624C44.1212 176.213 45.3836 175.612 47.1751 175.938C48.9193 176.247 50.6452 176.639 51.7887 176.88L51.7598 176.881Z" fill="#BB54CC"/>
<path d="M67.4999 172.782C68.1654 171.978 68.6389 170.961 69.565 170.451C70.2493 170.069 71.5492 170.208 72.5139 170.362C73.1921 170.47 73.7616 170.998 74.3888 171.323C76.1033 172.215 78.6283 172.803 79.3496 174.046C80.6619 176.283 81.069 178.892 81.5155 181.38C81.9223 183.686 79.3145 184.658 77.6007 185.961C77.0019 186.419 76.1834 186.686 75.457 187.043C71.5162 188.995 70.7666 188.458 67.6653 185.638C63.2302 181.602 65.8591 177.816 67.0659 173.881C67.1786 173.529 67.449 173.2 67.6432 172.855C67.5959 172.839 67.542 172.808 67.4999 172.782ZM69.3034 177.68C67.1779 181.456 67.8221 183.264 71.787 184.702C74.7225 185.773 77.0256 185.039 78.3836 182.602C80.0105 179.712 78.3808 176.6 74.3543 175.296C71.7449 174.454 70.6871 174.592 69.2916 177.676L69.3034 177.68Z" fill="#F0B7F5"/>
<path d="M96.0219 159.307C95.5979 158.294 95.0936 157.296 94.7786 156.266C94.1248 154.095 93.563 151.913 92.9038 149.551C89.9674 150.45 87.8847 152.181 85.162 150.985C85.0875 150.007 85.3914 148.962 84.8941 148.281C83.4453 146.285 84.4399 144.569 85.7791 143.099C86.3896 142.444 88.1387 142.442 90.6353 142.045C89.6089 140.537 88.5772 139.038 87.5508 137.529C91.2755 139.318 92.1418 142.55 93.5058 145.377C95.4769 149.473 96.7121 153.765 96.2825 158.213C96.246 158.581 96.0991 158.943 96.0101 159.303L96.0219 159.307ZM88.2017 145.207C87.0181 145.77 86.2157 146.412 87.5676 147.444C87.739 147.998 87.7015 148.745 88.1591 149.043C88.5273 149.298 89.4615 149.027 90.4602 148.969C89.1875 148.302 88.3749 147.878 87.5676 147.444C87.7785 146.691 87.996 145.951 88.2069 145.198C88.672 145.028 89.1371 144.858 89.6074 144.679C89.4719 144.541 89.3298 144.389 89.1943 144.251C88.8595 144.569 88.5417 144.881 88.2069 145.198L88.2017 145.207Z" fill="#BB54CC"/>
<path d="M87.5781 137.551C84.2401 136.034 80.7825 134.654 77.6296 132.935C76.4213 132.28 75.8798 130.844 75.0352 129.77C79.9229 131.638 84.0243 134.323 87.5781 137.551Z" fill="#BB54CC"/>
<path d="M69.2989 177.679C70.6892 174.603 71.747 174.466 74.3616 175.299C78.3815 176.589 80.006 179.71 78.3909 182.604C77.0211 185.037 74.7299 185.775 71.7943 184.705C67.8295 183.267 67.1852 181.458 69.3108 177.683L69.2989 177.679Z" fill="#FCF8FD"/>
<path d="M87.5703 147.445C88.3829 147.87 89.1954 148.294 90.4629 148.971C89.476 149.033 88.5471 149.294 88.1618 149.045C87.7213 148.742 87.7417 147.999 87.5703 147.445Z" fill="#CD6CD5"/>
<path d="M87.5861 147.444C86.2342 146.413 87.0314 145.78 88.2202 145.208C88.0145 145.952 87.7918 146.701 87.5861 147.444Z" fill="#CD6CD5"/>
<path d="M88.1998 145.21C88.5346 144.893 88.8524 144.581 89.1872 144.264C89.3227 144.402 89.4648 144.554 89.6003 144.691C89.1352 144.861 88.6701 145.031 88.1998 145.21Z" fill="#CD6CD5"/>
</svg>
