<svg width="190" height="42" viewBox="0 0 190 42" fill="none" xmlns="http://www.w3.org/2000/svg">
<path d="M6.92281 41.998H0.622813V-0.00195599H12.2028C16.3428 -0.00195599 20.0628 1.67804 23.0628 4.49805C26.0028 7.31805 27.5628 11.278 27.5628 15.298C27.5628 19.438 26.0028 23.278 23.0628 26.218C21.5628 27.718 19.7628 28.798 17.8428 29.578L27.9228 41.998H19.7628L10.6428 30.658H6.92281V41.998ZM6.92281 6.29805V24.358H12.2028C17.1828 24.358 21.3228 20.278 21.3228 15.298C21.3228 10.258 17.1828 6.29805 12.2028 6.29805H6.92281ZM52.8631 -0.00195599H59.0431V41.998H31.4431V-0.00195599H37.5631V35.818H52.8631V-0.00195599ZM90.6388 23.338H63.8188V-0.00195599H96.8188V6.11804H69.9388V17.218H96.8188V41.998H63.8188V35.878H90.6388V23.338ZM129.018 23.338H102.198V-0.00195599H135.198V6.11804H108.318V17.218H135.198V41.998H102.198V35.878H129.018V23.338ZM151.513 6.17805V36.118H156.973V41.998H139.993V36.118H145.513V6.17805H139.993V-0.00195599H156.973V6.17805H151.513ZM168.462 41.998H162.342V-0.00195599H190.002V41.998H183.822V24.118H168.462V41.998ZM168.462 6.17805V17.938H183.822V6.17805H168.462Z" fill="#FD96FF"/>
</svg>
