<svg width="772" height="118" viewBox="0 0 772 118" fill="none" xmlns="http://www.w3.org/2000/svg">
<path d="M39.4784 1.46V8.48L7.79836 22.94L39.4784 37.34V44.42L6.59836 29.54V44H0.41836V2H6.59836V16.4L39.4784 1.46ZM85.0263 22.94C85.0263 35.3 74.9463 45.38 62.5863 45.38C50.1663 45.38 40.1463 35.3 40.1463 22.94C40.1463 10.52 50.1663 0.499999 62.5863 0.499999C74.9463 0.499999 85.0263 10.52 85.0263 22.94ZM46.4463 22.94C46.4463 27.2 48.1263 31.28 51.1863 34.28C54.2463 37.34 58.2663 39.02 62.5863 39.02C66.9063 39.02 70.9263 37.34 73.9863 34.28C77.0463 31.28 78.6663 27.2 78.6663 22.94C78.6663 18.62 77.0463 14.54 73.9863 11.54C70.9263 8.48 66.9063 6.8 62.5863 6.8C58.2663 6.8 54.2463 8.48 51.1863 11.54C48.1263 14.54 46.4463 18.62 46.4463 22.94ZM92.7227 44H86.0027L94.0427 2H114.863V44H108.683V8.18H99.5627L92.7227 44ZM120.243 2H126.663L126.603 38.42H131.163L135.303 2H152.043V44H145.443V7.64H140.943L136.983 44H120.243V2ZM177.084 2H183.264V44H177.084V29.12H156.864V2H163.044V23H177.084V2ZM230.53 31.82C227.11 39.8 219.19 45.38 209.95 45.38C197.53 45.38 187.51 35.36 187.51 22.94C187.51 10.52 197.53 0.499999 209.95 0.499999C222.37 0.499999 232.39 10.52 232.39 22.94C232.39 23.66 232.33 24.38 232.27 25.04H193.99C194.41 28.58 196.03 31.82 198.55 34.34C201.61 37.4 205.63 39.08 209.95 39.08C214.27 39.08 218.29 37.4 221.35 34.34C222.25 33.38 223.09 32.36 223.75 31.28L230.53 31.82ZM209.95 6.8C205.63 6.8 201.61 8.48 198.55 11.54C196.51 13.58 195.07 16.16 194.35 18.86H225.55C224.83 16.16 223.39 13.58 221.35 11.54C218.29 8.48 214.27 6.8 209.95 6.8ZM280.124 28.82C277.544 38.3 268.844 45.32 258.464 45.32C246.104 45.32 236.084 35.3 236.084 22.94C236.084 10.58 246.104 0.559998 258.464 0.559998C268.964 0.559998 277.784 7.76 280.244 17.48H273.644C272.804 15.26 271.544 13.28 269.864 11.54C266.804 8.54 262.784 6.86 258.464 6.86C254.204 6.86 250.124 8.54 247.124 11.54C244.064 14.6 242.384 18.62 242.384 22.94C242.384 27.26 244.064 31.28 247.124 34.34C250.124 37.34 254.204 39.02 258.464 39.02C262.784 39.02 266.804 37.34 269.864 34.34C271.484 32.72 272.684 30.86 273.464 28.82H280.124ZM308.641 8.18H297.721V44H291.601V8.18H280.681V2H308.641V8.18ZM349.114 43.88H313.354V2H337.294V18.5H349.054V18.92H349.114V43.88ZM331.114 18.5V8.18H319.534V18.5H331.114ZM319.534 37.7H342.934V24.62H319.534V37.7ZM398.269 22.94C398.269 35.3 388.189 45.38 375.829 45.38C363.409 45.38 353.389 35.3 353.389 22.94C353.389 10.52 363.409 0.499999 375.829 0.499999C388.189 0.499999 398.269 10.52 398.269 22.94ZM359.689 22.94C359.689 27.2 361.369 31.28 364.429 34.28C367.489 37.34 371.509 39.02 375.829 39.02C380.149 39.02 384.169 37.34 387.229 34.28C390.289 31.28 391.909 27.2 391.909 22.94C391.909 18.62 390.289 14.54 387.229 11.54C384.169 8.48 380.149 6.8 375.829 6.8C371.509 6.8 367.489 8.48 364.429 11.54C361.369 14.54 359.689 18.62 359.689 22.94ZM429.344 44H422.624L430.664 2H451.484V44H445.304V8.18H436.184L429.344 44ZM498.772 31.82C495.352 39.8 487.432 45.38 478.192 45.38C465.772 45.38 455.752 35.36 455.752 22.94C455.752 10.52 465.772 0.499999 478.192 0.499999C490.612 0.499999 500.632 10.52 500.632 22.94C500.632 23.66 500.572 24.38 500.512 25.04H462.232C462.652 28.58 464.272 31.82 466.792 34.34C469.852 37.4 473.872 39.08 478.192 39.08C482.512 39.08 486.532 37.4 489.592 34.34C490.492 33.38 491.332 32.36 491.992 31.28L498.772 31.82ZM478.192 6.8C473.872 6.8 469.852 8.48 466.792 11.54C464.752 13.58 463.312 16.16 462.592 18.86H493.792C493.072 16.16 491.632 13.58 489.592 11.54C486.532 8.48 482.512 6.8 478.192 6.8ZM549.206 22.94C549.206 35.3 539.126 45.38 526.766 45.38C514.346 45.38 504.326 35.3 504.326 22.94C504.326 10.52 514.346 0.499999 526.766 0.499999C539.126 0.499999 549.206 10.52 549.206 22.94ZM510.626 22.94C510.626 27.2 512.306 31.28 515.366 34.28C518.426 37.34 522.446 39.02 526.766 39.02C531.086 39.02 535.106 37.34 538.166 34.28C541.226 31.28 542.846 27.2 542.846 22.94C542.846 18.62 541.226 14.54 538.166 11.54C535.106 8.48 531.086 6.8 526.766 6.8C522.446 6.8 518.426 8.48 515.366 11.54C512.306 14.54 510.626 18.62 510.626 22.94ZM559.574 44H553.394V2H580.994V44H574.874V8.18H559.574V44ZM592.327 44H586.207V2H613.867V44H607.687V26.12H592.327V44ZM592.327 8.18V19.94H607.687V8.18H592.327ZM630.807 2C634.947 2 638.847 3.62 641.667 6.5C644.547 9.32 646.167 13.22 646.167 17.36C646.167 21.44 644.547 25.22 641.667 28.16C638.847 31.1 634.947 32.6 630.807 32.6H625.527V43.88H619.227V2H630.807ZM630.807 26.3C635.787 26.3 639.927 22.34 639.927 17.36C639.927 12.38 635.787 8.24 630.807 8.24H625.527V26.3H630.807ZM650.466 37.7V2H678.366V37.7H686.226V43.88H642.606V37.7H650.466ZM656.646 8.12V37.7H672.246V8.12H656.646ZM731.14 22.94C731.14 35.3 721.06 45.38 708.7 45.38C696.28 45.38 686.26 35.3 686.26 22.94C686.26 10.52 696.28 0.499999 708.7 0.499999C721.06 0.499999 731.14 10.52 731.14 22.94ZM692.56 22.94C692.56 27.2 694.24 31.28 697.3 34.28C700.36 37.34 704.38 39.02 708.7 39.02C713.02 39.02 717.04 37.34 720.1 34.28C723.16 31.28 724.78 27.2 724.78 22.94C724.78 18.62 723.16 14.54 720.1 11.54C717.04 8.48 713.02 6.8 708.7 6.8C704.38 6.8 700.36 8.48 697.3 11.54C694.24 14.54 692.56 18.62 692.56 22.94ZM771.164 43.88H735.404V2H759.344V18.5H771.104V18.92H771.164V43.88ZM753.164 18.5V8.18H741.584V18.5H753.164ZM741.584 37.7H764.984V24.62H741.584V37.7ZM103.84 115.88H68.0801V74H92.0201V90.5H103.78V90.92H103.84V115.88ZM85.8401 90.5V80.18H74.2601V90.5H85.8401ZM74.2601 109.7H97.6601V96.62H74.2601V109.7ZM144.422 116L140.222 79.52H136.622V116H130.262V74H146.042L149.942 110.24H153.422L157.322 74H173.102V116H166.502L166.622 79.64H163.082L158.762 116H144.422ZM178.543 74H184.963L184.903 110.42H189.463L193.603 74H210.343V116H203.743V79.64H199.243L195.283 116H178.543V74ZM227.33 74C231.47 74 235.37 75.62 238.19 78.5C241.07 81.32 242.69 85.22 242.69 89.36C242.69 93.44 241.07 97.22 238.19 100.16C235.37 103.1 231.47 104.6 227.33 104.6H222.05V115.88H215.75V74H227.33ZM227.33 98.3C232.31 98.3 236.45 94.34 236.45 89.36C236.45 84.38 232.31 80.24 227.33 80.24H222.05V98.3H227.33ZM288.772 103.82C285.352 111.8 277.432 117.38 268.192 117.38C255.772 117.38 245.752 107.36 245.752 94.94C245.752 82.52 255.772 72.5 268.192 72.5C280.612 72.5 290.632 82.52 290.632 94.94C290.632 95.66 290.572 96.38 290.512 97.04H252.232C252.652 100.58 254.272 103.82 256.792 106.34C259.852 109.4 263.872 111.08 268.192 111.08C272.512 111.08 276.532 109.4 279.592 106.34C280.492 105.38 281.332 104.36 281.992 103.28L288.772 103.82ZM268.192 78.8C263.872 78.8 259.852 80.48 256.792 83.54C254.752 85.58 253.312 88.16 252.592 90.86H283.792C283.072 88.16 281.632 85.58 279.592 83.54C276.532 80.48 272.512 78.8 268.192 78.8ZM321.767 96.68V116H315.587V74H321.767V90.5H346.427V74H352.607V116H346.427V96.68H321.767ZM364.339 116H358.219V74H385.879V116H379.699V98.12H364.339V116ZM364.339 80.18V91.94H379.699V80.18H364.339ZM414.618 116V92.6H444.558V80.12H414.618V74H451.338V98.72H421.458V109.88H451.338V116H414.618ZM496.94 94.94C496.94 107.3 486.86 117.38 474.5 117.38C462.08 117.38 452.06 107.3 452.06 94.94C452.06 82.52 462.08 72.5 474.5 72.5C486.86 72.5 496.94 82.52 496.94 94.94ZM458.36 94.94C458.36 99.2 460.04 103.28 463.1 106.28C466.16 109.34 470.18 111.02 474.5 111.02C478.82 111.02 482.84 109.34 485.9 106.28C488.96 103.28 490.58 99.2 490.58 94.94C490.58 90.62 488.96 86.54 485.9 83.54C482.84 80.48 478.82 78.8 474.5 78.8C470.18 78.8 466.16 80.48 463.1 83.54C460.04 86.54 458.36 90.62 458.36 94.94ZM499.403 116V92.6H529.343V80.12H499.403V74H536.123V98.72H506.243V109.88H536.123V116H499.403ZM561.752 74H567.932V116H561.752V101.12H541.532V74H547.712V95H561.752V74ZM594.911 116V74H615.491V80.18H601.211V116H594.911ZM659.245 94.94C659.245 107.3 649.165 117.38 636.805 117.38C624.385 117.38 614.365 107.3 614.365 94.94C614.365 82.52 624.385 72.5 636.805 72.5C649.165 72.5 659.245 82.52 659.245 94.94ZM620.665 94.94C620.665 99.2 622.345 103.28 625.405 106.28C628.465 109.34 632.485 111.02 636.805 111.02C641.125 111.02 645.145 109.34 648.205 106.28C651.265 103.28 652.885 99.2 652.885 94.94C652.885 90.62 651.265 86.54 648.205 83.54C645.145 80.48 641.125 78.8 636.805 78.8C632.485 78.8 628.465 80.48 625.405 83.54C622.345 86.54 620.665 90.62 620.665 94.94ZM666.579 109.7V74H694.479V109.7H702.339V115.88H658.719V109.7H666.579ZM672.759 80.12V109.7H688.359V80.12H672.759Z" fill="#7D69F7"/>
</svg>
