<svg width="642" height="123" viewBox="0 0 642 123" fill="none" xmlns="http://www.w3.org/2000/svg">
<path d="M161.51 1.46V8.48L129.83 22.94L161.51 37.34V44.42L128.63 29.54V44H122.45V2H128.63V16.4L161.51 1.46ZM207.058 22.94C207.058 35.3 196.978 45.38 184.618 45.38C172.198 45.38 162.178 35.3 162.178 22.94C162.178 10.52 172.198 0.499999 184.618 0.499999C196.978 0.499999 207.058 10.52 207.058 22.94ZM168.478 22.94C168.478 27.2 170.158 31.28 173.218 34.28C176.278 37.34 180.298 39.02 184.618 39.02C188.938 39.02 192.958 37.34 196.018 34.28C199.078 31.28 200.698 27.2 200.698 22.94C200.698 18.62 199.078 14.54 196.018 11.54C192.958 8.48 188.938 6.8 184.618 6.8C180.298 6.8 176.278 8.48 173.218 11.54C170.158 14.54 168.478 18.62 168.478 22.94ZM214.754 44H208.034L216.074 2H236.894V44H230.714V8.18H221.594L214.754 44ZM242.274 2H248.694L248.634 38.42H253.194L257.334 2H274.074V44H267.474V7.64H262.974L259.014 44H242.274V2ZM299.115 2H305.295V44H299.115V29.12H278.895V2H285.075V23H299.115V2ZM352.561 31.82C349.141 39.8 341.221 45.38 331.981 45.38C319.561 45.38 309.541 35.36 309.541 22.94C309.541 10.52 319.561 0.499999 331.981 0.499999C344.401 0.499999 354.421 10.52 354.421 22.94C354.421 23.66 354.361 24.38 354.301 25.04H316.021C316.441 28.58 318.061 31.82 320.581 34.34C323.641 37.4 327.661 39.08 331.981 39.08C336.301 39.08 340.321 37.4 343.381 34.34C344.281 33.38 345.121 32.36 345.781 31.28L352.561 31.82ZM331.981 6.8C327.661 6.8 323.641 8.48 320.581 11.54C318.541 13.58 317.101 16.16 316.381 18.86H347.581C346.861 16.16 345.421 13.58 343.381 11.54C340.321 8.48 336.301 6.8 331.981 6.8ZM402.155 28.82C399.575 38.3 390.875 45.32 380.495 45.32C368.135 45.32 358.115 35.3 358.115 22.94C358.115 10.58 368.135 0.559998 380.495 0.559998C390.995 0.559998 399.815 7.76 402.275 17.48H395.675C394.835 15.26 393.575 13.28 391.895 11.54C388.835 8.54 384.815 6.86 380.495 6.86C376.235 6.86 372.155 8.54 369.155 11.54C366.095 14.6 364.415 18.62 364.415 22.94C364.415 27.26 366.095 31.28 369.155 34.34C372.155 37.34 376.235 39.02 380.495 39.02C384.815 39.02 388.835 37.34 391.895 34.34C393.515 32.72 394.715 30.86 395.495 28.82H402.155ZM430.672 8.18H419.752V44H413.632V8.18H402.712V2H430.672V8.18ZM471.145 43.88H435.385V2H459.325V18.5H471.085V18.92H471.145V43.88ZM453.145 18.5V8.18H441.565V18.5H453.145ZM441.565 37.7H464.965V24.62H441.565V37.7ZM520.3 22.94C520.3 35.3 510.22 45.38 497.86 45.38C485.44 45.38 475.42 35.3 475.42 22.94C475.42 10.52 485.44 0.499999 497.86 0.499999C510.22 0.499999 520.3 10.52 520.3 22.94ZM481.72 22.94C481.72 27.2 483.4 31.28 486.46 34.28C489.52 37.34 493.54 39.02 497.86 39.02C502.18 39.02 506.2 37.34 509.26 34.28C512.32 31.28 513.94 27.2 513.94 22.94C513.94 18.62 512.32 14.54 509.26 11.54C506.2 8.48 502.18 6.8 497.86 6.8C493.54 6.8 489.52 8.48 486.46 11.54C483.4 14.54 481.72 18.62 481.72 22.94ZM7.0157 116H0.835703V74H28.4357V116H22.3157V80.18H7.0157V116ZM77.5068 94.94C77.5068 107.3 67.4268 117.38 55.0668 117.38C42.6468 117.38 32.6268 107.3 32.6268 94.94C32.6268 82.52 42.6468 72.5 55.0668 72.5C67.4268 72.5 77.5068 82.52 77.5068 94.94ZM38.9268 94.94C38.9268 99.2 40.6068 103.28 43.6668 106.28C46.7268 109.34 50.7468 111.02 55.0668 111.02C59.3868 111.02 63.4068 109.34 66.4668 106.28C69.5268 103.28 71.1468 99.2 71.1468 94.94C71.1468 90.62 69.5268 86.54 66.4668 83.54C63.4068 80.48 59.3868 78.8 55.0668 78.8C50.7468 78.8 46.7268 80.48 43.6668 83.54C40.6068 86.54 38.9268 90.62 38.9268 94.94ZM105.887 80.18H94.9668V116H88.8468V80.18H77.9268V74H105.887V80.18ZM120.963 74C125.103 74 129.003 75.62 131.823 78.5C134.703 81.32 136.323 85.22 136.323 89.36C136.323 93.44 134.703 97.22 131.823 100.16C129.003 103.1 125.103 104.6 120.963 104.6H115.683V115.88H109.383V74H120.963ZM120.963 98.3C125.943 98.3 130.083 94.34 130.083 89.36C130.083 84.38 125.943 80.24 120.963 80.24H115.683V98.3H120.963ZM182.405 103.82C178.985 111.8 171.065 117.38 161.825 117.38C149.405 117.38 139.385 107.36 139.385 94.94C139.385 82.52 149.405 72.5 161.825 72.5C174.245 72.5 184.265 82.52 184.265 94.94C184.265 95.66 184.205 96.38 184.145 97.04H145.865C146.285 100.58 147.905 103.82 150.425 106.34C153.485 109.4 157.505 111.08 161.825 111.08C166.145 111.08 170.165 109.4 173.225 106.34C174.125 105.38 174.965 104.36 175.625 103.28L182.405 103.82ZM161.825 78.8C157.505 78.8 153.485 80.48 150.425 83.54C148.385 85.58 146.945 88.16 146.225 90.86H177.425C176.705 88.16 175.265 85.58 173.225 83.54C170.165 80.48 166.145 78.8 161.825 78.8ZM194.273 80.24V90.32H218.693V116H188.093V74H218.693V80.24H194.273ZM194.273 96.5V109.76H212.453V96.5H194.273ZM229.285 116H222.565L230.605 74H251.425V116H245.245V80.18H236.125L229.285 116ZM272.283 104.66L263.163 116H255.003L265.083 103.58C263.163 102.8 261.363 101.72 259.863 100.22C256.923 97.28 255.363 93.44 255.363 89.3C255.363 85.28 256.923 81.32 259.863 78.5C262.743 75.56 266.583 74 270.723 74H282.303V116H276.003V104.66H272.283ZM270.723 80.3C265.743 80.3 261.603 84.26 261.603 89.3C261.603 94.28 265.743 98.36 270.723 98.36H276.003V80.3H270.723ZM328.362 103.82C324.942 111.8 317.022 117.38 307.782 117.38C295.362 117.38 285.342 107.36 285.342 94.94C285.342 82.52 295.362 72.5 307.782 72.5C320.202 72.5 330.222 82.52 330.222 94.94C330.222 95.66 330.162 96.38 330.102 97.04H291.822C292.242 100.58 293.862 103.82 296.382 106.34C299.442 109.4 303.462 111.08 307.782 111.08C312.102 111.08 316.122 109.4 319.182 106.34C320.082 105.38 320.922 104.36 321.582 103.28L328.362 103.82ZM307.782 78.8C303.462 78.8 299.442 80.48 296.382 83.54C294.342 85.58 292.902 88.16 292.182 90.86H323.382C322.662 88.16 321.222 85.58 319.182 83.54C316.122 80.48 312.102 78.8 307.782 78.8ZM348.66 116L344.46 79.52H340.86V116H334.5V74H350.28L354.18 110.24H357.66L361.56 74H377.34V116H370.74L370.86 79.64H367.32L363 116H348.66ZM426.491 94.94C426.491 107.3 416.411 117.38 404.051 117.38C391.631 117.38 381.611 107.3 381.611 94.94C381.611 82.52 391.631 72.5 404.051 72.5C416.411 72.5 426.491 82.52 426.491 94.94ZM387.911 94.94C387.911 99.2 389.591 103.28 392.651 106.28C395.711 109.34 399.731 111.02 404.051 111.02C408.371 111.02 412.391 109.34 415.451 106.28C418.511 103.28 420.131 99.2 420.131 94.94C420.131 90.62 418.511 86.54 415.451 83.54C412.391 80.48 408.371 78.8 404.051 78.8C399.731 78.8 395.711 80.48 392.651 83.54C389.591 86.54 387.911 90.62 387.911 94.94ZM441.87 63.5V69.08H450.93V63.5H441.87ZM451.47 79.64L447.51 116H430.77V74H437.19L437.13 110.42H441.69L445.83 74H462.57V116H456.03V79.64H451.47ZM496.918 116H490.738V74H518.338V116H512.218V80.18H496.918V116ZM523.7 74H530.12L530.06 110.42H534.62L538.76 74H555.5V116H548.9V79.64H544.4L540.44 116H523.7V74ZM560.907 74H567.087V109.82H576.147V74H582.327V109.82H591.447V74H597.627V109.82H605.607V122.84H599.427V116H560.907V74ZM609.481 74H615.901L615.841 110.42H620.401L624.541 74H641.281V116H634.681V79.64H630.181L626.221 116H609.481V74Z" fill="#A100AF"/>
</svg>
