<svg width="737" height="126" viewBox="0 0 737 126" fill="none" xmlns="http://www.w3.org/2000/svg">
<path d="M7.12736 48H0.432364V2.5H30.3324V48H23.7024V9.195H7.12736V48ZM48.6857 2.5C53.1707 2.5 57.3957 4.255 60.4507 7.375C63.5707 10.43 65.3257 14.655 65.3257 19.14C65.3257 23.56 63.5707 27.655 60.4507 30.84C57.3957 34.025 53.1707 35.65 48.6857 35.65H42.9657V47.87H36.1407V2.5H48.6857ZM48.6857 28.825C54.0807 28.825 58.5657 24.535 58.5657 19.14C58.5657 13.745 54.0807 9.26 48.6857 9.26H42.9657V28.825H48.6857ZM117.262 25.185C117.262 38.575 106.342 49.495 92.9522 49.495C79.4972 49.495 68.6422 38.575 68.6422 25.185C68.6422 11.73 79.4972 0.874998 92.9522 0.874998C106.342 0.874998 117.262 11.73 117.262 25.185ZM75.4672 25.185C75.4672 29.8 77.2872 34.22 80.6022 37.47C83.9172 40.785 88.2722 42.605 92.9522 42.605C97.6322 42.605 101.987 40.785 105.302 37.47C108.617 34.22 110.372 29.8 110.372 25.185C110.372 20.505 108.617 16.085 105.302 12.835C101.987 9.52 97.6322 7.7 92.9522 7.7C88.2722 7.7 83.9172 9.52 80.6022 12.835C77.2872 16.085 75.4672 20.505 75.4672 25.185ZM125.207 41.175V2.5H155.432V41.175H163.947V47.87H116.692V41.175H125.207ZM131.902 9.13V41.175H148.802V9.13H131.902ZM212.604 25.185C212.604 38.575 201.684 49.495 188.294 49.495C174.839 49.495 163.984 38.575 163.984 25.185C163.984 11.73 174.839 0.874998 188.294 0.874998C201.684 0.874998 212.604 11.73 212.604 25.185ZM170.809 25.185C170.809 29.8 172.629 34.22 175.944 37.47C179.259 40.785 183.614 42.605 188.294 42.605C192.974 42.605 197.329 40.785 200.644 37.47C203.959 34.22 205.714 29.8 205.714 25.185C205.714 20.505 203.959 16.085 200.644 12.835C197.329 9.52 192.974 7.7 188.294 7.7C183.614 7.7 179.259 9.52 175.944 12.835C172.629 16.085 170.809 20.505 170.809 25.185ZM220.942 48H213.662L222.372 2.5H244.927V48H238.232V9.195H228.352L220.942 48ZM277.695 31.88V48H271V31.88H257.935V48H251.24V25.25H259.95L249.485 2.5H256.7L267.165 25.25H271V2.5H277.695V25.25H281.595L292.06 2.5H299.275L288.81 25.25H297.455V48H290.76V31.88H277.695ZM303.567 2.5H310.522L310.457 41.955H315.397L319.882 2.5H338.017V48H330.867V8.61H325.992L321.702 48H303.567V2.5ZM372.651 9.195H360.821V48H354.191V9.195H342.361V2.5H372.651V9.195ZM407.119 9.195H395.289V48H388.659V9.195H376.829V2.5H407.119V9.195ZM453.704 34.805C449.999 43.45 441.419 49.495 431.409 49.495C417.954 49.495 407.099 38.64 407.099 25.185C407.099 11.73 417.954 0.874998 431.409 0.874998C444.864 0.874998 455.719 11.73 455.719 25.185C455.719 25.965 455.654 26.745 455.589 27.46H414.119C414.574 31.295 416.329 34.805 419.059 37.535C422.374 40.85 426.729 42.67 431.409 42.67C436.089 42.67 440.444 40.85 443.759 37.535C444.734 36.495 445.644 35.39 446.359 34.22L453.704 34.805ZM431.409 7.7C426.729 7.7 422.374 9.52 419.059 12.835C416.849 15.045 415.289 17.84 414.509 20.765H448.309C447.529 17.84 445.969 15.045 443.759 12.835C440.444 9.52 436.089 7.7 431.409 7.7ZM464.057 48H456.777L465.487 2.5H488.042V48H481.347V9.195H471.467L464.057 48ZM523.185 31.36C523.185 35.78 521.43 39.94 518.31 43.125C515.19 46.245 510.965 48 506.545 48H493.87V2.5H500.76V14.655H506.545C510.965 14.655 515.19 16.41 518.31 19.53C521.43 22.715 523.185 26.875 523.185 31.36ZM506.545 41.11C511.94 41.11 516.36 36.755 516.36 31.36C516.36 25.965 511.94 21.545 506.545 21.545H500.76V41.11H506.545ZM534.137 27.07V48H527.442V2.5H534.137V20.375H560.852V2.5H567.547V48H560.852V27.07H534.137ZM620.441 25.185C620.441 38.575 609.521 49.495 596.131 49.495C582.676 49.495 571.821 38.575 571.821 25.185C571.821 11.73 582.676 0.874998 596.131 0.874998C609.521 0.874998 620.441 11.73 620.441 25.185ZM578.646 25.185C578.646 29.8 580.466 34.22 583.781 37.47C587.096 40.785 591.451 42.605 596.131 42.605C600.811 42.605 605.166 40.785 608.481 37.47C611.796 34.22 613.551 29.8 613.551 25.185C613.551 20.505 611.796 16.085 608.481 12.835C605.166 9.52 600.811 7.7 596.131 7.7C591.451 7.7 587.096 9.52 583.781 12.835C580.466 16.085 578.646 20.505 578.646 25.185ZM672.153 31.555C669.358 41.825 659.933 49.43 648.688 49.43C635.298 49.43 624.443 38.575 624.443 25.185C624.443 11.795 635.298 0.939998 648.688 0.939998C660.063 0.939998 669.618 8.74 672.283 19.27H665.133C664.223 16.865 662.858 14.72 661.038 12.835C657.723 9.585 653.368 7.765 648.688 7.765C644.073 7.765 639.653 9.585 636.403 12.835C633.088 16.15 631.268 20.505 631.268 25.185C631.268 29.865 633.088 34.22 636.403 37.535C639.653 40.785 644.073 42.605 648.688 42.605C653.368 42.605 657.723 40.785 661.038 37.535C662.793 35.78 664.093 33.765 664.938 31.555H672.153ZM703.046 9.195H691.216V48H684.586V9.195H672.756V2.5H703.046V9.195ZM736.784 31.36C736.784 35.78 735.029 39.94 731.909 43.125C728.789 46.245 724.564 48 720.144 48H707.469V2.5H714.359V14.655H720.144C724.564 14.655 728.789 16.41 731.909 19.53C735.029 22.715 736.784 26.875 736.784 31.36ZM720.144 41.11C725.539 41.11 729.959 36.755 729.959 31.36C729.959 25.965 725.539 21.545 720.144 21.545H714.359V41.11H720.144ZM291.946 109.88V126H285.251V109.88H272.186V126H265.491V103.25H274.201L263.736 80.5H270.951L281.416 103.25H285.251V80.5H291.946V103.25H295.846L306.311 80.5H313.526L303.061 103.25H311.706V126H305.011V109.88H291.946ZM317.818 80.5H324.773L324.708 119.955H329.648L334.133 80.5H352.268V126H345.118V86.61H340.243L335.953 126H317.818V80.5ZM379.248 106.565H357.473V99.87H379.248V87.195H357.473V80.5H385.943V126H357.473V119.305H379.248V106.565ZM398.9 105.07V126H392.205V80.5H398.9V98.375H425.615V80.5H432.31V126H425.615V105.07H398.9ZM437.789 80.5H444.744L444.679 119.955H449.619L454.104 80.5H472.239V126H465.089V86.61H460.214L455.924 126H437.789V80.5Z" fill="#7D69F7"/>
</svg>
